<svg width="48" height="48" viewBox="0 0 48 48" fill="none" xmlns="http://www.w3.org/2000/svg">
<path d="M43.1513 11.0381C43.0104 10.8696 42.8344 10.7341 42.6354 10.6411C42.4365 10.5481 42.2196 10.5 42 10.5H11.7525L10.6125 4.23187C10.5497 3.88625 10.3676 3.57363 10.0979 3.34851C9.82828 3.12339 9.48816 3.00005 9.13688 3H4.5C4.10218 3 3.72064 3.15804 3.43934 3.43934C3.15804 3.72064 3 4.10218 3 4.5C3 4.89782 3.15804 5.27936 3.43934 5.56066C3.72064 5.84196 4.10218 6 4.5 6H7.875L12.6675 32.3044C12.8087 33.0845 13.1534 33.8135 13.6669 34.4175C12.9582 35.0794 12.4467 35.9247 12.1891 36.8595C11.9315 37.7944 11.9378 38.7823 12.2074 39.7138C12.477 40.6453 12.9993 41.4839 13.7164 42.1366C14.4335 42.7894 15.3174 43.2308 16.27 43.4119C17.2227 43.5929 18.2069 43.5067 19.1135 43.1625C20.0201 42.8184 20.8136 42.23 21.4062 41.4624C21.9988 40.6948 22.3672 39.7781 22.4705 38.8139C22.5739 37.8497 22.4082 36.8758 21.9919 36H30.5081C30.1725 36.7025 29.9989 37.4714 30 38.25C30 39.2884 30.3079 40.3034 30.8848 41.1667C31.4617 42.0301 32.2816 42.703 33.2409 43.1004C34.2002 43.4977 35.2558 43.6017 36.2742 43.3991C37.2926 43.1966 38.2281 42.6965 38.9623 41.9623C39.6965 41.2281 40.1966 40.2926 40.3991 39.2742C40.6017 38.2558 40.4977 37.2002 40.1004 36.2409C39.703 35.2816 39.0301 34.4617 38.1667 33.8848C37.3034 33.3079 36.2884 33 35.25 33H17.0944C16.7431 32.9999 16.403 32.8766 16.1333 32.6515C15.8636 32.4264 15.6815 32.1137 15.6188 31.7681L15.0244 28.5H36.7744C37.8282 28.4998 38.8486 28.1298 39.6576 27.4545C40.4666 26.7791 41.0129 25.8412 41.2013 24.8044L43.4813 12.2681C43.5198 12.0514 43.5103 11.8289 43.4533 11.6164C43.3962 11.4038 43.2931 11.2064 43.1513 11.0381ZM19.5 38.25C19.5 38.695 19.368 39.13 19.1208 39.5C18.8736 39.87 18.5222 40.1584 18.111 40.3287C17.6999 40.499 17.2475 40.5436 16.811 40.4568C16.3746 40.37 15.9737 40.1557 15.659 39.841C15.3443 39.5263 15.1301 39.1254 15.0432 38.689C14.9564 38.2525 15.001 37.8001 15.1713 37.389C15.3416 36.9778 15.63 36.6264 16 36.3792C16.37 36.132 16.805 36 17.25 36C17.8467 36 18.419 36.2371 18.841 36.659C19.2629 37.081 19.5 37.6533 19.5 38.25ZM37.5 38.25C37.5 38.695 37.368 39.13 37.1208 39.5C36.8736 39.87 36.5222 40.1584 36.111 40.3287C35.6999 40.499 35.2475 40.5436 34.811 40.4568C34.3746 40.37 33.9737 40.1557 33.659 39.841C33.3443 39.5263 33.1301 39.1254 33.0432 38.689C32.9564 38.2525 33.001 37.8001 33.1713 37.389C33.3416 36.9778 33.63 36.6264 34 36.3792C34.37 36.132 34.805 36 35.25 36C35.8467 36 36.419 36.2371 36.841 36.659C37.2629 37.081 37.5 37.6533 37.5 38.25Z" fill="#A10029"/>
</svg>
