<svg width="40" height="40" viewBox="0 0 40 40" fill="none" xmlns="http://www.w3.org/2000/svg">
<path fill-rule="evenodd" clip-rule="evenodd" d="M1.46447 1.46447C2.40215 0.526785 3.67392 0 5 0H35C36.3261 0 37.5978 0.526785 38.5355 1.46447C39.4732 2.40215 40 3.67391 40 5V20C40 21.1046 39.1046 22 38 22C36.8954 22 36 21.1046 36 20V5C36 4.73479 35.8946 4.48043 35.7071 4.29289C35.5196 4.10536 35.2652 4 35 4H5C4.73478 4 4.48043 4.10536 4.29289 4.29289C4.10536 4.48043 4 4.73478 4 5V35C4 35.2652 4.10536 35.5196 4.29289 35.7071C4.48043 35.8946 4.73479 36 5 36H20C21.1046 36 22 36.8954 22 38C22 39.1046 21.1046 40 20 40H5C3.67391 40 2.40215 39.4732 1.46447 38.5355C0.526785 37.5978 0 36.3261 0 35V5C0 3.67392 0.526785 2.40215 1.46447 1.46447Z" fill="white"/>
<path fill-rule="evenodd" clip-rule="evenodd" d="M10.0001 10C8.89549 10 8.00006 10.8954 8.00006 12C8.00006 13.1046 8.89549 14 10.0001 14H30.0001C31.1046 14 32.0001 13.1046 32.0001 12C32.0001 10.8954 31.1046 10 30.0001 10H10.0001ZM10.0001 18C8.89549 18 8.00006 18.8954 8.00006 20C8.00006 21.1046 8.89549 22 10.0001 22H18.0001C19.1046 22 20.0001 21.1046 20.0001 20C20.0001 18.8954 19.1046 18 18.0001 18H10.0001ZM32.7995 34.4008C31.4625 35.4048 29.8008 35.9998 28.0001 35.9998C23.5818 35.9998 20.0001 32.418 20.0001 27.9998C20.0001 23.5815 23.5818 19.9998 28.0001 19.9998C32.4183 19.9998 36.0001 23.5815 36.0001 27.9998C36.0001 29.168 35.7496 30.2778 35.2995 31.2783L39.2495 34.4383C40.112 35.1283 40.2518 36.3869 39.5618 37.2494C38.8718 38.1119 37.6132 38.2518 36.7507 37.5617L32.7995 34.4008ZM24.0001 27.9998C24.0001 25.7906 25.7909 23.9998 28.0001 23.9998C30.2092 23.9998 32.0001 25.7906 32.0001 27.9998C32.0001 30.2089 30.2092 31.9998 28.0001 31.9998C25.7909 31.9998 24.0001 30.2089 24.0001 27.9998Z" fill="white"/>
</svg>
