<svg width="48" height="48" viewBox="0 0 48 48" fill="none" xmlns="http://www.w3.org/2000/svg">
<path d="M43.1869 26.4489C42.6964 26.0709 42.134 25.7967 41.5342 25.6429C40.9343 25.4891 40.3094 25.4591 39.6975 25.5545C43.2188 21.9995 45 18.4652 45 15.0002C45 10.0371 41.0081 6.00018 36.1012 6.00018C34.7993 5.992 33.5113 6.26891 32.3277 6.81147C31.1441 7.35402 30.0936 8.14907 29.25 9.1408C28.4064 8.14907 27.3559 7.35402 26.1723 6.81147C24.9887 6.26891 23.7007 5.992 22.3987 6.00018C17.4919 6.00018 13.5 10.0371 13.5 15.0002C13.5 17.0627 14.1075 19.067 15.3862 21.1877C14.3389 21.453 13.3832 21.9973 12.6206 22.7627L8.37937 27.0002H3C2.20435 27.0002 1.44129 27.3162 0.87868 27.8789C0.316071 28.4415 0 29.2045 0 30.0002L0 37.5002C0 38.2958 0.316071 39.0589 0.87868 39.6215C1.44129 40.1841 2.20435 40.5002 3 40.5002H22.5C22.6226 40.5002 22.7448 40.4851 22.8638 40.4552L34.8638 37.4552C34.9402 37.437 35.0149 37.4119 35.0869 37.3802L42.375 34.2789L42.4575 34.2414C43.1579 33.8914 43.7578 33.3689 44.2004 32.723C44.6431 32.0771 44.914 31.3291 44.9878 30.5496C45.0615 29.7701 44.9355 28.9846 44.6218 28.2672C44.308 27.5498 43.8168 26.924 43.1944 26.4489H43.1869ZM41.1431 31.5395L34.0181 34.5733L22.3125 37.5002H10.5V29.1208L14.7431 24.8795C15.0207 24.5998 15.3511 24.3779 15.7152 24.227C16.0792 24.076 16.4696 23.9989 16.8638 24.0002H26.25C26.8467 24.0002 27.419 24.2372 27.841 24.6592C28.2629 25.0811 28.5 25.6534 28.5 26.2502C28.5 26.8469 28.2629 27.4192 27.841 27.8412C27.419 28.2631 26.8467 28.5002 26.25 28.5002H21C20.6022 28.5002 20.2206 28.6582 19.9393 28.9395C19.658 29.2208 19.5 29.6023 19.5 30.0002C19.5 30.398 19.658 30.7795 19.9393 31.0608C20.2206 31.3421 20.6022 31.5002 21 31.5002H27C27.1129 31.4999 27.2254 31.4873 27.3356 31.4627L39.8981 28.5733L39.9563 28.5583C40.3397 28.4518 40.7491 28.491 41.1054 28.6681C41.4618 28.8453 41.7401 29.148 41.8867 29.518C42.0333 29.8881 42.0379 30.2992 41.8996 30.6724C41.7613 31.0456 41.4898 31.3545 41.1375 31.5395H41.1431Z" fill="#A10029"/>
</svg>
