<svg width="48" height="48" viewBox="0 0 48 48" fill="none" xmlns="http://www.w3.org/2000/svg">
<path d="M40.5 18C40.5017 15.2194 39.8006 12.4835 38.4618 10.0463C37.1231 7.60918 35.1902 5.54989 32.8426 4.05972C30.495 2.56955 27.8088 1.69684 25.0337 1.52265C22.2585 1.34845 19.4843 1.87842 16.9688 3.06334C14.4533 4.24825 12.278 6.04967 10.6451 8.30028C9.01208 10.5509 7.97436 13.1777 7.62829 15.9367C7.28222 18.6957 7.63903 21.4974 8.66556 24.0816C9.69209 26.6658 11.3551 28.9487 13.5 30.7182V45C13.4998 45.2559 13.5651 45.5075 13.6895 45.731C13.814 45.9544 13.9936 46.1424 14.2112 46.2769C14.4287 46.4115 14.6771 46.4881 14.9327 46.4996C15.1882 46.5111 15.4425 46.457 15.6713 46.3425L24 42.1875L32.3306 46.3519C32.5395 46.4518 32.7685 46.5025 33 46.5C33.3978 46.5 33.7794 46.342 34.0607 46.0607C34.342 45.7794 34.5 45.3979 34.5 45V30.7182C36.3767 29.1725 37.888 27.2305 38.9254 25.0316C39.9628 22.8326 40.5005 20.4314 40.5 18ZM10.5 18C10.5 15.33 11.2918 12.7199 12.7752 10.4998C14.2586 8.27977 16.367 6.54944 18.8338 5.52766C21.3006 4.50588 24.015 4.23853 26.6337 4.75943C29.2525 5.28033 31.6579 6.56608 33.5459 8.45409C35.434 10.3421 36.7197 12.7476 37.2406 15.3663C37.7615 17.9851 37.4942 20.6995 36.4724 23.1663C35.4506 25.6331 33.7203 27.7415 31.5002 29.2249C29.2801 30.7083 26.6701 31.5 24 31.5C20.4208 31.4961 16.9893 30.0725 14.4584 27.5416C11.9276 25.0107 10.504 21.5792 10.5 18ZM13.5 18C13.5 15.9233 14.1158 13.8933 15.2696 12.1665C16.4233 10.4398 18.0632 9.09402 19.9818 8.2993C21.9004 7.50458 24.0117 7.29664 26.0485 7.70179C28.0853 8.10693 29.9562 9.10696 31.4246 10.5754C32.8931 12.0439 33.8931 13.9148 34.2983 15.9516C34.7034 17.9884 34.4955 20.0996 33.7007 22.0182C32.906 23.9368 31.5602 25.5767 29.8335 26.7305C28.1068 27.8842 26.0767 28.5 24 28.5C21.2161 28.4971 18.5472 27.3899 16.5787 25.4214C14.6102 23.4529 13.503 20.7839 13.5 18Z" fill="#A10029"/>
</svg>
