<svg width="174" height="74" viewBox="0 0 174 74" fill="none" xmlns="http://www.w3.org/2000/svg">
<path d="M101.147 17.9293C101.623 17.9298 102.088 17.7935 102.485 17.5375C102.88 17.2816 103.189 16.9176 103.371 16.4917C103.554 16.0657 103.602 15.5969 103.509 15.1446C103.416 14.6923 103.187 14.2768 102.85 13.9507C102.514 13.6246 102.085 13.4026 101.618 13.3127C101.152 13.2229 100.667 13.2692 100.228 13.446C99.7883 13.6226 99.4123 13.9218 99.1485 14.3054C98.884 14.689 98.7437 15.1399 98.7437 15.6011C98.7437 16.2186 98.9969 16.8108 99.4474 17.2473C99.8985 17.684 100.51 17.9293 101.147 17.9293Z" fill="#FF777A"/>
<path d="M123.113 25.2679H135.601L135.957 23.4951H123.468L123.113 25.2679Z" fill="#FF777A"/>
<path d="M91.5878 14.837L88.7414 10.7141C83.6603 15.7076 77.0693 17.2015 77.0693 17.2015C77.1177 17.4555 77.1872 17.7053 77.277 17.9485C84.7667 17.2888 91.5878 14.837 91.5878 14.837Z" fill="#FF777A"/>
<path d="M73.8443 31.4714C73.9818 31.4714 74.1824 31.4714 74.4378 31.4714C76.4206 31.4612 78.3963 31.2358 80.3279 30.7997L78.6784 39.0186H82.9912C82.9912 39.0186 83.8998 34.4811 84.934 29.3324C86.3989 28.7182 87.7994 27.9669 89.1142 27.0891L89.7274 26.6793L88.8812 25.4909L88.268 25.9008C87.3187 26.5383 86.3211 27.1058 85.2841 27.5984C85.6194 25.9275 85.9576 24.2395 86.2726 22.6607H93.2818C93.1393 24.2371 93.0643 25.7237 93.0593 27.0988C93.0593 27.87 93.0741 28.6097 93.1169 29.3106C91.2506 29.9269 89.5927 31.0227 88.3192 32.481C87.0458 33.9393 86.2053 35.7052 85.8875 37.5902L85.832 37.886H87.8625C88.1024 36.4236 88.7304 35.0466 89.6839 33.8895C90.6381 32.7324 91.8855 31.8349 93.3042 31.2847C93.6571 33.9403 94.3959 35.9459 95.5122 37.2774C96.0033 37.8927 96.6362 38.3886 97.3602 38.7254C98.0843 39.0622 98.8792 39.2307 99.6826 39.2175H99.7001C102.631 39.2175 104.722 37.2774 104.784 34.5441C104.851 31.7358 102.694 28.7892 98.4484 28.5927C97.3216 28.5363 96.1913 28.6071 95.0814 28.8038C95.0084 26.7549 95.0744 24.7036 95.2793 22.6631H103.913L104.268 20.8903H95.4694C95.7802 18.3148 96.258 15.504 96.9112 12.5016L97.0564 11.8323H95.0267L94.9691 12.1039C94.2928 15.2032 93.7897 18.1669 93.467 20.8903H86.6284C86.9034 19.5225 87.149 18.2881 87.3468 17.2962C85.8896 17.8272 84.3706 18.1831 82.8235 18.356L82.3226 20.8903H76.3301L75.9744 22.6631H81.9598L80.638 29.2524C78.4426 29.8176 76.1757 30.0837 73.9046 30.043H73.5419L73.2612 31.4981H73.8443V31.4714ZM98.3481 30.5014C100.601 30.6081 102.854 32.0098 102.794 34.4884C102.747 36.5425 101.092 37.2774 99.6903 37.2798C99.183 37.2911 98.6807 37.186 98.2239 36.9731C97.7672 36.7602 97.3686 36.4457 97.0613 36.055C96.1303 34.9467 95.5248 33.1254 95.2421 30.7196C96.2657 30.5227 97.3111 30.4494 98.353 30.5014H98.3481Z" fill="#FF777A"/>
<path d="M118.036 18.5665H126.041L126.466 16.4445H118.462L118.965 13.932L120.284 13.5901L120.554 12.2393H119.305H117.345H113.65L111.628 22.3256H117.282L118.036 18.5665Z" fill="#FF777A"/>
<path d="M135.202 12.2393H129.548L127.525 22.3256H133.18L135.202 12.2393Z" fill="#FF777A"/>
<path d="M115.002 39.0163H119.165L122.234 23.4951H108.699L108.343 25.2679H109.965L108.171 34.2169L106.831 34.3624L106.135 37.9347L115.796 34.9978L115.002 39.0163ZM112.424 33.761L113.067 30.5573H115.633L116.058 28.4352H113.492L114.128 25.2824H117.723L116.121 33.3777L112.424 33.761Z" fill="#FF777A"/>
<path d="M131.238 34.7584C132.128 35.9715 132.711 37.3705 132.94 38.8424L132.955 39.017H134.958L134.923 38.6605C134.644 36.5791 133.753 34.6193 132.357 33.0147C133.448 31.1117 134.362 29.1184 135.088 27.0584L135.305 26.4109H133.215L133.198 26.4619C132.573 28.2608 131.79 30.0044 130.857 31.6736C129.631 30.806 128.134 30.372 126.617 30.444C123.34 30.5847 121.075 33.4294 121.09 35.8983C121.09 37.8093 122.474 39.0874 124.594 39.1529C126.913 39.2232 129.135 37.7487 131.238 34.7584ZM123.07 35.8934C123.07 33.8393 125.21 32.4375 126.699 32.3745C126.774 32.3745 126.847 32.3745 126.922 32.3745C127.978 32.3736 129.004 32.7151 129.836 33.3445C128.361 35.5272 126.557 37.3 124.649 37.2394C123.593 37.1957 123.075 36.7568 123.07 35.8934Z" fill="#FF777A"/>
<path d="M87.6763 38.8342H87.4834L87.6714 38.8684L87.6763 38.8342Z" fill="#FF777A"/>
<path d="M155.098 21.7636H167.88L168.235 19.9908H155.779C156.572 17.7643 157.172 15.4774 157.572 13.1542L158.63 12.8777L158.9 11.5293H151.714C152.059 14.3523 151.921 17.2113 151.305 19.9908H140.059L139.704 21.7636H150.848C149 27.9915 145.051 32.8152 141.684 35.4635C137.896 38.4416 136.039 38.7836 136.039 38.7836L136.539 39.0261C147.01 36.259 152.38 28.3747 155.098 21.7636Z" fill="#FF777A"/>
<path d="M68.2267 14.6265L68.497 13.2781H58.6469C58.9081 15.233 58.8726 17.2143 58.5417 19.1593C57.3616 26.7241 54.1068 33.8433 49.1172 39.7733C44.9994 37.387 38.3535 34.957 32.3633 33.0265C37.3654 28.6524 41.1163 23.1004 43.2522 16.9086H51.5278L51.8832 15.1359H29.417L28.258 16.9086H37.187C34.4425 22.1702 30.9173 27.0138 26.7236 31.2852C22.3154 29.978 19.1413 29.1608 19.1413 29.1608L33.2769 6.44882L35.0492 5.98804L35.3195 4.63721H32.5661C30.8964 4.63721 28.3306 4.63721 25.92 4.63721C25.86 7.20065 24.2804 11.0542 22.1227 15.1334H10.3752L10.0122 16.9063H21.1515C18.7809 21.1625 15.9523 25.4963 13.7069 28.7412C17.5293 29.202 21.6321 30.5892 25.6047 32.3789C20.1752 37.6246 12.7882 42.6836 3.22852 45.0045C3.27357 45.0408 3.94193 45.6011 4.06459 45.7078C10.7632 44.5558 21.4593 41.6238 30.3232 34.7168C35.4231 37.501 40.3012 40.6504 44.9168 44.1387C38.068 50.4005 31.322 52.9009 31.322 52.9009L32.3232 53.5969C58.1237 45.7151 65.423 21.5553 66.9575 14.9588L68.2267 14.6265Z" fill="#FF777A"/>
<path d="M168.236 36.9722C163.855 36.9722 160.726 35.9196 158.946 33.8413C158.21 32.9852 156.261 30.7128 157.535 24.0338C157.559 23.8956 157.585 23.7695 157.605 23.6604L157.77 22.7412H155.752L155.647 23.3281L155.579 23.6846C155.186 25.7533 154.138 31.2512 157.42 35.083C159.6 37.6197 163.237 38.9075 168.236 38.9075H168.782L169.165 36.9819L168.236 36.9722Z" fill="#FF777A"/>
<path d="M114.957 60.5067L114.614 60.5746L114.364 60.6182L113.863 60.6886L113.307 60.7686L113.155 60.7905C113.04 60.805 112.922 60.8196 112.807 60.8293H112.727L111.638 60.9238H111.538C111.435 60.9238 111.332 60.9384 111.232 60.9408H111.08L110.524 60.9578L110.115 60.9723H109.82H109.685H109.408L108.324 60.9529H108.266L107.187 60.885C106.936 60.868 106.687 60.8462 106.436 60.822H106.353C106.123 60.8002 105.893 60.7735 105.662 60.7468L105.445 60.7201C103.873 60.5228 102.316 60.2321 100.781 59.8495L100.618 59.8058L100.27 59.7161C100.414 59.4202 100.551 59.1243 100.679 58.8187C101.53 56.7741 101.965 54.5894 101.961 52.3848C101.961 49.0881 100.8 46.464 98.4806 44.5126C96.1611 42.5611 93.2059 41.5886 89.6144 41.5951C84.9571 41.5853 80.4787 43.3327 77.1285 46.4673C77.066 46.5255 77.0085 46.5885 76.946 46.6467C70.9381 42.2232 66.545 37.1569 62.8253 28.8289L61.6763 31.0116C62.3847 34.0794 66.3097 43.1957 73.8246 50.7574C73.6267 51.1236 73.4387 51.485 73.2661 51.8779C72.3308 53.9676 71.8551 56.2232 71.8692 58.501C71.8692 61.725 73.0163 64.3345 75.3113 66.3296C77.6055 68.3244 80.5376 69.324 84.1074 69.3274C86.836 69.3274 89.2776 68.8703 91.4315 67.9569C93.535 67.0763 95.4434 65.8125 97.0543 64.2342C97.8808 63.4187 98.6139 62.5194 99.2419 61.5519C99.5148 61.5956 99.7878 61.632 100.061 61.6708L100.258 61.6999L100.496 61.7339C101.177 61.8308 101.865 61.8963 102.554 61.9594C104.086 62.0874 105.625 62.1247 107.162 62.071C107.538 62.0588 107.913 62.0394 108.291 62.0127H108.324C108.841 61.9763 109.36 61.9254 109.873 61.8648L110.023 61.8478L110.173 61.826C110.551 61.7775 110.924 61.7242 111.305 61.6611L111.62 61.6077L111.72 61.5883C112.086 61.5228 112.449 61.4501 112.812 61.37H112.839L112.895 61.3579C113.01 61.3337 113.125 61.307 113.24 61.2779C113.65 61.1841 114.056 61.0806 114.458 60.9675H114.494L114.654 60.919C115.145 60.7783 115.632 60.6239 116.116 60.4557L116.069 60.303L114.957 60.5067ZM91.9599 62.1025C91.2154 63.6081 90.1623 64.9508 88.8636 66.0483C87.7088 67.0487 86.215 67.6028 84.6659 67.6052C82.8817 67.6052 81.5465 66.9415 80.6604 65.6142C79.7742 64.2867 79.328 62.5293 79.3217 60.3418C79.3245 58.2997 79.5483 56.2636 79.9896 54.2667C80.3889 52.3662 81.0385 50.5233 81.9219 48.7834C82.6733 47.279 83.7299 45.937 85.0286 44.8375C86.1821 43.8521 87.6688 43.3109 89.2067 43.317C90.979 43.317 92.3142 43.9637 93.2115 45.2571C94.1096 46.5505 94.5558 48.329 94.5509 50.5925C94.546 52.5877 94.3348 54.5775 93.9202 56.5318C93.8528 56.8543 93.7749 57.172 93.697 57.4873L93.6599 57.4728C93.2677 57.3111 92.8755 57.1414 92.4833 56.9635L91.7999 56.6506L91.1165 56.3499C90.9187 56.2578 90.7208 56.1607 90.5229 56.0637L90.3658 55.9861L89.9525 55.7776C89.5617 55.5812 89.1766 55.3823 88.7907 55.1761L88.2652 54.8948L87.6898 54.5674L87.2443 54.3249C87.0864 54.2376 86.9314 54.1478 86.7756 54.0557L86.5259 53.915C85.9021 53.5488 85.2868 53.1681 84.6834 52.78C84.3803 52.586 84.0849 52.3896 83.7896 52.1907L83.7545 52.1665C83.6521 52.0986 83.5545 52.0283 83.4542 51.9579L83.3567 51.8997L83.2711 51.8415C82.7238 53.1211 82.272 54.4374 81.9198 55.78C82.1702 55.9061 82.42 56.0225 82.6579 56.1535C83.3539 56.5027 84.0576 56.8277 84.7606 57.1454L85.0286 57.2618L85.5766 57.5043L85.8271 57.611L86.0572 57.7104L86.7209 57.9845L86.8963 58.0548L87.3039 58.2173L87.9726 58.4816L88.6033 58.7242L89.0566 58.894L89.2264 58.9521C89.4495 59.0346 89.6747 59.1122 89.8999 59.1947L90.1504 59.2795L90.591 59.4299C90.8085 59.5027 91.026 59.5778 91.2463 59.6482L91.3768 59.687L92.3528 59.9853L92.6537 60.0774L92.8439 60.1357C92.5836 60.8052 92.2882 61.4616 91.9599 62.1025Z" fill="#FF777A"/>
<path d="M119.652 54.3799C119.129 54.3799 118.766 54.2975 118.559 54.1374C118.351 53.9773 118.246 53.6523 118.246 53.2013C118.26 52.9181 118.298 52.6366 118.361 52.3597C118.439 51.9814 118.506 51.6758 118.564 51.4478L120.299 44.1723L120.151 44.0049L116.248 44.1723L114.228 52.7235C113.767 53.1664 113.242 53.5414 112.669 53.8367C112.281 54.0562 111.849 54.1895 111.402 54.2271C111.231 54.2448 111.058 54.2244 110.897 54.1677C110.736 54.1109 110.59 54.0193 110.471 53.8997C110.28 53.6429 110.186 53.3306 110.203 53.0145C110.212 52.7821 110.237 52.5504 110.275 52.3209C110.322 52.019 110.387 51.7202 110.471 51.426L111.364 48.2733C111.466 47.9281 111.531 47.5738 111.559 47.2159C111.592 46.8351 111.61 46.5756 111.61 46.4326C111.616 46.1026 111.549 45.7753 111.413 45.473C111.276 45.1707 111.073 44.9007 110.818 44.6816C110.293 44.2111 109.542 43.9758 108.566 43.9758C107.984 43.9825 107.406 44.0765 106.854 44.2547C106.25 44.4391 105.617 44.6622 104.956 44.9241L104.688 45.9912C104.884 45.9184 105.119 45.8457 105.391 45.7657C105.652 45.6877 105.923 45.6477 106.196 45.6468C106.726 45.6468 107.082 45.7366 107.267 45.9136C107.477 46.1742 107.576 46.5034 107.542 46.8327C107.528 47.1191 107.489 47.4038 107.427 47.684C107.349 48.0672 107.282 48.3703 107.224 48.591L106.301 51.899C106.2 52.2502 106.125 52.6075 106.073 52.9685C106.045 53.2166 106.031 53.4659 106.03 53.7154C106.026 54.0422 106.09 54.3664 106.219 54.6683C106.348 54.9702 106.539 55.2434 106.781 55.4713C107.282 55.9563 107.975 56.1988 108.879 56.1988C109.807 56.2174 110.728 56.0291 111.57 55.6483C112.465 55.1989 113.29 54.6272 114.018 53.9507H114.103C114.237 54.5589 114.599 55.0973 115.119 55.4616C115.752 55.8794 116.509 56.0847 117.275 56.046C117.844 56.0563 118.411 55.9743 118.952 55.8035C119.432 55.6418 120.077 55.4066 120.887 55.0978L121.155 54.0307C120.937 54.1211 120.713 54.1949 120.484 54.2514C120.214 54.3296 119.935 54.3729 119.652 54.3799Z" fill="#FF777A"/>
<path d="M131.68 50.1243C132.684 49.8916 133.611 49.416 134.374 48.7419C134.692 48.4602 134.946 48.1169 135.118 47.7342C135.291 47.3515 135.378 46.938 135.375 46.5204C135.395 46.1133 135.299 45.7087 135.097 45.3511C134.895 44.9934 134.595 44.6966 134.231 44.493C133.467 44.0419 132.355 43.8164 130.897 43.8164C129.731 43.8018 128.573 44.0155 127.495 44.4445C126.537 44.8144 125.667 45.3706 124.939 46.0791C124.246 46.7576 123.7 47.5642 123.335 48.4509C122.978 49.3165 122.796 50.24 122.796 51.172C122.787 51.8591 122.908 52.542 123.152 53.1873C123.383 53.789 123.746 54.3351 124.216 54.7879C124.738 55.2709 125.362 55.6376 126.046 55.8623C126.875 56.1334 127.746 56.2639 128.621 56.2479C129.887 56.2473 131.132 55.9352 132.239 55.3409C133.361 54.7555 134.326 53.9251 135.06 52.9157L134.166 52.1881C133.653 52.8825 132.997 53.4656 132.239 53.9003C131.482 54.2791 130.638 54.4652 129.785 54.4411C129.307 54.4589 128.833 54.3499 128.413 54.1259C128.061 53.9227 127.774 53.6289 127.583 53.277C127.403 52.926 127.279 52.5507 127.214 52.1639C127.139 51.7762 127.09 51.3841 127.067 50.9901C127.981 50.8955 128.754 50.7912 129.387 50.6821C130.162 50.537 130.927 50.3508 131.68 50.1243ZM127.104 50.0176C127.26 48.4994 127.617 47.2448 128.176 46.2537C128.735 45.2626 129.328 44.7663 129.956 44.7646C130.165 44.7588 130.372 44.8056 130.556 44.9004C130.741 44.9951 130.897 45.1347 131.009 45.3055C131.289 45.774 131.421 46.3122 131.388 46.8527C131.415 47.4235 131.275 47.9903 130.984 48.4873C130.657 48.9434 130.197 49.2947 129.663 49.4961C129.3 49.6383 128.922 49.7416 128.536 49.8041C128.064 49.8915 127.587 49.9626 127.104 50.0176Z" fill="#FF777A"/>
<path d="M146.146 50.1243C147.15 49.8916 148.076 49.416 148.838 48.7419C149.156 48.4601 149.409 48.1168 149.582 47.7341C149.754 47.3515 149.842 46.938 149.839 46.5204C149.859 46.1133 149.763 45.7087 149.56 45.351C149.359 44.9934 149.06 44.6965 148.695 44.493C147.944 44.0419 146.82 43.8163 145.361 43.8163C144.195 43.8023 143.038 44.0159 141.959 44.4445C141.001 44.8143 140.131 45.3707 139.403 46.079C138.709 46.7571 138.165 47.5638 137.801 48.4508C137.444 49.3161 137.261 50.2399 137.263 51.1719C137.254 51.8588 137.374 52.5416 137.616 53.1873C137.848 53.7887 138.213 54.3345 138.682 54.7879C139.203 55.2704 139.827 55.637 140.51 55.8622C141.34 56.1334 142.212 56.2638 143.088 56.2478C144.352 56.2472 145.596 55.9351 146.702 55.3408C147.825 54.756 148.791 53.9256 149.523 52.9156L148.63 52.1881C148.118 52.883 147.461 53.4662 146.702 53.9003C145.945 54.2794 145.101 54.4655 144.249 54.4411C143.771 54.4589 143.298 54.3498 142.88 54.1258C142.526 53.9235 142.238 53.6295 142.046 53.277C141.869 52.9251 141.745 52.5502 141.679 52.1638C141.603 51.7761 141.555 51.384 141.533 50.99C142.447 50.8955 143.221 50.7911 143.851 50.682C144.626 50.5371 145.393 50.3508 146.146 50.1243ZM141.568 50.0175C141.663 48.7064 142.028 47.4268 142.64 46.2537C143.197 45.2609 143.791 44.7646 144.422 44.7646C144.631 44.7585 144.837 44.8052 145.022 44.9C145.206 44.9948 145.361 45.1345 145.474 45.3054C145.756 45.7733 145.888 46.3118 145.854 46.8526C145.882 47.4238 145.742 47.9909 145.448 48.4872C145.122 48.9444 144.662 49.2959 144.126 49.4961C143.764 49.6383 143.386 49.7416 143 49.8041C142.527 49.8914 142.051 49.9593 141.568 50.0175Z" fill="#FF777A"/>
<path d="M166.304 54.3801C165.78 54.3801 165.415 54.2976 165.207 54.1376C164.999 53.9775 164.894 53.6525 164.894 53.2015C164.904 52.931 164.937 52.6617 164.992 52.3963C165.057 52.0398 165.132 51.7246 165.212 51.448L166.143 48.1158C166.243 47.7723 166.311 47.4209 166.346 47.0657C166.374 46.7383 166.388 46.4837 166.388 46.3018C166.394 45.9736 166.329 45.648 166.197 45.3456C166.065 45.0432 165.869 44.7709 165.622 44.5459C165.122 44.0609 164.406 43.8184 163.502 43.8184C162.56 43.8142 161.63 44.0148 160.779 44.4053C159.875 44.831 159.04 45.3843 158.303 46.0472H158.215C158.095 45.4399 157.76 44.8924 157.267 44.4999C156.791 44.1345 156.071 43.951 155.106 43.9493C154.523 43.9562 153.945 44.0502 153.392 44.2282C152.788 44.4126 152.156 44.6357 151.495 44.8976L151.227 45.9647C151.422 45.8943 151.657 45.8192 151.93 45.7392C152.19 45.6627 152.459 45.6227 152.731 45.6203C153.232 45.6203 153.587 45.7052 153.78 45.8749C153.973 46.0447 154.067 46.36 154.067 46.8062C154.06 47.106 154.02 47.4042 153.95 47.6963C153.872 48.0504 153.81 48.339 153.76 48.562L152.007 55.8522H156.053L158.095 47.2913C158.597 46.81 159.179 46.4147 159.818 46.1223C160.189 45.9484 160.59 45.8417 161.001 45.8071C161.175 45.7893 161.351 45.8089 161.516 45.8641C161.681 45.9195 161.832 46.0092 161.958 46.1272C162.158 46.3815 162.258 46.6975 162.238 47.0172C162.233 47.2417 162.211 47.4655 162.17 47.6866C162.125 47.9606 162.058 48.2662 161.968 48.6057L161.081 51.7584C160.98 52.1214 160.913 52.4923 160.879 52.8668C160.856 53.1627 160.846 53.4051 160.846 53.5943C160.841 53.926 160.91 54.2547 161.051 54.5574C161.191 54.86 161.398 55.129 161.657 55.3454C162.196 55.8142 162.953 56.0486 163.925 56.0486C164.494 56.0591 165.061 55.9771 165.603 55.8061C166.087 55.6444 166.732 55.4092 167.54 55.1004L167.811 54.0333C167.592 54.124 167.367 54.1978 167.137 54.254C166.866 54.3316 166.586 54.374 166.304 54.3801Z" fill="#FF777A"/>
</svg>
