<svg width="180" height="74" viewBox="0 0 180 74" fill="none" xmlns="http://www.w3.org/2000/svg">
<path fill-rule="evenodd" clip-rule="evenodd" d="M26.7731 2H72.3017C74.4021 2 76.1627 6.28415 76.1627 11.5628V62.4372C76.1627 67.7159 74.4021 72 72.3017 72H26.7731C24.6418 72 22.9121 67.7159 22.9121 62.4372V11.5628C22.9121 6.28415 24.6418 2 26.7731 2Z" fill="#D8262C"/>
<path fill-rule="evenodd" clip-rule="evenodd" d="M53.2133 23.7264H52.7191L52.6264 23.8029L52.4102 24.3384C52.194 24.8739 52.1322 25.1799 52.1013 26.557V26.7865L52.1322 26.863C52.2249 27.322 52.2557 27.8575 52.2866 28.4696C52.3175 29.3876 52.3484 30.4586 52.7499 30.9942C52.8735 31.2237 53.0279 31.3767 53.2133 31.3767C53.4295 31.4532 53.6766 31.4532 53.9237 31.4532H54.0781L54.2634 30.1526C54.4797 29.2346 54.4797 27.5515 54.4179 25.5625V24.6444V24.4149L54.1399 23.7264H53.2133ZM53.2133 38.2619C52.8735 38.3384 52.5955 38.4149 52.3175 38.4914L52.1013 38.5679L52.0395 41.5515C52.0086 43.3876 51.9777 45.3002 51.9777 47.2127V47.6717L52.3793 47.9778L52.5028 48.1308C52.7499 48.4368 52.9662 48.4368 53.2133 48.2838C53.4604 48.1308 53.6766 47.8248 53.8928 47.5952L54.0163 47.4422L54.1399 47.2892L54.3252 41.8575L54.4488 38.1854H54.2017C53.831 38.1089 53.4913 38.1854 53.2133 38.2619ZM52.5028 48.1308H52.5337L52.472 48.0543L52.5028 48.1308ZM53.2133 56.3166C52.6882 56.6991 52.0704 56.7756 51.5453 56.4696C51.4527 56.2401 51.2673 55.475 51.2673 55.475C50.7731 53.792 50.2789 52.0324 50.0627 49.7373C50.0009 49.2018 49.97 48.5898 49.97 47.9013C49.97 46.3712 50.0936 44.5351 50.1863 43.4641C50.3098 42.1636 50.3407 40.71 50.3407 39.1799C50.3407 35.4313 50.0627 31.4532 49.7847 29.0816C49.5376 27.016 49.4141 25.333 49.4141 23.9559C49.4141 22.3493 49.5994 21.2018 49.97 20.5133C50.4025 19.7483 52.0086 18.9067 53.2133 18.3712L53.8619 18.0652L54.6341 17.6827C55.0048 17.5297 55.2827 17.7592 55.5607 17.9887C55.5607 17.9887 55.7769 18.2182 55.9005 18.2947C55.9623 18.5242 56.4874 20.2838 56.4874 20.2838C56.9507 21.7373 57.2287 22.5789 57.2287 24.7209C57.2287 25.486 57.1978 26.3275 57.136 27.5515L57.0742 28.1636H57.3522C59.0511 28.2401 61.3368 27.781 62.6031 26.4805L62.6958 26.404L62.7576 26.0215L62.8811 24.7209L62.9429 24.1089H62.2943L62.2325 24.1854C61.8001 24.9504 61.0588 24.7209 60.3792 24.4914C60.3792 24.4914 60.2248 24.4914 60.1321 24.4149C60.0395 24.1854 59.885 23.6499 59.885 23.6499C59.607 22.7319 59.3908 21.9668 59.329 20.3603C60.5028 18.6007 61.6456 17.6062 63.3445 16.6881H63.4989L63.746 13.8575C63.9004 11.792 64.024 9.7264 64.7035 9.19088L64.7344 9.11438L64.7653 9.03787C64.858 8.88487 64.9506 8.73186 65.0433 8.65536C65.1977 8.57886 65.3522 8.57886 65.5993 8.57886C65.7228 8.73186 65.939 9.19088 65.939 9.19088C66.217 9.6499 66.4023 9.95591 66.5259 10.7974V10.8739C66.6186 11.2565 66.6186 12.098 66.6186 12.863C66.6186 13.8575 66.6495 14.8521 66.8039 15.4641L66.8348 15.6171L66.8657 15.6936C67.2054 16.1526 67.885 16.3821 68.4718 16.5351C68.4718 16.5351 68.8116 16.6116 68.966 16.6881L69.0278 16.9942C69.1514 17.6062 69.244 18.0652 69.2749 19.2892C69.0896 19.7483 68.9969 20.2838 68.8734 20.8193C68.7189 21.6608 68.5645 22.4259 68.2247 22.8084C67.9776 23.1144 67.5761 23.1909 67.1745 23.1909C66.5877 23.2674 65.9699 23.3439 65.6302 24.2619L65.1051 25.5625H66.4023L66.4641 25.486C66.6186 25.1799 66.9274 25.2565 67.2672 25.2565C67.5452 25.333 67.8232 25.333 68.1012 25.2565L68.1321 25.1799C69.4911 24.5679 71.5297 23.5734 72.4564 25.2565C72.7652 25.792 72.9197 26.557 72.9814 27.628V27.781V28.1636C72.9814 28.4696 72.9814 28.9286 72.9814 29.2346V29.6171C72.8888 29.9231 72.3328 31.2237 72.2093 31.5297C72.0239 31.3767 71.5297 31.0707 71.5297 31.0707C70.8502 30.5351 70.2942 30.0761 69.2131 30.3056H68.9969V32.1417L69.244 32.0652C70.5413 31.9887 71.2208 32.3712 71.5606 33.5187C71.6842 33.9013 71.715 34.2073 71.7768 34.9723C71.6842 35.2783 71.5915 35.5843 71.5297 35.8903C71.4371 36.2728 71.3444 36.6554 71.2208 36.9614C70.9737 37.4204 70.4795 37.4204 69.9853 37.4204C69.2749 37.4969 68.5336 37.5734 68.2556 38.7209C68.0394 39.639 67.9467 41.0925 67.9467 42.7756C67.9467 44.3056 68.0085 46.1417 68.0703 47.9778C68.1321 49.8138 68.1938 51.8029 68.1938 53.486C68.1938 54.6335 68.163 55.7045 68.1012 56.5461C67.8232 59.4532 67.4216 61.3657 66.6803 63.2018C66.2788 64.2728 65.661 65.5734 65.0433 65.4204C64.9197 65.4204 64.7653 65.2674 64.6109 65.0379H64.58L64.5491 64.9614C63.5916 64.2728 61.4294 55.0925 61.3059 51.4969L61.3368 51.4204L61.5221 51.1909C61.9854 52.5679 63.5298 55.7045 64.5491 56.1636C64.7344 56.2401 64.9197 56.2401 65.0433 56.1636C65.1359 56.0871 65.2286 56.0105 65.2904 55.8575L65.3522 55.781L66.0008 50.8849H65.4139L65.3522 51.1909C65.2595 51.4969 65.1668 51.7264 65.0433 51.8794C64.5182 52.7974 63.6224 52.5679 63.0356 52.2619L63.0047 52.1089C62.356 49.2783 61.6147 45.9887 60.997 43.0051L60.9352 42.6991L60.3175 42.7756C60.0395 42.8521 59.885 42.8521 59.607 42.7756L59.5453 42.4696C59.2982 41.475 59.1128 40.6335 59.0511 39.1034C59.1437 38.5679 59.2364 37.8794 59.2982 37.1909C59.2982 37.1909 59.3599 36.5789 59.3908 36.2728C59.8541 35.9668 60.2866 35.8138 60.7808 35.6608C61.275 35.5078 61.7692 35.3548 62.2943 35.0488L63.0665 34.5133C63.7151 34.0543 64.3329 33.5952 65.0433 33.2892C65.3831 33.2127 65.7228 33.1362 66.0626 33.0597H66.3097V30.2291L66.0317 30.3056C65.6919 30.3821 65.3831 30.6116 65.0433 30.7646C64.7962 30.9942 64.5491 31.1472 64.302 31.3767C63.8078 31.7592 63.3445 32.0652 62.8811 32.2947C62.634 32.3712 62.3869 32.2947 62.1089 32.2947C61.6765 32.2947 61.2132 32.2182 60.719 32.6007C60.5028 32.7537 60.2866 33.0597 60.0086 33.3657C59.3908 34.2073 58.6186 35.1253 57.97 34.5898C57.8773 34.5133 57.7847 34.3603 57.692 34.1308C57.5684 33.8248 57.414 33.4422 57.1669 33.2892L56.858 32.9832V43.1581L56.8889 43.3111C57.136 44.1526 57.2287 45.3767 57.2287 46.8302C57.2287 48.1308 57.1669 49.5843 56.9816 51.0379C56.7345 53.2565 56.3329 55.016 55.9623 55.475H53.831L53.7692 55.628C53.6148 55.934 53.4295 56.1636 53.2133 56.3166ZM54.2634 30.1526V30.0761L54.2326 30.2291L54.2634 30.1526ZM65.0433 44.2291C64.8888 43.7701 64.7344 43.3876 64.5491 42.9286L63.7769 41.0925L64.1475 40.7865L65.0433 40.0215L65.3831 39.792H66.0317L66.3097 40.404V41.475C66.3406 43.4641 66.3715 45.0707 66.1244 45.9122V45.9887L65.7537 46.9067L65.5993 46.1417C65.4448 45.3767 65.2595 44.7646 65.0433 44.2291Z" fill="white"/>
<path fill-rule="evenodd" clip-rule="evenodd" d="M32.1469 28.7758L31.7453 28.8523C31.0349 28.9288 30.3554 28.9288 29.7994 29.2348L29.6759 29.3113L29.6141 29.6173C29.5523 30.1528 28.4712 41.2457 28.6875 42.1638L28.7183 42.3168L28.7492 42.3933C28.9654 42.6993 29.0581 42.6993 29.3361 42.7758H29.3979H29.5214L29.5832 42.6228C30.1392 41.3987 31.0967 40.4807 32.1469 39.8687C33.2589 39.1036 34.4326 38.6446 35.2974 38.4151L35.4828 38.3386L35.5445 35.5845C35.5754 33.1364 35.6372 30.3823 35.6372 27.7812V27.2457H35.0503L34.9886 27.3222C34.309 28.4698 33.228 28.6993 32.1469 28.7758ZM32.1469 49.5845C31.0967 50.8851 30.0465 51.9561 29.2126 51.4206C28.9037 51.1911 28.6566 50.6556 28.3786 50.12L28.0697 49.508C26.896 47.3659 26.6798 45.3004 26.6798 42.6993C26.6798 42.0873 26.6798 41.3987 26.7106 40.7102C26.7106 39.9452 26.7415 39.1036 26.7415 38.1856C26.7415 36.7321 26.6798 35.1255 26.5253 33.3659C26.34 31.0709 26.1855 28.1638 26.1855 25.4862C26.1855 23.7266 26.2473 22.12 26.3709 20.743L26.5253 20.5135C26.9577 19.825 27.7608 18.5244 28.1315 18.9069L28.1624 18.9834C28.4712 19.0599 28.5948 19.4424 28.7492 19.7485C28.8728 20.0545 28.9963 20.3605 29.2126 20.59C29.6759 21.049 30.5098 20.5135 31.0658 20.131L31.3438 19.978H32.1469H35.7608V19.3659C35.7608 18.7539 35.7608 18.2184 35.7608 17.6829C35.7608 11.4097 36.1005 10.6446 37.3052 7.96703C37.3052 7.96703 37.6758 7.1255 37.7994 6.896C38.0773 6.896 38.2627 6.896 38.3862 7.1255H38.4171L38.448 7.20201C39.7453 8.12004 39.9306 11.2567 39.9306 15.4643C39.9306 16.4588 39.9306 17.4534 39.9306 18.5244L39.8997 19.978H40.7955L41.5368 20.0545C44.1622 20.2075 45.614 20.59 47.251 24.3386C47.251 24.7211 47.251 25.9452 47.251 25.9452C47.251 26.7102 47.2819 27.4752 47.2819 28.3168C47.2819 29.9998 47.2201 31.6829 47.0039 32.5244C46.7877 33.2894 46.5097 33.978 46.2008 34.6665C45.6449 35.967 45.0271 37.4206 44.9344 39.8687V40.0982L44.9962 40.2512C45.2124 40.7867 45.3051 41.3987 45.3051 41.9342V42.4698C45.058 44.6883 43.4209 46.8304 42.6487 47.3659C42.3399 47.672 41.9383 47.5189 41.5368 47.2894C41.2897 47.1364 41.0735 46.9834 40.8264 46.8304C40.1777 46.2949 39.4982 45.8359 38.8804 46.0654H38.7569L38.6951 46.4479C38.6333 46.9834 38.6024 47.2894 38.5716 48.2075L38.5407 48.437L38.6024 48.59C38.726 49.049 38.7569 49.967 38.7569 50.8851C38.7569 51.6501 38.726 52.4151 38.726 53.1036L38.6951 55.3222V55.7047C38.6951 58.6118 38.17 62.9725 37.2434 65.4206C36.8727 66.4151 36.4712 66.9506 36.0696 67.1036C35.5445 64.7321 35.421 60.9069 35.421 57.0053C35.421 55.3222 35.4519 53.7157 35.4519 52.1856C35.4828 50.8086 35.4828 49.508 35.4828 48.3605C35.4828 47.978 35.4828 47.5955 35.4828 47.2129V46.6774H35.2357C34.4017 46.8304 33.4133 47.978 32.4867 49.202L32.1469 49.5845ZM39.4982 27.7812V27.3222L40.0542 27.0927C40.5484 26.8632 41.197 26.5572 41.5059 26.0217L41.5368 25.9452L41.5677 25.8687H43.3592L43.8843 27.2457V27.4752C43.8843 31.5299 43.5754 34.59 42.9267 37.4971L42.865 37.7266L42.031 37.8031C41.8765 37.8796 41.6912 37.8796 41.5368 37.8796C40.6719 38.0326 39.7762 38.0326 39.3437 37.3441L39.282 37.2676L39.2511 37.1146C39.1893 36.8086 39.1584 35.967 39.1584 35.049C39.1584 33.0599 39.282 30.3823 39.4982 29.3113V27.7812Z" fill="white"/>
<path d="M88.6104 6.896C89.0429 6.896 89.6297 7.1255 90.3401 7.66102C90.9888 8.12004 91.4212 8.65556 91.6065 9.11458C91.8228 9.57359 91.9463 10.1856 91.9463 10.8741C91.9463 12.9397 91.4212 14.0108 90.4328 14.0108C90.1239 14.0108 89.7224 13.0927 89.2282 11.2567C88.6722 9.19108 88.3942 7.89053 88.3942 7.35501C88.3942 7.049 88.456 6.896 88.6104 6.896ZM92.3479 14.0108C92.5332 14.0108 92.7803 14.2403 93.1818 14.6228C93.6143 15.3878 93.8614 16.0763 93.8614 16.6883C93.8614 17.2239 93.8305 17.6829 93.7687 18.1419C93.7069 18.6009 93.5834 18.9069 93.4289 19.0599C92.8112 19.4424 92.1625 19.9015 91.5139 20.284C91.9772 20.3605 92.4405 20.59 92.8729 20.9725C93.4598 21.4315 93.7687 21.967 93.7687 22.5026C93.7687 22.6556 93.7069 22.8851 93.5834 23.2676C93.2745 23.8796 93.0583 24.4151 92.9347 24.7976C92.6258 25.7157 92.2552 26.6337 91.7919 27.4752C92.039 27.3987 92.2861 27.3222 92.5023 27.2457C92.8112 27.0927 93.0892 27.0162 93.3363 27.0162C94.1702 27.2457 94.6027 28.4698 94.6027 30.7648C94.6027 31.2239 94.232 31.4534 93.4907 31.6064C92.6258 31.6829 91.6683 31.9124 90.6181 32.3714C90.8652 32.8304 90.9579 33.2129 90.9579 33.672C90.9579 33.825 90.927 34.0545 90.8344 34.284C90.7726 34.743 90.7108 35.2785 90.7108 36.0435C90.9579 35.8905 91.205 35.7375 91.4212 35.5845C91.6992 35.355 91.9772 35.2785 92.2552 35.2785C92.6258 35.2785 93.0274 35.661 93.4907 36.4261C93.8922 37.0381 94.0776 37.9561 94.0776 39.0271C94.0776 40.0982 93.954 40.6337 93.7687 40.6337C92.6876 40.6337 91.6683 40.7102 90.649 40.9397C90.649 41.3222 90.649 41.7812 90.649 42.2403C90.7108 42.2403 90.8035 42.2403 90.8961 42.3168C91.3594 42.6993 91.8228 43.0818 92.317 43.6173C92.9038 44.3058 93.3054 44.9179 93.5216 45.5299C93.676 46.0654 93.7687 46.6009 93.7687 47.2129C93.7687 47.978 93.6451 48.8195 93.4289 49.661C93.2127 50.3495 92.9347 50.6556 92.5641 50.6556C92.1625 50.6556 91.8845 50.1965 91.7301 49.355C91.6065 48.9725 91.4212 48.284 91.1741 47.1364C90.9579 46.0654 90.8035 45.2239 90.6799 44.6118C90.7108 47.825 90.7726 51.1146 90.8652 54.4807C90.8652 55.8577 90.6181 57.4643 90.1239 59.1474C89.6297 60.6009 89.2282 61.2894 88.9193 61.2894C88.6104 61.2894 88.3633 60.7539 88.178 59.6829C87.9 58.3823 87.2205 56.3168 86.1394 53.5627C86.1394 53.2567 86.263 53.0271 86.4792 53.0271C87.0969 54.1747 87.5602 54.7102 87.8691 54.7102C88.1162 54.7102 88.3016 54.0217 88.3633 52.4916C88.456 50.1965 88.4869 46.6774 88.4869 41.9342C88.4869 41.7812 88.4869 41.6282 88.4869 41.4752C88.3633 41.5517 88.2398 41.6282 88.1162 41.7047C87.344 41.9342 86.4792 42.4698 85.5834 43.1583C85.2437 43.4643 85.0583 43.5408 84.9657 43.5408C84.6877 43.5408 84.317 43.0818 83.8846 42.0107C83.5448 41.2457 83.3595 40.6337 83.3595 40.0982C83.3595 39.8687 83.3904 39.7922 83.4522 39.7922C85.1201 39.1036 86.5409 38.4916 87.8073 37.8796C88.0236 37.8031 88.2398 37.6501 88.4251 37.4971C88.4251 36.8086 88.3942 35.967 88.3633 35.202C88.3633 34.5135 88.3324 33.9015 88.2707 33.4424C87.0352 33.978 85.5525 34.8195 83.8537 35.967L83.3595 36.3495C83.236 36.3495 82.8962 35.814 82.3093 34.8195C81.7225 33.4424 81.4136 32.2184 81.4136 30.9944C81.4136 30.8414 81.5062 30.7648 81.6298 30.7648C82.6491 30.6883 83.6684 30.5353 84.7495 30.3058C86.0776 29.9233 87.9618 29.1583 90.4019 28.0873C90.5872 26.9397 90.7417 25.7922 90.8344 24.5681C90.927 23.8796 90.9579 23.2676 90.9579 22.8086C90.9579 22.5026 90.8344 21.814 90.5255 20.6665C90.2166 20.8195 89.8768 20.9725 89.5371 21.049C88.6104 21.508 87.9 21.7375 87.4367 21.7375C86.4174 21.7375 85.7379 21.049 85.4599 19.7485C85.1819 18.9069 85.0583 18.3714 85.0583 18.0654C85.0583 17.7594 85.151 17.5299 85.3054 17.5299C87.1587 17.2239 88.6413 16.7648 89.7224 16.1528C90.5564 15.6173 91.2668 15.0053 91.9154 14.3933C92.039 14.1638 92.1934 14.0108 92.3479 14.0108ZM86.3556 21.967C86.5409 21.967 86.7572 22.0435 87.0043 22.273C87.5911 22.6556 88.0236 23.1146 88.3324 23.7266C88.6104 24.2621 88.734 25.0271 88.734 26.0217C88.734 26.5572 88.6104 27.0927 88.3324 27.6282C88.0853 28.1638 87.8073 28.3933 87.5294 28.3933C87.4058 28.3933 87.3131 28.1638 87.1896 27.7047C86.9425 26.9397 86.6336 25.3332 86.2321 22.8086C86.1703 22.5791 86.1394 22.4261 86.1394 22.273C86.1703 22.0435 86.2321 21.967 86.3556 21.967ZM85.8305 43.7703C85.9232 43.7703 85.985 43.9998 86.0776 44.5353C86.3247 45.9124 86.4792 46.9834 86.4792 47.7485C86.4792 49.2785 86.3247 50.8086 86.0467 52.4916C85.9232 53.6392 85.7379 54.5572 85.4599 55.2457C85.3054 55.7047 85.1201 56.0107 84.9657 56.0107C84.4406 56.0107 84.039 55.5517 83.6993 54.7102C83.5448 53.8687 83.4522 53.0271 83.4522 52.2621C83.4522 51.8031 83.5139 51.1911 83.6375 50.5026C84.7495 47.5955 85.3363 45.6064 85.429 44.6883C85.4908 44.0763 85.6143 43.7703 85.8305 43.7703ZM100.718 10.8741C100.996 10.8741 101.738 11.4097 102.881 12.4042C103.715 13.4752 104.147 14.3933 104.147 15.1583C104.147 15.5408 104.054 15.7703 103.838 15.9233C103.035 16.6883 102.479 17.0709 102.232 17.1474C101.892 17.3769 101.398 17.8359 100.78 18.3714C99.5756 19.2894 98.6799 19.978 98.0312 20.437C97.9694 21.202 97.9077 21.661 97.9077 21.8905C97.815 24.7976 97.6914 27.4752 97.5988 29.9998C99.1741 29.0818 100.811 27.9342 102.51 26.6337C103.004 26.2512 103.437 26.0217 103.838 26.0217C104.24 26.0217 104.734 26.4042 105.29 27.2457C105.815 28.0107 106.093 28.9288 106.093 29.9998C106.093 30.9179 105.877 31.4534 105.444 31.6064C104.888 31.6829 104.301 31.8359 103.622 31.9889C103.313 32.1419 102.973 32.2184 102.664 32.3714C103.004 32.8304 103.189 33.2129 103.189 33.672C103.189 34.131 103.159 34.6665 103.097 35.202C102.788 36.12 102.664 37.8031 102.664 40.4042C102.664 49.4315 102.603 55.2457 102.479 57.9233C102.386 60.6774 102.17 62.896 101.861 64.5791C101.522 66.2621 101.182 67.1036 100.842 67.1036C100.502 67.1036 100.255 66.1856 100.132 64.4261C99.9463 63.814 99.8536 54.9397 99.8536 37.9561C99.8536 36.273 99.7918 34.743 99.6374 33.4424C99.0814 33.672 98.5254 33.825 97.9694 33.978C97.815 34.131 97.6914 34.2075 97.5988 34.2075C97.537 34.131 97.4443 34.0545 97.3826 33.978C97.259 35.967 97.1355 37.8796 97.0119 39.5627C96.5795 43.5408 96.1162 46.9834 95.5602 49.8905C95.066 52.3386 94.3864 54.6337 93.5525 56.6993C93.4598 57.0053 93.3363 57.0818 93.2127 57.0818V56.7758C93.5525 54.4807 93.7996 52.0326 93.9849 49.508C94.4173 45.0709 94.6953 40.5572 94.8189 35.967C94.9733 31.4534 95.0351 27.0162 95.0351 22.5026C95.0351 21.2785 94.9424 20.3605 94.7571 19.825C94.6027 19.2129 94.51 18.8304 94.51 18.5244C94.51 17.9124 94.6027 17.5299 94.8189 17.5299C95.3131 17.5299 96.0235 17.8359 96.9501 18.3714C97.259 18.4479 97.4752 18.6774 97.6606 18.9069C98.1548 18.2949 98.5563 17.6829 98.927 16.9179C99.3903 16.1528 99.7609 15.2348 100.07 14.0873C100.224 13.5517 100.379 12.7102 100.502 11.6392C100.502 11.1036 100.595 10.8741 100.718 10.8741Z" fill="#666666"/>
<path d="M110.788 11.4097C111.251 11.4097 111.807 11.7157 112.425 12.4807C113.537 12.1747 114.741 11.4862 116.038 10.5681C116.316 10.5681 116.842 11.1036 117.614 12.0982C118.571 13.4752 119.035 14.4698 119.035 15.1583C119.035 15.3878 119.004 15.6173 118.911 15.8468C118.602 17.1474 118.324 18.6009 118.17 20.284C117.984 22.273 117.768 24.6446 117.428 27.3222C117.305 28.1638 117.027 28.8523 116.656 29.4643C116.378 29.7703 116.162 29.9998 115.946 29.9998C115.853 29.9998 115.76 29.8468 115.668 29.6938C115.112 29.7703 114.556 29.8468 114 30.0763C113.567 30.3058 113.228 30.3823 113.042 30.4588C112.919 41.4752 112.733 50.3495 112.517 57.0818C112.455 57.9233 112.27 58.7649 111.961 59.6064C111.652 60.3714 111.374 60.7539 111.127 60.7539C110.664 60.7539 110.293 59.8359 110.046 57.9998C109.737 56.5463 109.614 55.4752 109.614 54.7102C109.614 54.7102 109.645 54.3277 109.706 53.5627C110.17 49.202 110.448 45.7594 110.54 43.2348C110.788 37.5736 110.88 30.5353 110.88 21.967C110.818 17.4534 110.602 14.5463 110.293 13.2457C110.262 12.8632 110.262 12.6337 110.262 12.4042C110.262 11.7157 110.448 11.4097 110.788 11.4097ZM113.104 26.7102C113.166 26.6337 113.259 26.6337 113.32 26.5572C113.845 26.3277 114.216 25.9452 114.525 25.5627C114.618 25.4862 114.71 25.4097 114.741 25.4097C114.988 25.4097 115.204 25.5627 115.359 25.8687C115.575 23.8796 115.73 21.814 115.822 19.825C115.884 18.2949 115.946 16.9179 115.946 15.6173C115.946 14.5463 115.791 14.0108 115.513 14.0108C114.556 14.5463 113.784 14.8523 113.197 14.9288C113.166 15.8468 113.135 17.4534 113.135 19.7485C113.32 19.5954 113.506 19.3659 113.66 19.2129C113.938 18.9069 114.123 18.8304 114.216 18.8304C115.019 18.9069 115.39 19.672 115.39 21.202C115.39 21.5845 115.297 21.814 115.05 21.967C114.772 22.0435 114.401 22.12 113.938 22.3495C113.66 22.5026 113.382 22.5026 113.135 22.5026C113.104 23.9561 113.104 25.3332 113.104 26.7102ZM121.197 9.34408C121.475 9.34408 121.845 9.42059 122.309 9.7266C122.463 9.8031 122.587 9.8796 122.71 9.95611C122.865 9.95611 122.988 9.8796 123.05 9.8031C123.915 9.34408 124.78 8.80856 125.614 8.19654C126.015 7.89053 126.324 7.50802 126.54 7.1255C126.633 6.9725 126.695 6.896 126.756 6.896C127.065 6.896 127.652 7.27851 128.517 8.12004C129.475 9.34408 129.969 10.4151 129.969 11.4097C129.969 11.6392 129.969 11.9452 129.938 12.3277C129.691 15.0053 129.536 20.284 129.536 28.0873C129.536 29.7703 129.598 35.2785 129.722 44.7649C129.814 52.0326 129.876 56.9288 129.876 59.4534C129.876 60.6009 129.598 62.2075 129.011 64.273C128.332 66.1856 127.745 67.1036 127.312 67.1036C125.089 61.3659 123.977 58.3823 123.977 58.0763C123.977 57.7703 124.007 57.6173 124.069 57.6173C125.119 58.6883 125.83 59.1474 126.108 59.1474C126.448 59.1474 126.633 57.9233 126.695 55.4752C126.88 51.8796 126.973 44.3058 126.973 32.7539C126.973 30.7648 126.973 28.5463 126.911 25.9452C126.201 26.0982 125.49 26.1747 124.811 26.4042C123.946 26.6337 123.421 26.7867 123.235 26.7867C123.081 27.3222 122.865 27.5517 122.587 27.5517C122.432 27.5517 122.185 27.0162 121.845 25.8687C121.629 25.0271 121.506 24.5681 121.506 24.4151V21.967C121.475 16.1528 121.258 12.6337 120.857 11.4862C120.733 10.9506 120.641 10.5681 120.641 10.3386C120.641 9.65009 120.826 9.34408 121.197 9.34408ZM123.482 23.4971C123.791 23.4206 124.131 23.3441 124.471 23.1911C125.243 22.9616 125.861 22.6556 126.293 22.4261C126.448 22.273 126.54 22.273 126.664 22.273C126.726 22.273 126.787 22.273 126.849 22.3495C126.818 19.5189 126.756 16.3823 126.664 12.9397C126.664 12.4807 126.448 12.2512 126.015 12.2512C125.799 12.2512 125.49 12.3277 125.058 12.4042C124.502 12.7102 123.915 13.0927 123.266 13.6282L123.359 16.8414C123.668 16.5353 123.977 16.3058 124.255 15.9233C124.594 15.5408 124.811 15.3878 124.934 15.3878C125.861 15.4643 126.324 16.4588 126.324 18.2949C126.324 18.7539 126.201 19.0599 125.892 19.1364C125.552 19.2129 125.119 19.3659 124.594 19.5954C124.255 19.7485 123.946 19.9015 123.668 19.9015C123.575 19.9015 123.482 19.9015 123.421 19.9015L123.482 23.4971ZM123.112 27.8577C123.266 27.8577 123.513 28.0107 123.884 28.3933C124.316 29.0818 124.502 29.6938 124.502 30.2293C124.502 30.7648 124.471 31.2239 124.409 31.6829C124.347 32.2184 124.224 32.5244 124.069 32.6009C123.606 32.9069 123.112 33.1364 122.648 33.2894C123.05 33.672 123.235 34.131 123.235 34.5135C123.235 34.9725 123.204 35.355 123.112 35.814C122.834 36.5791 122.679 38.1091 122.679 40.4042C122.679 42.7758 122.679 44.9944 122.679 46.9834C122.803 46.8304 122.926 46.7539 123.05 46.6774C123.421 46.5244 123.76 46.4479 124.069 46.4479C124.409 46.4479 124.78 46.7539 125.181 47.3659C125.521 47.9015 125.706 48.6665 125.706 49.5845C125.706 50.6556 125.583 51.1911 125.367 51.1911C124.44 51.1911 123.544 51.2676 122.648 51.3441C122.618 53.3332 122.587 54.8632 122.525 55.8577C122.463 58.3058 122.278 60.2184 122.031 61.7485C121.753 63.202 121.475 63.967 121.197 63.967C120.888 63.967 120.702 63.1255 120.61 61.5189C120.486 61.2129 120.424 57.9233 120.394 51.8031C119.683 51.9561 119.004 52.1091 118.386 52.3386C117.397 52.5681 116.347 53.0271 115.174 53.7157C114.803 54.0217 114.556 54.0982 114.432 54.0982C114.185 54.0982 113.876 53.6392 113.506 52.7976C113.197 52.1091 113.042 51.4971 113.042 50.9616C113.042 50.7321 113.073 50.6556 113.135 50.6556C114.247 50.3495 115.297 50.0435 116.224 49.661L116.069 41.9342C116.069 39.9452 116.008 38.1091 115.946 36.4261C115.915 35.967 115.853 35.508 115.791 35.1255C115.235 34.896 114.865 34.284 114.648 33.3659C114.432 32.5244 114.34 31.9124 114.34 31.6064C114.34 31.3769 114.37 31.3004 114.432 31.3004C116.749 30.9944 118.54 30.5353 119.838 29.9998C120.919 29.4643 121.814 28.8523 122.587 28.1638C122.772 27.9342 122.926 27.8577 123.112 27.8577ZM117.984 49.049C118.17 49.049 118.355 48.9725 118.54 48.896C119.127 48.59 119.745 48.3605 120.363 48.0545C120.332 45.2239 120.332 41.9342 120.332 38.1856C120.332 36.6556 120.239 35.355 120.085 34.284C119.776 34.437 119.467 34.5135 119.158 34.6665C118.787 34.8195 118.448 34.896 118.17 34.9725C118.324 35.2785 118.417 35.508 118.417 35.814C118.417 35.967 118.386 36.0435 118.355 36.1965C118.262 36.5026 118.231 37.0381 118.201 37.8796C118.602 37.5736 118.849 37.3441 119.004 37.2676C119.035 37.1911 119.065 37.1146 119.158 37.1146C119.869 37.1146 120.208 37.6501 120.208 38.7211C120.208 39.3332 120.116 39.7922 119.899 40.0982C119.498 40.3277 118.973 40.5572 118.324 40.8632C118.293 40.8632 118.231 40.8632 118.201 40.8632C118.17 40.8632 118.139 40.8632 118.108 40.8632L118.077 43.2348C118.602 42.8523 118.942 42.6228 119.096 42.4698C119.158 42.4698 119.22 42.4698 119.251 42.4698C119.961 42.4698 120.332 43.0053 120.332 43.9998C120.332 44.6118 120.208 45.0709 119.992 45.3769C119.591 45.6064 119.004 45.9124 118.324 46.1419C118.293 46.2184 118.231 46.2184 118.201 46.2184C118.139 46.2184 118.108 46.2184 118.046 46.1419L117.984 49.049Z" fill="#666666"/>
<path d="M137.475 11.4092C138.031 11.4092 138.617 11.7917 139.297 12.7097C139.946 13.4748 140.254 14.3928 140.254 15.3873C140.254 15.6933 140.193 15.9228 140.038 16.2289C139.266 18.6004 138.278 22.5021 137.011 27.9338C136.98 27.9338 136.949 28.0103 136.949 28.0868L138.741 27.7043C139.05 26.2507 139.297 25.0267 139.513 23.9556C139.637 23.2671 139.698 22.4256 139.729 21.431C139.729 20.4365 139.915 19.901 140.254 19.901C140.502 19.901 140.996 20.4365 141.675 21.584C142.293 22.4256 142.602 23.2671 142.602 24.1086C142.602 24.3381 142.54 24.5676 142.355 24.8737C141.737 26.3272 141.027 28.2398 140.193 30.6879C139.359 33.0595 138.556 35.8136 137.783 38.9502C138.525 38.4146 139.266 37.9556 139.976 37.4966C139.884 36.8081 139.791 36.1196 139.698 35.431C139.637 35.125 139.606 34.972 139.606 34.819C139.668 34.4365 139.729 34.207 139.822 34.207C140.007 34.207 140.224 34.2835 140.471 34.513C141.058 35.0485 141.521 35.584 141.799 36.2726C142.077 36.9611 142.2 37.8026 142.2 39.0267C142.2 39.6387 142.077 40.2507 141.799 40.8627C141.49 41.3983 141.181 41.6278 140.903 41.6278C140.81 41.6278 140.687 41.3983 140.594 40.9392C140.532 40.6332 140.409 40.0977 140.285 39.4857H140.254C139.39 40.0977 138.648 40.8627 138.031 41.7808C137.413 42.6988 136.98 43.4638 136.733 44.1523C136.548 44.4584 136.455 44.5349 136.393 44.5349C136.177 44.5349 135.868 43.9228 135.529 42.5458C135.251 41.6278 135.127 40.9392 135.127 40.4037C135.127 39.9447 135.22 39.4857 135.467 39.0267C135.652 38.7972 135.807 38.4911 135.93 38.1086C136.177 37.5731 136.702 35.737 137.505 32.6769C137.66 32.0649 137.814 31.4529 137.938 30.9174C137.011 31.8354 136.301 32.9064 135.868 34.207C135.374 34.207 135.004 33.6715 134.726 32.5239C134.417 31.8354 134.262 30.9174 134.262 29.6933C134.262 29.3108 134.293 28.9283 134.355 28.6223C134.818 27.7808 135.312 25.9447 135.868 23.1141C136.115 21.737 136.424 19.289 136.826 15.9228C136.98 14.6988 137.042 14.0103 137.042 13.7808V12.4037C137.042 11.7152 137.197 11.4092 137.475 11.4092ZM134.355 46.983C134.602 46.983 134.849 47.136 135.158 47.5185C135.868 48.36 136.424 49.3545 136.795 50.5021C137.104 51.5731 137.258 53.1797 137.258 55.1687C137.258 55.8573 137.104 56.5458 136.764 57.2343C136.424 57.8463 136.085 58.0758 135.745 58.0758C135.621 58.0758 135.467 57.6933 135.343 56.9283C135.096 55.6278 134.726 52.7972 134.262 48.4365C134.17 48.054 134.139 47.6715 134.139 47.5185C134.17 47.136 134.231 46.983 134.355 46.983ZM137.567 45.3764C137.753 45.3764 137.938 45.4529 138.185 45.6059C138.679 46.1414 139.112 46.6769 139.39 47.289C139.606 47.8245 139.729 48.7425 139.729 49.8901C139.729 50.4256 139.606 50.9611 139.359 51.5731C139.081 52.0321 138.803 52.2616 138.556 52.2616C138.463 52.2616 138.37 52.0321 138.278 51.5731C138.061 50.7316 137.783 48.972 137.444 46.2944C137.382 45.9884 137.351 45.8354 137.351 45.6059C137.413 45.4529 137.475 45.3764 137.567 45.3764ZM140.038 42.6988C140.193 42.6988 140.378 42.7753 140.594 43.0048C141.119 43.3873 141.49 43.9228 141.768 44.4584C141.984 44.9174 142.077 45.6824 142.077 46.6769C142.077 47.289 141.953 47.8245 141.737 48.36C141.459 48.8955 141.181 49.125 140.903 49.125C140.81 49.125 140.718 48.8955 140.656 48.4365C140.471 47.6715 140.224 46.0649 139.884 43.5403C139.853 43.3108 139.822 43.1578 139.822 43.0048C139.853 42.7753 139.915 42.6988 140.038 42.6988ZM142.818 16.6879C143.251 16.6879 143.776 17.0704 144.363 17.7589C144.949 17.6824 145.413 17.5294 145.722 17.3764C147.668 16.8409 149.583 16.1523 151.498 15.3873C152.332 15.0813 153.042 14.6223 153.598 14.0103C153.814 13.8573 153.969 13.7808 154.123 13.7808C154.37 13.7808 154.926 14.1633 155.698 14.9283C156.625 16.0758 157.088 17.1469 157.088 18.0649C157.088 18.2179 157.057 18.5239 157.027 18.8299C156.779 21.0485 156.656 25.4092 156.656 31.9884C156.656 33.289 156.749 37.8026 156.903 45.4529C157.027 51.2671 157.088 55.3217 157.088 57.3873C157.088 58.3819 156.81 59.8354 156.285 61.8245C155.667 63.584 155.142 64.5021 154.741 64.5021C152.795 59.0704 151.837 56.2398 151.837 56.0103C151.837 55.6278 151.868 55.4748 151.93 55.4748C152.826 56.5458 153.413 57.0813 153.66 57.0813C153.907 57.0813 154.03 56.0868 154.123 54.0212C154.247 51.1906 154.308 45.0704 154.308 35.8136C154.308 31.8354 154.185 26.4037 153.969 19.3655C153.969 18.983 153.814 18.8299 153.444 18.8299C152.826 18.8299 151.93 18.9064 150.725 19.2125C149.057 19.595 147.235 20.207 145.227 21.125C145.197 22.1196 145.197 23.4201 145.197 25.1797C145.166 30.6114 145.166 35.431 145.135 39.8682C145.166 39.7917 145.166 39.7917 145.197 39.7917C146.525 39.4092 147.698 39.0267 148.718 38.6442C148.81 38.6442 148.872 38.5676 148.934 38.5676C148.687 37.8026 148.316 36.2726 147.853 33.901C147.791 33.901 147.729 33.901 147.668 33.901C146.803 33.901 146.278 33.3655 146 32.1414C145.814 31.3764 145.722 30.7644 145.722 30.4584C145.722 30.3054 145.752 30.2289 145.845 30.2289C147.235 30.0758 148.378 29.7698 149.305 29.4638C149.613 27.8573 149.861 26.4037 150.046 24.9502C150.169 24.1086 150.231 23.3436 150.231 22.8081C150.231 22.5021 150.077 21.8136 149.799 20.7425C149.799 20.36 149.984 20.1305 150.324 20.1305C150.973 20.1305 151.559 20.4365 152.146 20.972C152.733 21.431 153.011 21.9666 153.011 22.5021C153.011 22.7316 152.949 23.0376 152.764 23.4201C152.486 24.1851 152.239 24.7972 152.084 25.1797C151.714 26.3272 151.281 27.4748 150.756 28.5458C151.189 28.2398 151.59 27.9338 151.961 27.5513C152.084 27.3983 152.239 27.3217 152.362 27.3217C152.486 27.3217 152.702 27.4748 153.011 27.7808C153.382 28.4693 153.567 29.0048 153.567 29.4638C153.567 29.9228 153.536 30.3054 153.474 30.6879C153.413 31.1469 153.351 31.4529 153.227 31.6059C152.084 32.2944 150.849 32.9064 149.613 33.3655C149.366 33.442 149.181 33.5185 149.027 33.595C149.49 33.901 149.891 34.2835 150.139 34.819C150.417 35.278 150.54 35.9666 150.54 36.8846C150.54 37.2671 150.509 37.5731 150.386 37.9556C150.849 37.7261 151.281 37.5731 151.683 37.3436C151.93 37.1906 152.177 37.1141 152.362 37.1141C152.671 37.1141 153.011 37.4201 153.382 38.0321C153.722 38.4911 153.876 39.1797 153.876 40.0977C153.876 40.9392 153.783 41.3983 153.567 41.3983C151.899 41.3983 150.386 41.5513 148.934 41.9338C148.779 41.9338 148.625 41.9338 148.471 41.9338C148.718 42.3928 148.841 42.6988 148.841 43.0048C148.841 43.1578 148.81 43.1578 148.779 43.2343C148.471 43.6933 148.285 44.5349 148.285 45.6059C148.285 46.2179 148.316 46.7534 148.347 47.0595C148.44 47.6715 148.81 47.9775 149.459 47.9775C149.675 47.9775 150.139 47.8245 150.818 47.5185C150.973 47.3655 151.127 47.136 151.281 46.8299C151.343 46.7534 151.405 46.6769 151.528 46.6769C152.115 46.6769 152.579 46.9064 152.949 47.3655C153.227 47.595 153.351 47.9775 153.351 48.5895C153.351 49.8136 153.196 50.5021 152.918 50.6551C151.992 51.5731 151.281 52.0321 150.725 52.0321C149.119 52.0321 148.069 51.7261 147.544 51.0376C147.112 50.5786 146.803 49.8136 146.648 48.666C146.525 47.901 146.463 46.9064 146.463 45.6059C146.463 44.4584 146.463 43.4638 146.432 42.6988C146.401 42.6988 146.401 42.6988 146.37 42.6988C146.154 42.6988 145.845 42.3163 145.505 41.5513C145.32 41.1687 145.197 40.7862 145.135 40.4037C145.104 46.5239 145.042 51.6496 144.98 55.7043C144.919 56.4693 144.733 57.3873 144.455 58.3819C144.115 59.0704 143.837 59.4529 143.59 59.4529C143.127 59.4529 142.756 58.5349 142.478 56.6223C142.2 55.2452 142.077 54.0977 142.077 53.3327C142.108 53.3327 142.108 53.0267 142.139 52.4911C142.447 48.972 142.633 46.2179 142.725 44.1523C142.88 39.7152 142.942 34.1305 142.942 27.3217C142.849 22.8081 142.664 19.901 142.355 18.6004C142.324 18.2179 142.293 17.9119 142.293 17.8354C142.293 17.0704 142.478 16.6879 142.818 16.6879ZM146.278 22.5021C146.432 22.5021 146.648 22.5786 146.895 22.7316C147.482 23.1906 147.946 23.6496 148.254 24.1086C148.501 24.5676 148.625 25.3327 148.625 26.3272C148.625 26.8627 148.471 27.4748 148.224 28.0868C147.946 28.6988 147.637 28.9283 147.328 28.9283C147.235 28.9283 147.112 28.6988 147.019 28.2398C146.803 27.5513 146.494 26.0212 146.123 23.6496C146.061 23.4201 146.061 23.1906 146.061 23.1141C146.092 22.7316 146.154 22.5021 146.278 22.5021Z" fill="#666666"/>
</svg>
