<svg width="120" height="120" viewBox="0 0 120 120" fill="none" xmlns="http://www.w3.org/2000/svg">
<g clip-path="url(#clip0_556_1897)">
<rect width="120" height="120" rx="30" fill="white"/>
<path d="M72.8907 46.125V65.1797C72.8907 65.6719 72.5157 66.0469 72.0235 66.0469H68.9766C68.6719 66.0469 68.4141 65.8829 68.2735 65.6954L59.5313 53.9063V65.2032C59.5313 65.6954 59.1563 66.0704 58.6641 66.0704H55.6172C55.125 66.0704 54.75 65.6954 54.75 65.2032V46.1485C54.75 45.6563 55.125 45.2813 55.6172 45.2813H58.6407C58.8985 45.2813 59.2032 45.4219 59.3438 45.6563L68.086 57.4454V46.1485C68.086 45.6563 68.461 45.2813 68.9532 45.2813H72C72.4922 45.2579 72.8907 45.6563 72.8907 46.1016V46.125ZM50.9297 45.2579H47.8829C47.3907 45.2579 47.0157 45.6329 47.0157 46.125V65.1797C47.0157 65.6719 47.3907 66.0469 47.8829 66.0469H50.9297C51.4219 66.0469 51.7969 65.6719 51.7969 65.1797V46.125C51.7969 45.6797 51.4219 45.2579 50.9297 45.2579ZM43.5704 61.2188H35.2266V46.125C35.2266 45.6329 34.8516 45.2579 34.3594 45.2579H31.3125C30.8204 45.2579 30.4454 45.6329 30.4454 46.125V65.1797C30.4454 65.4141 30.5157 65.6016 30.6797 65.7657C30.8438 65.9063 31.0313 66 31.2657 66H43.5C43.9922 66 44.3672 65.625 44.3672 65.1329V62.086C44.3672 61.6407 43.9922 61.2188 43.5469 61.2188H43.5704ZM88.9688 45.2579H76.711C76.2657 45.2579 75.8438 45.6329 75.8438 46.125V65.1797C75.8438 65.625 76.2188 66.0469 76.711 66.0469H88.9454C89.4375 66.0469 89.8125 65.6719 89.8125 65.1797V62.1094C89.8125 61.6172 89.4375 61.2422 88.9454 61.2422H80.625V58.0547H88.9454C89.4375 58.0547 89.8125 57.6797 89.8125 57.1875V54.1172C89.8125 53.625 89.4375 53.25 88.9454 53.25H80.625V50.0391H88.9454C89.4375 50.0391 89.8125 49.6641 89.8125 49.1719V46.125C89.7891 45.6797 89.4141 45.2579 88.9454 45.2579H88.9688ZM120 21.8907V98.2969C119.977 110.297 110.133 120.023 98.1094 120H21.7032C9.70317 119.977 -0.0233952 110.109 4.22681e-05 98.1094V21.7032C0.0234798 9.70317 9.89067 -0.0233952 21.8907 4.22681e-05H98.2969C110.297 0.0234798 120.023 9.86723 120 21.8907ZM103.5 54.7266C103.5 35.1797 83.8829 19.2657 59.8125 19.2657C35.7422 19.2657 16.125 35.1797 16.125 54.7266C16.125 72.2344 31.6641 86.9297 52.6641 89.7188C57.7735 90.8204 57.1875 92.6954 56.0391 99.586C55.8516 100.688 55.1485 103.898 59.8125 101.953C64.4766 100.008 84.961 87.1407 94.1485 76.5938C100.477 69.6329 103.5 62.5782 103.5 54.7735V54.7266Z" fill="#00D415"/>
</g>
<defs>
<clipPath id="clip0_556_1897">
<rect width="120" height="120" rx="30" fill="white"/>
</clipPath>
</defs>
</svg>
