<svg width="60" height="60" viewBox="0 0 60 60" fill="none" xmlns="http://www.w3.org/2000/svg">
<g clip-path="url(#clip0_556_2050)">
<rect width="60" height="60" rx="12" fill="white"/>
<path d="M36.4453 23.0625V32.5899C36.4453 32.836 36.2578 33.0235 36.0117 33.0235H34.4883C34.336 33.0235 34.2071 32.9414 34.1367 32.8477L29.7656 26.9531V32.6016C29.7656 32.8477 29.5781 33.0352 29.3321 33.0352H27.8086C27.5625 33.0352 27.375 32.8477 27.375 32.6016V23.0742C27.375 22.8281 27.5625 22.6406 27.8086 22.6406H29.3203C29.4492 22.6406 29.6016 22.711 29.6719 22.8281L34.043 28.7227V23.0742C34.043 22.8281 34.2305 22.6406 34.4766 22.6406H36C36.2461 22.6289 36.4453 22.8281 36.4453 23.0508V23.0625ZM25.4649 22.6289H23.9414C23.6953 22.6289 23.5078 22.8164 23.5078 23.0625V32.5899C23.5078 32.836 23.6953 33.0235 23.9414 33.0235H25.4649C25.711 33.0235 25.8985 32.836 25.8985 32.5899V23.0625C25.8985 22.8399 25.711 22.6289 25.4649 22.6289ZM21.7852 30.6094H17.6133V23.0625C17.6133 22.8164 17.4258 22.6289 17.1797 22.6289H15.6563C15.4102 22.6289 15.2227 22.8164 15.2227 23.0625V32.5899C15.2227 32.7071 15.2578 32.8008 15.3399 32.8828C15.4219 32.9531 15.5156 33 15.6328 33H21.75C21.9961 33 22.1836 32.8125 22.1836 32.5664V31.043C22.1836 30.8203 21.9961 30.6094 21.7735 30.6094H21.7852ZM44.4844 22.6289H38.3555C38.1328 22.6289 37.9219 22.8164 37.9219 23.0625V32.5899C37.9219 32.8125 38.1094 33.0235 38.3555 33.0235H44.4727C44.7188 33.0235 44.9063 32.836 44.9063 32.5899V31.0547C44.9063 30.8086 44.7188 30.6211 44.4727 30.6211H40.3125V29.0274H44.4727C44.7188 29.0274 44.9063 28.8399 44.9063 28.5938V27.0586C44.9063 26.8125 44.7188 26.625 44.4727 26.625H40.3125V25.0196H44.4727C44.7188 25.0196 44.9063 24.8321 44.9063 24.586V23.0625C44.8946 22.8399 44.7071 22.6289 44.4727 22.6289H44.4844ZM60 10.9453V49.1485C59.9883 55.1485 55.0664 60.0117 49.0547 60H10.8516C4.85158 59.9883 -0.0116976 55.0547 2.11341e-05 49.0547V10.8516C0.0117399 4.85158 4.94533 -0.0116976 10.9453 2.11341e-05H49.1485C55.1485 0.0117399 60.0117 4.93362 60 10.9453ZM51.75 27.3633C51.75 17.5899 41.9414 9.63283 29.9063 9.63283C17.8711 9.63283 8.06252 17.5899 8.06252 27.3633C8.06252 36.1172 15.8321 43.4649 26.3321 44.8594C28.8867 45.4102 28.5938 46.3477 28.0196 49.793C27.9258 50.3438 27.5742 51.9492 29.9063 50.9766C32.2383 50.0039 42.4805 43.5703 47.0742 38.2969C50.2383 34.8164 51.75 31.2891 51.75 27.3867V27.3633Z" fill="#00C914"/>
</g>
<defs>
<clipPath id="clip0_556_2050">
<rect width="60" height="60" rx="12" fill="white"/>
</clipPath>
</defs>
</svg>
