<svg width="95" height="130" viewBox="0 0 95 130" fill="none" xmlns="http://www.w3.org/2000/svg">
<g clip-path="url(#clip0_554_1942)">
<path d="M36.5914 79.6872H46.4009V66.4658H34.5483C34.6501 71.2136 35.3559 75.737 36.5914 79.6872Z" fill="black"/>
<path d="M38.5876 84.6695C40.7687 88.9788 43.5054 91.5858 46.4025 92.1538V82.104H37.4419C37.7939 82.9983 38.177 83.8547 38.5894 84.6695H38.5876Z" fill="black"/>
<path d="M57.777 82.104H48.8164V92.1538C51.7118 91.5841 54.4502 88.9771 56.6313 84.6695C57.0437 83.8564 57.425 82.9983 57.7787 82.104H57.777Z" fill="black"/>
<path d="M59.6201 92.0899C67.29 90.2599 73.9057 86.7292 78.625 82.104H71.5797C68.5721 86.4236 64.4412 89.8956 59.6201 92.0899Z" fill="black"/>
<path d="M23.6381 82.104H16.5928C21.3121 86.7292 27.9277 90.2616 35.5976 92.0899C30.7748 89.8956 26.6456 86.4236 23.6381 82.104Z" fill="black"/>
<path d="M76.8337 64.0485H86.2274C85.9496 59.2299 84.017 54.7255 80.8351 50.8271H73.0962C75.3066 54.7635 76.6404 59.261 76.8337 64.0485Z" fill="black"/>
<path d="M22.1229 50.8271H14.3839C11.2021 54.7255 9.26951 59.2299 8.9917 64.0485H18.3854C18.5787 59.261 19.9125 54.7635 22.1229 50.8271Z" fill="black"/>
<path d="M68.5721 82.104H60.3603C59.891 83.392 59.3682 84.616 58.7884 85.7607C57.6634 87.9826 56.3813 89.8179 54.9854 91.2353C60.4104 89.6729 65.1366 86.4288 68.5738 82.104H68.5721Z" fill="black"/>
<path d="M34.8607 82.104H26.6489C30.0862 86.4288 34.8123 89.6729 40.2374 91.2371C38.8414 89.8196 37.5576 87.9844 36.4343 85.7624C35.8546 84.6177 35.33 83.3937 34.8624 82.1057L34.8607 82.104Z" fill="black"/>
<path d="M34.0857 35.0597C27.7461 36.5825 21.9329 39.1825 17.0721 42.7322C8.85002 48.7351 4.32227 56.7356 4.32227 65.2575C4.32227 73.7793 8.85002 81.7798 17.0721 87.7828C25.2355 93.7443 36.0804 97.0263 47.6086 97.0263C59.1367 97.0263 69.9816 93.7425 78.145 87.7828C86.3671 81.7798 90.8949 73.7793 90.8949 65.2575C90.8949 56.7356 86.3671 48.7351 78.145 42.7322C74.0107 39.7125 69.1861 37.3818 63.9354 35.8159C63.7352 35.1046 63.6058 34.3881 63.5868 33.6699C63.5868 33.6647 63.5851 33.6578 63.5851 33.6526C63.5851 33.6457 63.5851 33.6405 63.5851 33.6354C63.3401 30.6693 63.6127 28.1141 63.9302 25.1567C64.1563 23.04 64.3909 20.8508 64.4668 18.2369C64.5014 18.0885 64.5393 17.9417 64.5704 17.7932C64.6273 17.5464 64.6653 17.2891 64.7119 17.037C64.7498 16.7694 64.7826 16.4949 64.7809 16.2101C64.7895 15.6472 64.6825 15.0395 64.4099 14.4905C64.139 13.938 63.7059 13.4857 63.2486 13.1628C62.7914 12.8314 62.31 12.6017 61.8596 12.398C61.6353 12.2962 61.4144 12.2029 61.2194 12.1045C61.0452 12.0182 60.8122 11.8801 60.5931 11.7748C60.3739 11.6643 60.1531 11.5693 59.946 11.4709C59.7441 11.3742 59.5457 11.2724 59.4197 11.167C59.3559 11.1152 59.3179 11.0669 59.2972 11.0306C59.2748 10.9944 59.2661 10.9581 59.2765 10.8943C59.2886 10.8321 59.3231 10.751 59.3783 10.6733C59.4352 10.5956 59.5094 10.5213 59.5871 10.4471C60.0012 10.0569 60.298 9.62357 60.5775 9.17814C60.8536 8.73098 61.0745 8.25448 61.235 7.75553C61.5283 6.75245 61.6663 5.68549 61.5387 4.59435C61.4696 4.05052 61.3212 3.50495 61.0797 2.98873C60.9537 2.73322 60.8139 2.48288 60.6397 2.25326L60.5102 2.08061L60.3687 1.91832C60.2738 1.8061 60.1772 1.71632 60.0806 1.61791C59.2903 0.853087 58.2619 0.31788 57.1817 0.112429C56.1016 -0.0964739 54.992 -0.00669723 53.9619 0.329965C53.7031 0.414562 53.4512 0.516424 53.2027 0.637277C53.0888 0.692524 52.9801 0.751225 52.8662 0.816831C52.2951 0.478442 51.667 0.233283 51.0199 0.110703C49.9397 -0.0982003 48.8302 -0.00842371 47.8001 0.328239C47.5413 0.412836 47.2893 0.514698 47.0409 0.635551C46.9253 0.692524 46.8148 0.751225 46.6992 0.818557C46.1263 0.476715 45.4965 0.231556 44.846 0.108976C43.7658 -0.0999268 42.6563 -0.0101502 41.6262 0.326512C41.3674 0.411109 41.1154 0.512971 40.867 0.633824C40.7427 0.695977 40.6237 0.758131 40.4977 0.832369C40.3717 0.908334 40.2492 0.991205 40.1319 1.08098C39.6626 1.44181 39.3036 1.90624 39.0345 2.38447C38.7636 2.86443 38.572 3.36165 38.4167 3.85542C38.2632 4.35092 38.1441 4.84469 38.044 5.33674C37.9422 5.83224 37.8611 6.31047 37.7817 6.81633C37.7041 7.32736 37.6489 7.84876 37.6472 8.38051C37.6472 8.91226 37.7144 9.45438 37.8715 9.9775C37.9491 10.2278 38.0423 10.4747 38.1527 10.7112C33.5905 12.1891 32.2083 10.9978 30.7227 9.55279C30.7589 9.48027 30.7934 9.40776 30.8262 9.33698L30.9159 9.11081C30.9418 9.02966 30.9642 8.94334 30.9884 8.85874C31.016 8.77415 31.0264 8.68782 31.0384 8.59977C31.0488 8.51172 31.0678 8.4254 31.066 8.33735C31.1005 7.63122 30.8503 6.93545 30.4138 6.39334C30.1998 6.1171 29.9203 5.89439 29.6252 5.70966C29.325 5.5232 28.9868 5.41098 28.6451 5.33501L28.3846 5.30221L28.2552 5.28667H28.1258H27.8652C27.7807 5.29358 27.6961 5.30566 27.6116 5.31429C27.4425 5.32811 27.2751 5.37817 27.1077 5.41616C27.0249 5.4386 26.9421 5.47313 26.861 5.50248C26.7781 5.53356 26.6953 5.56118 26.6194 5.60607C26.295 5.75109 26.0137 5.97899 25.7618 6.22587C25.6514 6.36054 25.5237 6.4883 25.4357 6.63677C25.3891 6.70928 25.339 6.7818 25.2942 6.85431L25.1786 7.0822C24.8801 7.69683 24.761 8.34771 24.7265 8.97787C24.6937 9.61321 24.7472 10.2244 24.8438 10.8373C24.9491 11.4502 25.1165 12.0562 25.3563 12.6345C25.6065 13.2077 25.8981 13.7671 26.2777 14.2661C27.0145 15.2812 27.9912 16.103 29.0575 16.7107C29.1904 16.7884 29.3233 16.8679 29.4579 16.9421L29.8737 17.1355L30.2913 17.3271C30.3603 17.3582 30.4293 17.3944 30.5001 17.4203L30.714 17.4963L31.5733 17.7984C31.8632 17.8847 32.1566 17.9521 32.4482 18.0298L32.8865 18.142C33.0331 18.1748 33.1815 18.1955 33.3282 18.2231L34.2151 18.3785C34.3618 18.4079 34.5119 18.4217 34.6603 18.4372L35.1055 18.4838L35.875 18.5633C35.8285 18.9931 35.8078 19.4265 35.8181 19.8529C35.8233 20.2189 35.8423 20.5711 35.8681 20.9372C35.8958 21.3101 35.9423 21.6813 36.0027 22.0421C36.1218 22.7672 36.2788 23.444 36.3737 24.1035C36.4203 24.435 36.46 24.763 36.4755 25.0928C36.4859 25.2602 36.4859 25.4191 36.4911 25.5952L36.5031 26.1287C36.5221 26.8382 36.548 27.5478 36.5773 28.2557C36.6446 29.5367 36.7188 30.8126 36.8638 32.1005C36.8258 32.1247 36.7896 32.1506 36.7568 32.1834C35.9268 33.0104 35.014 33.9893 34.0788 35.0459L34.0857 35.0597ZM89.6853 65.2575C89.6853 82.1096 70.8098 95.8195 47.6086 95.8195C24.4073 95.8195 5.53185 82.1078 5.53185 65.2575C5.53185 52.2226 16.8271 41.0696 32.6811 36.6843C31.7148 37.829 30.752 39.0185 29.8582 40.1804C24.6247 42.159 20.09 44.9835 16.5941 48.4088H23.6394C24.5229 47.1398 25.5064 45.9451 26.5745 44.8333C25.9999 45.7621 25.5823 46.5511 25.3925 47.1191C25.0043 48.281 24.8801 49.1253 24.78 49.8021C24.6506 50.6739 24.566 51.2488 23.9966 52.0534C22.8112 53.7281 20.8268 56.5301 20.6871 60.6616C20.6577 61.5283 20.725 62.2413 20.8907 62.8162C21.0028 63.2099 21.1616 63.5379 21.3669 63.8003C21.3686 63.8832 21.3704 63.9643 21.3721 64.0472C21.379 64.2906 21.3876 64.5375 21.429 64.7965C21.4566 64.9898 21.5032 65.1884 21.5878 65.3852C21.6154 65.4491 21.6499 65.5112 21.6861 65.5717C21.4618 65.8652 21.2444 66.1638 21.0304 66.4643C20.9614 66.5627 20.8907 66.6594 20.8234 66.7578C20.6025 67.0737 20.3851 67.3931 20.1746 67.7177C19.9106 68.1182 19.6587 68.5274 19.4171 68.9452C19.1876 69.3388 18.9702 69.7446 18.7735 70.1675C18.5698 68.9556 18.4387 67.7194 18.3887 66.4625H8.99324C9.27105 71.2811 11.2036 75.7855 14.3855 79.6839H22.1244C21.1995 78.0368 20.4317 76.2913 19.8329 74.4682L19.9468 74.4924C20.0262 74.5027 20.1021 74.5044 20.1815 74.5096C20.8044 74.5372 21.3479 74.3801 21.8414 74.1885C21.9743 74.1367 22.1037 74.0797 22.2314 74.0193C22.9164 76.0237 23.8258 77.9229 24.9353 79.6839H34.0719C32.9003 75.675 32.2325 71.1654 32.1341 66.4625H27.5701C27.4925 66.333 27.4045 66.2139 27.313 66.1034C27.0421 65.7771 26.7333 65.5216 26.414 65.2954C26.5228 65.0589 26.5814 64.8051 26.6073 64.5651C26.6297 64.389 26.6332 64.2164 26.6315 64.0472H32.1341C32.2118 60.3094 32.6501 56.6941 33.4162 53.3551C34.3117 52.0465 35.2401 50.85 36.0545 49.8003C36.7999 48.8404 37.4435 48.0083 37.906 47.3004C37.7472 47.663 37.5919 48.0307 37.4435 48.4071H44.0488C44.5958 49.2375 45.1808 50.0438 45.8054 50.8241H36.5946C35.3591 54.7743 34.6534 59.2977 34.5516 64.0455H46.4041V51.5493C46.8649 52.0845 47.3497 52.6041 47.8846 53.091C48.2039 53.381 48.511 53.6245 48.8199 53.8783V64.0472H56.2034C56.3569 64.2578 56.5105 64.4667 56.6675 64.6756C57.0074 65.1245 57.3612 65.563 57.7304 65.9947C57.8737 66.1518 58.0117 66.3089 58.1566 66.4643H48.8199V79.6856H58.6294C58.9642 78.6152 59.2575 77.5033 59.5129 76.3552C59.5836 76.3552 59.6527 76.3552 59.7217 76.3552C60.2307 76.3431 60.7208 76.262 61.2004 76.1532C61.5007 76.0773 61.794 75.984 62.0822 75.8804C61.8199 77.1891 61.5093 78.4615 61.1521 79.6856H70.2887C70.9582 78.6238 71.5518 77.5102 72.0712 76.3552C72.5751 76.3431 73.0616 76.262 73.5362 76.1532C74.0297 76.0289 74.5076 75.8632 74.9683 75.6681C74.4438 77.0596 73.8174 78.4045 73.0979 79.6873H80.8368C84.0187 75.7889 85.9512 71.2846 86.2291 66.466H77.8223C77.7136 66.3002 77.598 66.1397 77.4772 65.986C77.1753 65.6045 76.8388 65.2626 76.4902 64.9329L76.4868 64.9294C76.473 64.9173 76.4575 64.907 76.4419 64.8949C76.4419 64.8863 76.4419 64.8742 76.4402 64.8655C76.3971 64.5427 76.3263 64.2561 76.2487 63.973C75.9277 62.8559 75.505 61.8235 75.0701 60.7911C74.6319 59.7621 74.1677 58.7486 73.6863 57.7438C73.3964 57.1396 73.1013 56.5405 72.7976 55.9414C72.1385 54.139 71.2964 52.4246 70.2887 50.8259H69.7797C69.4139 50.2423 69.0567 49.6588 68.7202 49.0683C68.596 48.849 68.4752 48.6298 68.3579 48.4088C68.2388 48.1844 68.1249 47.9582 68.0162 47.732C68.0024 47.7009 67.9869 47.6716 67.9714 47.6405C67.8609 47.4005 67.7557 47.1606 67.666 46.9206C67.6228 46.8014 67.5797 46.6806 67.5452 46.5632C67.5072 46.4389 67.4831 46.3422 67.4468 46.1972C67.1811 45.1078 66.8843 44.0322 66.5651 42.9635C66.5513 42.9169 66.5375 42.872 66.5219 42.8254C68.4355 44.4604 70.1386 46.3353 71.5829 48.4088H78.6282C75.2065 45.056 70.7874 42.2764 65.692 40.3047C65.6264 40.1252 65.5608 39.9439 65.4901 39.7643C65.1363 38.8925 64.7516 38.0707 64.4272 37.2437C79.2821 41.9656 89.6904 52.744 89.6904 65.2557L89.6853 65.2575ZM22.5075 66.226C22.6921 66.2916 22.8733 66.3227 23.051 66.3486C23.3944 66.3935 23.7309 66.4194 24.0794 66.4245C24.4263 66.4245 24.7817 66.4004 25.1423 66.3089C25.415 66.2381 25.7014 66.1138 25.943 65.9118C26.1397 66.0896 26.3209 66.2743 26.4762 66.4677C26.5228 66.5264 26.5676 66.5834 26.609 66.6438C26.842 66.9822 26.949 67.324 26.911 67.6642C26.8748 68.0077 26.7005 68.3703 26.4675 68.7208C26.2294 69.0712 25.9378 69.4096 25.6238 69.7359C25.3132 70.0657 24.9801 70.3851 24.6385 70.6976L24.1243 71.1534L23.598 71.5884C23.2408 71.8647 22.8785 72.1357 22.5006 72.3653C22.2797 72.5052 22.0519 72.6312 21.8242 72.7434C21.6672 72.8211 21.5101 72.8919 21.3531 72.9541C20.97 73.106 20.5749 73.1975 20.2505 73.1785C20.0814 73.1802 19.9537 73.1267 19.8329 73.0818C19.807 73.0628 19.7812 73.0456 19.7553 73.03L19.7139 73.0076L19.6811 72.9731C19.6586 72.9506 19.6345 72.9299 19.6103 72.9092C19.5948 72.8867 19.5724 72.8677 19.5603 72.8453C19.4999 72.7624 19.4671 72.6537 19.4533 72.5017C19.4395 72.3533 19.4568 72.1668 19.493 71.9734C19.5706 71.585 19.7104 71.1637 19.8812 70.7476C20.0521 70.3316 20.2453 69.9137 20.4438 69.4942C20.6129 69.1472 20.7889 68.7984 20.9649 68.4497C21.0011 68.3806 21.0356 68.3099 21.0701 68.2408C21.3738 67.6521 21.6792 67.0599 21.9812 66.4643C22.0468 66.333 22.1141 66.2036 22.1814 66.0723C22.2883 66.1345 22.3988 66.1846 22.5075 66.2225V66.226ZM22.3004 64.7602C22.3108 64.6722 22.328 64.5824 22.3505 64.4909C22.6248 64.5789 22.9078 64.61 23.1873 64.61C23.579 64.61 23.9621 64.5479 24.2951 64.4961C24.3797 64.4823 24.4608 64.4702 24.5419 64.4581C24.8749 64.408 25.22 64.2751 25.5754 64.0748C25.7376 64.5064 25.7739 64.9501 25.5823 65.273C25.4616 65.475 25.2407 65.6356 24.9681 65.7271C24.6972 65.8203 24.39 65.86 24.0794 65.8617C23.7706 65.8652 23.4496 65.8324 23.1425 65.7754C22.8491 65.7201 22.5782 65.6096 22.4402 65.437C22.3712 65.3524 22.3315 65.2523 22.3056 65.1418C22.2883 65.0244 22.2866 64.8966 22.2987 64.7602H22.3004ZM48.618 31.0905C49.0632 31.0664 49.5066 31.0336 49.9484 30.9973C49.9415 31.7052 49.9553 32.4234 50.0019 33.1606C49.1874 33.2538 47.5827 33.3885 45.9728 33.2607C46.2575 32.5477 46.5456 31.8398 46.8442 31.1441C47.4395 31.1423 48.0296 31.1233 48.618 31.0905ZM47.3635 29.989C47.4412 29.8268 47.5171 29.6645 47.5982 29.5074L47.7621 29.1966L47.9364 28.8703C48.0555 28.651 48.1693 28.4318 48.2815 28.2091C48.3954 27.9881 48.5058 27.7671 48.6128 27.5444C49.0459 26.6552 49.4566 25.7557 49.8414 24.8476C50.1054 24.2209 50.3608 23.5925 50.6075 22.9571C50.5385 23.6633 50.4643 24.3504 50.3918 25.0323C50.2106 26.7277 50.0346 28.3662 49.9725 30.0529C49.5153 30.0564 49.058 30.0529 48.6025 30.0443C48.1883 30.0339 47.7759 30.0167 47.3635 29.9925V29.989ZM47.3791 34.5245C48.492 34.5245 49.4738 34.4382 50.0864 34.3691C50.1002 34.4986 50.1157 34.6264 50.1347 34.7558C50.252 35.5776 50.4729 36.3736 50.7438 37.1315C51.0613 38.0275 51.4513 38.8804 51.8033 39.7126C51.8758 39.8835 51.9465 40.0527 52.0138 40.2219C52.4003 41.2146 52.7299 42.2729 53.0457 43.3209C53.3597 44.3723 53.6599 45.4306 53.924 46.4907C53.955 46.6133 53.9981 46.7842 54.043 46.9258C54.0879 47.0725 54.1396 47.2141 54.1897 47.3539C54.2949 47.6319 54.414 47.8978 54.5365 48.1602C54.5779 48.2465 54.6211 48.3277 54.6642 48.4123C54.8764 48.8421 55.1007 49.2617 55.3354 49.6709C55.5615 50.0628 55.7944 50.4478 56.0308 50.8293C56.3828 51.3991 56.7417 51.9602 57.1006 52.5195C57.4009 52.9857 57.7011 53.4484 57.991 53.9128C58.2843 54.3789 58.5501 54.8313 58.8089 55.3147C59.292 56.2142 59.7562 57.1344 60.2066 58.0581C60.2376 58.1237 60.2704 58.1875 60.3032 58.2514C60.7829 59.2424 61.2453 60.2403 61.6801 61.2451C62.1098 62.2499 62.5291 63.2703 62.8224 64.282C62.8932 64.5323 62.9553 64.7861 62.9846 65.0106C62.9915 65.0675 62.9967 65.1211 62.9984 65.1677C63.0019 65.2143 62.9984 65.254 62.995 65.2989C62.9881 65.3869 62.9674 65.4784 62.9346 65.5717C62.8086 65.9429 62.498 66.3002 62.1236 66.5299C61.7492 66.7664 61.3057 66.8821 60.8743 66.851C60.8036 66.8458 60.7328 66.8372 60.6621 66.8234C60.3567 66.7698 60.0599 66.6473 59.7855 66.4677C59.7372 66.4366 59.6889 66.4021 59.6423 66.3676L59.5043 66.2588L59.3714 66.1397C59.2817 66.062 59.1868 65.9567 59.0936 65.8669C58.9038 65.6839 58.7278 65.4784 58.5449 65.2833C58.1946 64.8845 57.8529 64.4736 57.5234 64.0524C57.5182 64.0455 57.513 64.0386 57.5078 64.0317C56.8366 63.1736 56.2068 62.2776 55.596 61.3677C54.9869 60.4579 54.4088 59.5256 53.8687 58.5743C53.5909 58.0909 53.3252 57.5988 53.0715 57.1033C53.496 57.4037 53.924 57.7007 54.3553 57.9925C54.4761 58.0753 54.6435 58.0598 54.7487 57.951C54.8661 57.8284 54.8644 57.6351 54.7418 57.5159L54.7384 57.5125C53.4443 56.2591 52.1122 55.0574 50.7542 53.8886C50.4091 53.602 50.0622 53.3206 49.7102 53.0409C49.41 52.7975 49.096 52.5523 48.8199 52.3089C48.7785 52.2726 48.7353 52.2364 48.6956 52.1984C48.0658 51.6269 47.4791 50.9726 46.9253 50.2958C46.43 49.6881 45.959 49.058 45.5086 48.4123C44.9513 47.6112 44.4302 46.7842 43.9436 45.9399C43.4156 45.0318 42.9359 44.0961 42.5028 43.1413L42.7288 43.3934C42.853 43.5229 42.9824 43.6455 43.1084 43.7715C43.2344 43.8992 43.3655 44.0184 43.4984 44.134C43.6312 44.2497 43.7624 44.3723 43.9004 44.4828C44.4405 44.9403 45.0134 45.346 45.6018 45.7259C45.8658 45.8933 46.1332 46.0539 46.4041 46.2058C46.7423 46.3957 47.0875 46.5736 47.4481 46.7307C47.5758 46.7859 47.7293 46.7548 47.8225 46.6426C47.9364 46.5062 47.9191 46.3042 47.7846 46.1886L47.7759 46.1816L46.4041 45.0249L46.2281 44.8764C45.7191 44.4379 45.2135 43.9977 44.7321 43.5401C44.2542 43.0826 43.7848 42.6165 43.3638 42.1262C42.9583 41.6531 42.5873 41.1628 42.275 40.6552C42.2698 40.6448 42.2629 40.6362 42.256 40.6259C42.3992 40.4981 42.5235 40.3652 42.6373 40.2305C42.8133 40.0199 42.9652 39.8023 43.1067 39.5848C43.3862 39.148 43.6261 38.7026 43.8504 38.2537C44.2956 37.3559 44.6838 36.4478 45.0582 35.5379C45.1687 35.2721 45.2757 35.0045 45.3844 34.7369C45.4258 34.6333 45.4689 34.5297 45.5103 34.4261C46.147 34.4917 46.7838 34.5193 47.3842 34.5193L47.3791 34.5245ZM54.7919 31.0905C55.2371 31.0664 55.6805 31.0336 56.1223 30.9973C56.1154 31.7052 56.1292 32.4234 56.1757 33.1606C55.3613 33.2538 53.7566 33.3885 52.1467 33.2607C52.4314 32.5477 52.7195 31.8398 53.0181 31.1441C53.6134 31.1423 54.2035 31.1233 54.7919 31.0905ZM53.5374 29.989C53.6151 29.8268 53.691 29.6645 53.7721 29.5074L53.936 29.1966L54.1103 28.8703C54.2294 28.651 54.3432 28.4318 54.4554 28.2091C54.5693 27.9881 54.6797 27.7671 54.7867 27.5444C55.2198 26.6552 55.6305 25.7557 56.0153 24.8476C56.2793 24.2209 56.5347 23.5925 56.7814 22.9571C56.7124 23.6633 56.6382 24.3504 56.5657 25.0323C56.3845 26.7277 56.2085 28.3662 56.1464 30.0529C55.6892 30.0564 55.2319 30.0529 54.7764 30.0443C54.3622 30.0339 53.9498 30.0167 53.5374 29.9925V29.989ZM53.553 34.5245C54.6659 34.5245 55.6477 34.4382 56.2603 34.3691C56.2948 34.7092 56.3483 35.0442 56.4173 35.3739C56.5416 35.9765 56.7158 36.5652 56.9177 37.1297C57.3008 38.2088 57.7891 39.2274 58.1877 40.2219C58.2205 40.3047 58.2498 40.3911 58.2809 40.4757C58.626 41.3941 58.9297 42.361 59.2196 43.3209C59.5336 44.3723 59.8338 45.4306 60.0978 46.4907C60.1289 46.6133 60.172 46.7842 60.2169 46.9258C60.2618 47.0725 60.3135 47.2141 60.3636 47.3539C60.4688 47.6319 60.5879 47.8978 60.7104 48.1602C60.7518 48.2465 60.7949 48.3277 60.8381 48.4123C61.0503 48.8421 61.2746 49.2617 61.5093 49.6709C61.7354 50.0628 61.9683 50.4478 62.2047 50.8293C62.5567 51.3991 62.9156 51.9602 63.2745 52.5195C63.5748 52.9857 63.875 53.4484 64.1649 53.9128C64.4582 54.3789 64.724 54.8313 64.9828 55.3147C65.5004 56.2781 65.9957 57.2622 66.4753 58.2514C66.955 59.2424 67.4175 60.2403 67.8523 61.2451C68.2492 62.174 68.6357 63.1149 68.9239 64.0506C68.948 64.1283 68.9722 64.2043 68.9946 64.282C69.0654 64.5323 69.1275 64.7861 69.1568 65.0106C69.1637 65.0675 69.1689 65.1211 69.1706 65.1677C69.1741 65.2143 69.1706 65.254 69.1672 65.2989C69.1603 65.3869 69.1395 65.4784 69.1068 65.5717C68.9911 65.9118 68.7202 66.2381 68.3889 66.4677C68.3579 66.4884 68.3286 66.5109 68.2975 66.5299C67.9231 66.7664 67.4796 66.8821 67.0482 66.851C66.6686 66.8268 66.2976 66.6887 65.9594 66.4677C65.9111 66.4366 65.8628 66.4021 65.8162 66.3676L65.6782 66.2588L65.5453 66.1397C65.4556 66.062 65.3607 65.9567 65.2675 65.8669C65.0777 65.6839 64.9017 65.4784 64.7188 65.2833C64.4858 65.0192 64.2598 64.7481 64.0355 64.4736C64.0044 64.3286 63.9699 64.1905 63.9319 64.0524C63.925 64.0282 63.9199 64.0023 63.913 63.9764C63.6507 63.0631 63.3194 62.205 62.9691 61.3591C62.8915 61.1709 62.8138 60.9827 62.7344 60.7945C62.2962 59.7655 61.832 58.7521 61.3506 57.7473C60.8691 56.7425 60.3739 55.7463 59.8476 54.757C59.7407 54.555 59.6285 54.3513 59.5129 54.1493C59.3455 53.8576 59.173 53.5658 58.9987 53.2878C58.7036 52.8113 58.4034 52.3452 58.1066 51.8773C57.884 51.5285 57.6631 51.1798 57.444 50.831C57.0782 50.2475 56.721 49.6639 56.3845 49.0735C56.2603 48.8542 56.1395 48.635 56.0222 48.414C55.8876 48.1585 55.7582 47.9029 55.6374 47.6457C55.527 47.4057 55.4217 47.1657 55.332 46.9258C55.2888 46.8066 55.2457 46.6858 55.2112 46.5684C55.1732 46.4441 55.1491 46.3474 55.1128 46.2024C54.8471 45.113 54.5503 44.0374 54.2311 42.9687C54.0827 42.4835 53.9326 42.0001 53.7756 41.5167C53.5857 40.9349 53.3856 40.3548 53.1561 39.7695C52.7264 38.7112 52.2536 37.7306 51.893 36.7223C51.6963 36.1785 51.5358 35.6294 51.422 35.077C51.4547 34.9958 51.4875 34.9147 51.5203 34.8335C51.5755 34.7006 51.629 34.5659 51.6825 34.433C52.3192 34.4986 52.9559 34.5262 53.5564 34.5262L53.553 34.5245ZM73.6604 70.4524C73.738 70.3713 73.814 70.2901 73.8899 70.2055C73.9192 70.2211 73.9503 70.2331 73.9796 70.2452C74.0642 70.2815 74.1487 70.3126 74.2298 70.3333C74.5197 70.4075 74.7751 70.4023 75.0201 70.3937C75.2651 70.3799 75.4981 70.3557 75.7276 70.3229C75.9588 70.2918 76.1762 70.2539 76.4091 70.2107C76.4195 70.209 76.4298 70.2055 76.4402 70.2038C76.6697 70.1624 76.8992 70.0985 77.1287 70.0104C77.3668 69.9155 77.6049 69.7894 77.8206 69.6047C77.9673 69.4821 78.0967 69.3268 78.202 69.1541C78.3452 69.3008 78.4763 69.4545 78.5867 69.6133C78.8093 69.9379 78.9284 70.2849 78.9146 70.6216C78.906 70.96 78.7558 71.3001 78.5367 71.623C78.3193 71.9458 78.0294 72.2462 77.7136 72.5242C77.0821 73.0767 76.3384 73.5773 75.5947 73.983C75.5757 73.9934 75.555 74.0038 75.5343 74.0141C74.8027 74.406 74.0279 74.7082 73.2394 74.8808C73.0409 74.9171 72.8425 74.9516 72.6458 74.9775C72.4387 75.0051 72.2334 75.0224 72.0298 75.0224C71.6364 75.0224 71.2447 74.9792 70.9272 74.867C70.8875 74.8532 70.8461 74.8411 70.8098 74.8256L70.7098 74.7738C70.6563 74.7531 70.6235 74.7254 70.589 74.6995C70.8029 74.5562 71.0135 74.4078 71.2171 74.2541C71.5932 73.971 71.9608 73.6671 72.3041 73.3253C72.6458 72.9834 72.9736 72.6105 73.2376 72.1651C73.4999 71.7265 73.7001 71.1879 73.6759 70.6147C73.6742 70.5612 73.6673 70.5094 73.6621 70.4559L73.6604 70.4524ZM74.1746 67.8575C74.2229 67.8437 74.2695 67.8282 74.3178 67.8126C74.5732 67.7315 74.8182 67.621 75.0443 67.4811C75.3272 67.3068 75.5844 67.091 75.8052 66.8337C75.9536 66.6611 76.0847 66.4677 76.1917 66.2571C76.3643 66.3917 76.5282 66.535 76.6801 66.6887C76.7266 66.7336 76.7681 66.7802 76.8112 66.8285C76.9044 66.9304 76.9941 67.0357 77.0769 67.1428C77.1977 67.2999 77.303 67.4656 77.3841 67.6348C77.548 67.9715 77.6222 68.3271 77.5238 68.6034C77.4772 68.7415 77.3961 68.8692 77.2754 68.9815C77.1546 69.0919 76.9958 69.1817 76.8215 69.2542C76.7422 69.287 76.6576 69.3147 76.5731 69.3423C76.4713 69.3734 76.3677 69.401 76.259 69.4217C76.0537 69.4614 75.8311 69.4942 75.6206 69.5201C75.4083 69.546 75.1978 69.5685 74.9959 69.5667C74.7975 69.5667 74.6008 69.5529 74.4593 69.5063C74.3109 69.4562 74.2557 69.3975 74.2039 69.3008C74.185 69.2681 74.1712 69.2232 74.1591 69.1748C74.1349 69.0816 74.1194 68.9659 74.1125 68.8433C74.1004 68.5395 74.128 68.2011 74.1746 67.8575ZM60.6155 67.9369C60.6431 67.9404 60.6707 67.9456 60.6983 67.949C60.719 68.2753 60.7415 68.6068 60.8001 68.9625C60.8312 69.1299 60.8692 69.3078 60.9451 69.4925C60.795 69.6133 60.6431 69.7342 60.4895 69.8533C60.543 69.2197 60.5844 68.5809 60.6155 67.9369ZM58.4724 74.8221L58.3723 74.7703C58.2964 74.741 58.2584 74.6944 58.2032 74.6616C58.1739 74.6443 58.1687 74.6218 58.1497 74.6063C58.1342 74.5873 58.1118 74.577 58.0997 74.5493C58.0652 74.5027 58.0445 74.4613 58.0289 74.4216C58.0013 74.3439 57.9962 74.2645 58.0238 74.1402C58.0514 74.0193 58.1187 73.8708 58.2084 73.7172C58.3913 73.4064 58.6639 73.087 58.9556 72.7814C59.2472 72.4689 59.5647 72.1651 59.8891 71.8578C60.034 71.7179 60.1824 71.5798 60.3291 71.4382C60.7415 71.0463 61.159 70.6475 61.5507 70.2038C61.6646 70.2642 61.7802 70.3039 61.8907 70.3316C62.1805 70.4058 62.4359 70.4006 62.6809 70.392C62.7431 70.3885 62.8035 70.3816 62.8638 70.3782C63.0416 70.3644 63.2158 70.3471 63.3884 70.3229C63.6196 70.2918 63.8388 70.2539 64.07 70.2107C64.3098 70.1693 64.5514 70.1037 64.7895 70.0104C65.0276 69.9155 65.2675 69.7894 65.4814 69.6047C65.6281 69.4821 65.7575 69.3268 65.8611 69.1541C66.0043 69.3008 66.1354 69.4545 66.2459 69.6133C66.4684 69.9379 66.5875 70.2849 66.5737 70.6216C66.5651 70.96 66.415 71.3001 66.1958 71.623C65.9784 71.9458 65.6885 72.2462 65.3727 72.5242C64.7412 73.0767 63.9975 73.5773 63.2538 73.983C62.957 74.1436 62.6533 74.2904 62.3445 74.4198C61.8734 74.6167 61.3885 74.7738 60.9002 74.8825C60.5275 74.9516 60.1531 75.012 59.7855 75.0207C59.7527 75.0207 59.7217 75.0241 59.6889 75.0241C59.2955 75.0241 58.9038 74.9809 58.5863 74.8687C58.5466 74.8549 58.5052 74.8428 58.469 74.8273L58.4724 74.8221ZM61.8389 67.8575C62.146 67.7747 62.4411 67.6486 62.7085 67.4811C62.8328 67.4052 62.9501 67.3206 63.0623 67.2291C63.2072 67.11 63.3453 66.9805 63.4678 66.8354C63.5644 66.7232 63.6507 66.5989 63.7301 66.4694C63.7732 66.4004 63.8163 66.3313 63.8543 66.2588C63.9406 66.3261 64.0251 66.3969 64.1079 66.4694C64.189 66.5402 64.2667 66.6145 64.3426 66.6887C64.491 66.8303 64.6187 66.9856 64.7395 67.1428C64.8603 67.2999 64.9655 67.4656 65.0466 67.6348C65.2105 67.9715 65.2847 68.3271 65.1864 68.6034C65.1398 68.7415 65.0587 68.8692 64.9379 68.9815C64.8171 69.0919 64.6584 69.1817 64.4841 69.2542C64.3081 69.325 64.12 69.3837 63.9199 69.42C63.7145 69.4597 63.4919 69.4925 63.2814 69.5184C63.1641 69.5322 63.0467 69.5443 62.9329 69.5529C62.8397 69.5598 62.7482 69.565 62.6585 69.565C62.4601 69.565 62.2634 69.5512 62.1219 69.5046C61.9735 69.4545 61.9183 69.3958 61.8665 69.2991C61.813 69.2024 61.7854 69.0298 61.775 68.8416C61.763 68.5378 61.7906 68.1994 61.8372 67.8558L61.8389 67.8575ZM72.4232 69.6116C72.6458 69.9362 72.7649 70.2832 72.7511 70.6199C72.7424 70.9583 72.5923 71.2984 72.3732 71.6212C72.1557 71.9441 71.8659 72.2445 71.5501 72.5225C70.9186 73.0749 70.1749 73.5756 69.4312 73.9813C68.6823 74.3888 67.8868 74.7013 67.0758 74.8808C66.6703 74.9551 66.2631 75.0241 65.8662 75.0241C65.4728 75.0241 65.0811 74.9809 64.7636 74.8687C64.7239 74.8549 64.6825 74.8428 64.6463 74.8273L64.5462 74.7755C64.491 74.7548 64.4565 74.7237 64.4203 74.6961C64.2374 74.8187 64.0527 74.9378 63.8646 75.0517C64.2753 74.8048 64.6687 74.5372 65.0432 74.2558C65.4193 73.9727 65.7869 73.6688 66.1302 73.327C66.4719 72.9851 66.7997 72.6122 67.0638 72.1668C67.326 71.7283 67.5262 71.1896 67.502 70.6164C67.5003 70.5681 67.4951 70.518 67.49 70.4697C67.5711 70.3834 67.6521 70.3005 67.7298 70.2107C67.8437 70.2711 67.9593 70.3108 68.0697 70.3385C68.3596 70.4127 68.615 70.4075 68.86 70.3989C69.105 70.3851 69.338 70.3609 69.5675 70.3281C69.7987 70.297 70.0161 70.259 70.2491 70.2159C70.4889 70.1745 70.7305 70.1088 70.9686 70.0156C71.2067 69.9207 71.4466 69.7946 71.6605 69.6099C71.8072 69.4873 71.9366 69.3319 72.0401 69.1593C72.1834 69.306 72.3145 69.4597 72.4249 69.6185L72.4232 69.6116ZM71.362 68.6051C71.3154 68.7432 71.2343 68.871 71.1135 68.9832C70.9928 69.0937 70.834 69.1835 70.6597 69.256C70.4837 69.3268 70.2956 69.3855 70.0955 69.4217C69.8901 69.4614 69.6676 69.4942 69.457 69.5201C69.2448 69.546 69.0343 69.5685 68.8324 69.5667C68.634 69.5667 68.4373 69.5529 68.2958 69.5063C68.1474 69.4562 68.0922 69.3975 68.0404 69.3008C67.9869 69.2042 67.9593 69.0315 67.9489 68.8433C67.9369 68.5395 67.9645 68.2011 68.0111 67.8575C68.3182 67.7747 68.6133 67.6486 68.8807 67.4811C69.1637 67.3068 69.4208 67.091 69.6417 66.8337C69.7383 66.7215 69.8246 66.5972 69.9039 66.4677C69.9471 66.3987 69.9902 66.3296 70.0282 66.2571C70.1145 66.3244 70.199 66.3952 70.2818 66.4677C70.3629 66.5385 70.4406 66.6127 70.5165 66.687C70.6649 66.8285 70.7926 66.9839 70.9134 67.141C71.0342 67.2981 71.1394 67.4639 71.2205 67.6331C71.3844 67.9697 71.4586 68.3254 71.3603 68.6016L71.362 68.6051ZM64.1528 39.7488C64.2201 39.9076 64.2857 40.0665 64.3495 40.2236C64.5065 40.6259 64.6515 41.0419 64.793 41.4615C65 42.0761 65.1933 42.6993 65.3814 43.3226C65.6126 44.0961 65.8352 44.8713 66.0422 45.6499C66.1164 45.9313 66.1889 46.211 66.2579 46.4924C66.289 46.615 66.3321 46.7859 66.377 46.9275C66.4219 47.0742 66.4736 47.2158 66.5254 47.3557C66.6306 47.6336 66.7497 47.8995 66.8722 48.1619C66.9136 48.2482 66.9568 48.3294 66.9999 48.414C67.2121 48.8439 67.4365 49.2634 67.6711 49.6726C67.8972 50.0645 68.1301 50.4495 68.3665 50.831C68.7185 51.4008 69.0774 51.9619 69.4363 52.5213C69.7366 52.9874 70.0368 53.4501 70.3267 53.9145C70.62 54.3807 70.8858 54.833 71.1446 55.3164C71.6622 56.2798 72.1575 57.2639 72.6372 58.2532C73.1169 59.2441 73.5793 60.242 74.0141 61.2469C74.0797 61.3988 74.1435 61.5507 74.2074 61.7026C74.5663 62.559 74.9062 63.4239 75.1564 64.2837C75.2272 64.5341 75.2893 64.7878 75.3186 65.0123C75.3255 65.0693 75.3307 65.1228 75.3324 65.1694C75.3359 65.216 75.3324 65.2557 75.329 65.3006C75.3221 65.3887 75.3014 65.4802 75.2686 65.5734C75.1426 65.9446 74.832 66.302 74.4576 66.5316C74.4421 66.5419 74.4248 66.5489 74.4093 66.5592C74.0452 66.775 73.6207 66.8838 73.2066 66.8527C72.827 66.8285 72.456 66.6904 72.1178 66.4694C72.0695 66.4384 72.0212 66.4038 71.9746 66.3693L71.8365 66.2605L71.7019 66.1414C71.6122 66.0637 71.5173 65.9584 71.4241 65.8686C71.2343 65.6856 71.0583 65.4802 70.8754 65.2851C70.6494 65.0278 70.4268 64.762 70.2094 64.4944C70.1783 64.3424 70.1403 64.1974 70.1024 64.0541C70.0955 64.0299 70.0903 64.004 70.0834 63.9781C69.7625 62.8611 69.3397 61.8287 68.9049 60.7962C68.4666 59.7673 68.0024 58.7538 67.521 57.749C67.0396 56.7442 66.5444 55.748 66.0181 54.7588C65.7575 54.265 65.4642 53.7609 65.1691 53.2878C64.8741 52.8113 64.5738 52.3452 64.277 51.8773C64.0545 51.5285 63.8336 51.1798 63.6144 50.831C63.2486 50.2475 62.8915 49.6639 62.555 49.0735C62.4307 48.8542 62.31 48.635 62.1926 48.414C62.058 48.1585 61.9286 47.9029 61.8078 47.6457C61.6974 47.4057 61.5921 47.1657 61.5024 46.9258C61.4593 46.8066 61.4161 46.6858 61.3816 46.5684C61.3437 46.4441 61.3195 46.3474 61.2833 46.2024C61.0175 45.113 60.7208 44.0374 60.4015 42.9687C60.2238 42.3834 60.0426 41.8033 59.8494 41.2232C59.6872 40.7398 59.5181 40.2564 59.3283 39.7712C58.8986 38.7129 58.4258 37.7323 58.0652 36.724C57.9306 36.3494 57.8133 35.973 57.7166 35.5949C57.67 35.4154 57.6269 35.2375 57.5907 35.058C57.6752 34.8508 57.7598 34.6419 57.8443 34.4347C58.0255 34.4537 58.2067 34.4692 58.3861 34.4813C58.8399 34.5141 59.2886 34.528 59.7182 34.528C60.8312 34.528 61.813 34.4416 62.4256 34.3726C62.4618 34.7334 62.5205 35.0891 62.5947 35.4395C62.693 35.9074 62.8224 36.3649 62.9708 36.8103C63.0071 36.9191 63.045 37.0262 63.083 37.1332C63.4057 38.0413 63.8008 38.9063 64.158 39.7505L64.1528 39.7488ZM60.9537 31.0923C61.3989 31.0681 61.8423 31.0353 62.2841 30.999C62.2772 31.7069 62.291 32.4251 62.3376 33.1623C61.5231 33.2555 59.9184 33.3902 58.3085 33.2624C58.5932 32.5494 58.8814 31.8416 59.1799 31.1458C59.7752 31.1441 60.3653 31.1251 60.9537 31.0923ZM59.6992 29.9908C59.7769 29.8285 59.8528 29.6662 59.9339 29.5091L60.0978 29.1983L60.2721 28.872C60.3912 28.6528 60.5051 28.4335 60.6172 28.2108C60.7311 27.9898 60.8415 27.7688 60.9485 27.5461C61.3816 26.657 61.7923 25.7575 62.1771 24.8493C62.4411 24.2226 62.6965 23.5942 62.9432 22.9589C62.8742 23.665 62.8 24.3521 62.7275 25.0341C62.5463 26.7295 62.3703 28.3679 62.3082 30.0547C61.851 30.0581 61.3937 30.0547 60.9382 30.046C60.524 30.0357 60.1116 30.0184 59.6992 29.9942V29.9908ZM54.3588 1.54713C55.1888 1.28643 56.0912 1.23464 56.9298 1.40211C57.7718 1.5713 58.5432 1.98047 59.1557 2.57783C59.2282 2.65552 59.311 2.73149 59.3731 2.80745L59.4732 2.9214L59.5647 3.04225C59.6872 3.20282 59.7872 3.38064 59.8787 3.56192C60.053 3.93139 60.1686 4.33884 60.2273 4.76355C60.2842 5.18999 60.2894 5.63197 60.2514 6.07739C60.2117 6.52283 60.1237 6.96826 60.0133 7.40851C59.9046 7.84876 59.7924 8.29591 59.6475 8.73098C59.5025 9.1626 59.3162 9.59767 59.0487 9.91189C58.9556 10.0138 58.8693 10.1225 58.7813 10.2434C58.6967 10.366 58.6087 10.4989 58.5501 10.6715C58.4879 10.839 58.4672 11.0583 58.5173 11.2568C58.5656 11.4554 58.6639 11.6176 58.7606 11.7489C58.9625 12.0078 59.1712 12.1874 59.3766 12.3566C59.5819 12.5223 59.7838 12.6742 59.9857 12.8106C60.0858 12.8814 60.1858 12.9453 60.2859 13.0109C60.3739 13.0713 60.512 13.1559 60.6259 13.2198C60.8622 13.3528 61.0848 13.4632 61.3022 13.572C61.7336 13.7878 62.134 13.9933 62.4687 14.2367C62.8017 14.4836 63.0623 14.7581 63.2297 15.0844C63.3953 15.4107 63.4781 15.7905 63.4764 16.2049C63.4816 16.4103 63.4574 16.6227 63.4298 16.8385C63.3884 17.0681 63.3573 17.296 63.3073 17.5256C63.2124 17.9866 63.1002 18.4476 62.9726 18.9085C62.4635 20.7541 61.7871 22.5756 61.0521 24.3659C60.6828 25.2602 60.2894 26.1459 59.8735 27.0178C59.7717 27.2371 59.6647 27.4529 59.556 27.6687C59.4508 27.8862 59.3403 28.1003 59.2282 28.3109L59.0608 28.632L58.8865 28.9722C58.7744 29.1983 58.6674 29.4262 58.5639 29.6541C58.1273 30.6296 57.7373 31.6102 57.356 32.5891C57.2421 30.0529 57.4871 27.7584 57.7667 25.1515C57.9927 23.0348 58.2274 20.8456 58.3033 18.2318C58.3378 18.0833 58.3758 17.9365 58.4068 17.7881C58.4638 17.5412 58.5017 17.2839 58.5483 17.0319C58.5863 16.7643 58.6191 16.4898 58.6173 16.2049C58.626 15.6421 58.519 15.0343 58.2464 14.4853C57.9755 13.9328 57.5424 13.4805 57.0851 13.1577C56.6278 12.8262 56.1464 12.5966 55.6961 12.3928C55.4717 12.291 55.2509 12.1977 55.0576 12.0993C54.8833 12.013 54.6504 11.8749 54.4313 11.7696C54.2121 11.6591 53.9912 11.5641 53.7859 11.4657C53.584 11.369 53.3856 11.2672 53.2596 11.1619C53.1958 11.1101 53.1578 11.0617 53.1371 11.0255C53.1147 10.9892 53.106 10.953 53.1164 10.8891C53.1285 10.8269 53.163 10.7458 53.2182 10.6681C53.2752 10.5904 53.3493 10.5162 53.427 10.4419C53.8411 10.0517 54.1379 9.61839 54.4174 9.17296C54.6935 8.72581 54.9144 8.2493 55.0749 7.75035C55.3682 6.74727 55.5062 5.68031 55.3786 4.58917C55.3095 4.04534 55.1611 3.49977 54.9196 2.98355C54.7936 2.72804 54.6538 2.4777 54.4796 2.24808L54.3502 2.07543L54.2087 1.91314C54.1362 1.82682 54.0603 1.75258 53.9861 1.67834C54.1068 1.62827 54.2311 1.58338 54.357 1.54368L54.3588 1.54713ZM47.8173 1.68525C47.9416 1.63518 48.0675 1.58684 48.197 1.54713C49.0269 1.28643 49.9294 1.23464 50.768 1.40211C51.61 1.5713 52.3813 1.98047 52.9939 2.57783C53.0664 2.65552 53.1492 2.73149 53.2113 2.80745L53.3114 2.9214L53.4028 3.04225C53.5254 3.20282 53.6254 3.38064 53.7169 3.56192C53.8912 3.93139 54.0068 4.33884 54.0654 4.76355C54.1224 5.18999 54.1276 5.63197 54.0896 6.07739C54.0499 6.52283 53.9619 6.96826 53.8515 7.40851C53.7428 7.84876 53.6306 8.29591 53.4857 8.73098C53.3407 9.1626 53.1544 9.59767 52.8869 9.91189C52.7955 10.0138 52.7075 10.1225 52.6195 10.2434C52.5349 10.366 52.4469 10.4989 52.3865 10.6715C52.3244 10.839 52.3037 11.0583 52.3537 11.2568C52.402 11.4554 52.5004 11.6176 52.597 11.7489C52.7989 12.0078 53.0077 12.1874 53.213 12.3566C53.4184 12.5223 53.6203 12.6742 53.8221 12.8106C53.9222 12.8814 54.0223 12.9453 54.1224 13.0109C54.2104 13.0713 54.3484 13.1559 54.4623 13.2198C54.6987 13.3528 54.9213 13.4632 55.1387 13.572C55.5701 13.7878 55.9704 13.9933 56.3052 14.2367C56.6382 14.4836 56.8987 14.7581 57.0661 15.0844C57.2318 15.4107 57.3146 15.7905 57.3129 16.2049C57.318 16.4103 57.2956 16.6227 57.2663 16.8385C57.2249 17.0681 57.1938 17.296 57.1438 17.5256C57.0489 17.9866 56.9367 18.4476 56.809 18.9085C56.3 20.7541 55.6236 22.5756 54.8885 24.3659C54.5193 25.2602 54.1258 26.1459 53.71 27.0178C53.6082 27.2371 53.5012 27.4529 53.3925 27.6687C53.2872 27.8862 53.1768 28.1003 53.0646 28.3109L52.8973 28.632L52.723 28.9722C52.6108 29.1983 52.5038 29.4262 52.4003 29.6541C51.9603 30.6382 51.5652 31.6292 51.1821 32.6167C51.189 32.7825 51.1994 32.95 51.2097 33.1191C51.0337 30.3689 51.2943 27.9397 51.591 25.1532C51.8171 23.0365 52.0518 20.8474 52.1277 18.2335C52.1622 18.085 52.2002 17.9383 52.2312 17.7898C52.2882 17.5429 52.3261 17.2857 52.3727 17.0336C52.4107 16.766 52.4435 16.4915 52.4417 16.2066C52.4504 15.6438 52.3434 15.0361 52.0707 14.487C51.7998 13.9346 51.3667 13.4822 50.9095 13.1594C50.4522 12.8279 49.9708 12.5983 49.5204 12.3946C49.2961 12.2927 49.0752 12.1995 48.882 12.1011C48.7077 12.0147 48.4748 11.8766 48.2556 11.7713C48.0365 11.6608 47.8156 11.5659 47.6103 11.4674C47.4084 11.3708 47.21 11.2689 47.084 11.1636C47.0202 11.1118 46.9822 11.0634 46.9615 11.0272C46.9391 10.9909 46.9304 10.9547 46.9408 10.8908C46.9529 10.8287 46.9874 10.7475 47.0426 10.6698C47.0995 10.5921 47.1737 10.5179 47.2514 10.4436C47.6655 10.0535 47.9623 9.62012 48.2418 9.17469C48.5179 8.72753 48.7388 8.25103 48.8992 7.75207C49.1926 6.74899 49.3306 5.68203 49.2029 4.5909C49.1339 4.04706 48.9855 3.5015 48.7439 2.98528C48.618 2.72976 48.4782 2.47942 48.3039 2.2498L48.1745 2.07716L48.033 1.91487C47.9381 1.80265 47.8415 1.71287 47.7449 1.61446C47.7673 1.63863 47.7915 1.66108 47.8139 1.68352L47.8173 1.68525ZM36.6429 15.592C36.4117 16.1686 36.2219 16.766 36.0804 17.3823L35.2383 17.2977L34.8156 17.2563C34.6741 17.2425 34.5326 17.2304 34.3946 17.2028L33.5629 17.0578C33.4248 17.0319 33.285 17.0129 33.147 16.9835L32.7398 16.8799C32.4689 16.8092 32.1962 16.7453 31.9288 16.6676L31.142 16.3931L30.9452 16.3257C30.8797 16.3033 30.8193 16.2705 30.7554 16.2429L30.3793 16.0719L30.0014 15.9028L29.6459 15.699C28.6917 15.1656 27.8445 14.4612 27.2043 13.5979C26.873 13.1749 26.6211 12.6967 26.4002 12.2064C26.188 11.7126 26.0413 11.1895 25.943 10.6595C25.8533 10.126 25.8015 9.57178 25.8256 9.04348C25.8498 8.51345 25.9464 7.99723 26.1569 7.56044L26.2363 7.39815L26.3312 7.24967C26.3882 7.14436 26.4744 7.06839 26.5435 6.97516C26.7074 6.81805 26.8782 6.66785 27.0887 6.57462C27.137 6.54354 27.1923 6.52628 27.2457 6.50556C27.301 6.48657 27.3527 6.46067 27.4097 6.44686C27.5253 6.42269 27.6357 6.38298 27.7582 6.37435L27.9377 6.3519L28.1137 6.34845L28.2017 6.345L28.288 6.35536L28.4605 6.37262C28.6848 6.42269 28.9074 6.48657 29.1058 6.6057C29.3008 6.72482 29.4906 6.86467 29.6356 7.04767C29.9427 7.39815 30.1239 7.86084 30.1308 8.32181C30.1377 8.38051 30.1256 8.43576 30.1222 8.49446C30.1187 8.55143 30.1153 8.61013 30.0997 8.66538L30.0618 8.83457L30.0031 9.01931C29.96 9.14361 29.9099 9.26274 29.853 9.37323C29.8168 9.3974 29.7823 9.42503 29.7512 9.4561C29.677 9.53379 29.6287 9.6253 29.6028 9.72198C29.4786 9.84801 29.3388 9.94124 29.1576 9.98786C28.9454 10.0483 28.6865 10.0448 28.4191 10.0172H28.4087C28.2724 10.0017 28.1396 10.0863 28.0981 10.2227C28.0516 10.3763 28.1396 10.5386 28.2949 10.5852C28.4467 10.6301 28.602 10.6715 28.7676 10.6905C28.9316 10.7147 29.1076 10.7182 29.287 10.694C29.4665 10.675 29.6477 10.6128 29.8185 10.5334C29.8564 10.5144 29.8944 10.4937 29.9306 10.4713C31.211 11.6971 32.4603 12.6104 34.5947 12.6104C35.7094 12.6104 37.0691 12.3583 38.7963 11.7748C39.0379 12.0924 39.3088 12.379 39.5953 12.6397C39.9766 12.9885 40.3873 13.2871 40.8135 13.553C40.9101 13.6135 41.0395 13.6065 41.1292 13.5254C41.238 13.4287 41.2483 13.2613 41.1499 13.1525C40.5046 12.4256 39.9024 11.6988 39.5176 10.896C39.1225 10.0984 38.9706 9.24547 38.9171 8.35634C38.8947 7.91091 38.912 7.45339 38.9793 6.99761C39.0483 6.53664 39.1397 6.0515 39.2364 5.59053C39.4348 4.66514 39.685 3.75011 40.1112 3.006C40.3252 2.63653 40.5823 2.31714 40.8963 2.08579C40.9739 2.02709 41.055 1.97357 41.1379 1.92523C41.2224 1.87516 41.3208 1.82509 41.4157 1.7802C41.6089 1.6887 41.8108 1.61101 42.0179 1.54713C42.8479 1.28643 43.7503 1.23464 44.5889 1.40211C45.431 1.5713 46.2023 1.98047 46.8148 2.57783C46.8873 2.65552 46.9701 2.73149 47.0322 2.80745L47.1323 2.9214L47.2238 3.04225C47.3463 3.20282 47.4464 3.38064 47.5378 3.56192C47.7121 3.93139 47.8277 4.33884 47.8864 4.76355C47.9433 5.18999 47.9485 5.63197 47.9105 6.07739C47.8708 6.52283 47.7828 6.96826 47.6724 7.40851C47.5637 7.84876 47.4515 8.29591 47.3066 8.73098C47.1616 9.1626 46.9753 9.59767 46.7078 9.91189C46.6164 10.0138 46.5284 10.1225 46.4404 10.2434C46.3558 10.366 46.2678 10.4989 46.2074 10.6715C46.1453 10.839 46.1246 11.0583 46.1747 11.2568C46.223 11.4554 46.3213 11.6176 46.418 11.7489C46.6198 12.0078 46.8286 12.1874 47.034 12.3566C47.2393 12.5223 47.4412 12.6742 47.6431 12.8106C47.7431 12.8814 47.8432 12.9453 47.9433 13.0109C48.0313 13.0713 48.1693 13.1559 48.2832 13.2198C48.5196 13.3528 48.7422 13.4632 48.9596 13.572C49.391 13.7878 49.7913 13.9933 50.1261 14.2367C50.4591 14.4836 50.7197 14.7581 50.887 15.0844C51.0527 15.4107 51.1355 15.7905 51.1338 16.2049C51.139 16.4103 51.1165 16.6227 51.0872 16.8385C51.0458 17.0681 51.0147 17.296 50.9647 17.5256C50.8698 17.9866 50.7576 18.4476 50.6299 18.9085C50.1209 20.7541 49.4445 22.5756 48.7094 24.3659C48.3402 25.2602 47.9468 26.1459 47.5309 27.0178C47.4291 27.2371 47.3221 27.4529 47.2134 27.6687C47.1082 27.8862 46.9977 28.1003 46.8856 28.3109L46.7182 28.632L46.5439 28.9722C46.4318 29.1983 46.3248 29.4262 46.2212 29.6541C45.6397 30.9524 45.1393 32.2611 44.6372 33.5594C44.4767 33.9738 44.3163 34.3864 44.1523 34.7973C44.1092 34.906 44.0661 35.0148 44.0229 35.1219C43.6606 36.0231 43.2896 36.9174 42.872 37.7772C42.6632 38.2053 42.4424 38.6249 42.1973 39.0133C42.0748 39.2067 41.9471 39.3914 41.8108 39.5572C41.6762 39.7212 41.5313 39.8697 41.3967 39.9594C41.3587 39.9836 41.3449 39.994 41.288 40.0233C41.2397 40.0475 41.1931 40.0734 41.143 40.0958C41.0447 40.1424 40.9446 40.1839 40.8428 40.2236C40.6392 40.3013 40.4287 40.3617 40.2182 40.4066C39.8627 40.4808 39.5004 40.505 39.1604 40.467C39.0949 40.4601 39.0293 40.4549 38.9672 40.4428C38.6083 40.3755 38.3028 40.2219 38.0975 39.9905C38.0768 39.9681 38.0561 39.9456 38.0388 39.9215C37.8301 39.6521 37.7455 39.2671 37.7576 38.851C37.761 38.6439 37.7904 38.4246 37.8335 38.214C37.8766 38.0033 37.9388 37.8013 38.0216 37.6063C38.1855 37.2161 38.4357 36.8518 38.7308 36.4927C39.0258 36.1353 39.3571 35.7814 39.6902 35.424C39.7557 35.3549 39.8196 35.2841 39.8851 35.2134C40.1543 34.9233 40.4235 34.6298 40.6858 34.3294C40.8256 34.1688 40.9619 34.0048 41.0982 33.8425C41.181 33.7441 41.2638 33.6492 41.3467 33.5508C41.357 33.5404 41.3656 33.5283 41.3743 33.5162C41.464 33.4075 41.5537 33.2987 41.6434 33.1899C41.9661 32.7928 42.256 32.3543 42.5062 31.9175C42.7219 31.5429 42.9169 31.1596 43.0998 30.7746C43.1446 30.7124 43.1792 30.6417 43.1981 30.564C43.4069 30.1134 43.6036 29.6576 43.7831 29.1966C44.5078 27.3441 45.0634 25.4398 45.4758 23.5044C45.6777 22.5359 45.8537 21.5604 45.9572 20.5729C46.0642 19.5871 46.1108 18.5874 46.0349 17.5861C46.0228 17.4341 45.9037 17.3081 45.7467 17.2926C45.5724 17.277 45.4171 17.4065 45.4016 17.5809V17.5861C45.3153 18.5408 45.1773 19.4938 45.0168 20.4434C44.8546 21.3929 44.6752 22.3425 44.4664 23.2852C44.0419 25.1687 43.5381 27.042 42.8651 28.8427C42.7443 29.1655 42.6149 29.4849 42.482 29.8026C41.6331 29.7663 40.7841 29.718 39.9386 29.6541C39.1898 29.5971 38.4409 29.5281 37.6989 29.44C37.6989 29.0412 37.7006 28.6441 37.7024 28.2453C37.7024 27.5426 37.7058 26.8382 37.7179 26.1373L37.7283 25.6124C37.7283 25.4346 37.7317 25.2413 37.7248 25.0565C37.7145 24.6819 37.6851 24.3072 37.6316 23.9395C37.5315 23.2006 37.3504 22.5048 37.221 21.8401C37.1554 21.5069 37.1053 21.1771 37.0708 20.8474C37.0346 20.5107 37.0087 20.1585 36.9828 19.8201C36.9345 19.1382 36.9086 18.47 36.9345 17.7863C36.9569 17.1044 37.026 16.4103 37.0829 15.7042C37.0915 15.6041 37.0346 15.5074 36.938 15.4677C36.8189 15.4193 36.6843 15.478 36.636 15.5972L36.6429 15.592ZM40.0077 32.5321C39.7126 32.5304 39.4175 32.5183 39.1276 32.4976C38.8378 32.4734 38.5496 32.4441 38.2752 32.3923C38.1407 32.3647 38.0043 32.3353 37.8835 32.2956C37.8301 32.2801 37.7817 32.2611 37.7352 32.2421C37.7196 31.6292 37.7144 31.0094 37.711 30.3913C38.4202 30.5122 39.1294 30.614 39.8386 30.7073C40.5443 30.8005 41.25 30.8782 41.9575 30.9507C41.8729 31.1164 41.7867 31.2805 41.6952 31.441C41.4761 31.826 41.2431 32.1834 40.9739 32.5252C40.9515 32.5235 40.9308 32.5201 40.9084 32.5201H40.898C40.6012 32.527 40.3027 32.5339 40.0077 32.5304V32.5321ZM37.5609 33.1071C37.5609 33.1071 37.5661 33.1105 37.5695 33.1105C37.7317 33.1813 37.8904 33.2348 38.0492 33.2849C38.3667 33.3798 38.6807 33.4455 38.9948 33.5059C39.3088 33.5611 39.6211 33.606 39.9335 33.6423C39.9645 33.6457 39.9939 33.6474 40.0249 33.6509C40.0111 33.6664 39.9973 33.682 39.9835 33.6975C39.8886 33.8028 39.792 33.9081 39.6953 34.0135C39.4658 34.2638 39.2329 34.5141 38.9965 34.7645C38.7877 34.9855 38.5755 35.2082 38.3667 35.4395C38.239 35.5794 38.113 35.7209 37.9888 35.8694C37.661 36.2613 37.34 36.705 37.1209 37.2161C37.0104 37.4699 36.9276 37.7375 36.8689 38.0051C36.812 38.2727 36.7723 38.5403 36.7654 38.8217C36.7568 39.1014 36.7758 39.3932 36.8465 39.6867C36.9052 39.9249 37.0018 40.1649 37.1399 40.3841C37.1709 40.4325 37.2002 40.4826 37.2348 40.5292C37.4246 40.7847 37.673 40.997 37.9405 41.1473C38.1148 41.2457 38.2959 41.3182 38.4789 41.3751C38.5789 41.4062 38.679 41.4321 38.7791 41.4528C39.3485 41.5651 39.9076 41.5323 40.439 41.4269C40.4649 41.4218 40.4908 41.4131 40.5184 41.4079C40.5219 41.4666 40.5305 41.5271 40.5529 41.5858C40.6392 41.8154 40.7289 42.0433 40.8204 42.2712C40.8325 42.3005 40.8428 42.3282 40.8532 42.3575C40.7772 42.4162 40.6892 42.487 40.5961 42.5647C39.7281 43.276 38.1476 44.709 36.9069 46.6236C36.4738 47.2935 35.8371 48.1136 35.1003 49.0631C34.6741 49.6139 34.2151 50.2043 33.7475 50.8293C32.6155 52.34 31.4198 54.0578 30.4345 55.9345C28.2776 60.0401 25.7842 63.0545 24.3676 63.2634C24.283 63.2755 24.195 63.2893 24.107 63.3048C23.4686 63.4067 22.8077 63.5137 22.4281 63.1788C22.1555 62.9371 21.8397 62.3121 21.8949 60.7065C22.0226 56.9376 23.8758 54.3202 24.9819 52.7561C25.4874 52.0413 25.7031 51.4388 25.8308 50.831C25.8895 50.5531 25.9309 50.2734 25.974 49.9833C26.0724 49.3204 26.1828 48.5694 26.5383 47.5076C26.9144 46.3836 28.4243 44.0805 30.3724 41.5012C30.8814 40.8279 31.418 40.1373 31.9754 39.4432C32.8623 38.3366 33.7941 37.223 34.7207 36.1681C35.19 35.6329 35.6594 35.1132 36.1201 34.616C36.6136 34.0842 37.0967 33.5784 37.5643 33.1122L37.5609 33.1071Z" fill="black"/>
<path d="M13.2881 11.4861H10.1132V7.96928H12.8912V6.83498H10.1132V3.77049H13.0759V2.6362H9.84397L10.6239 1.95597C9.99064 1.21877 9.32977 0.593782 8.63956 0.0844727L7.73194 0.949436C8.31862 1.37415 8.91392 1.93698 9.51785 2.63793H5.86148V3.77222H8.86733V6.83498H6.03231V7.96928H8.86733V11.4861H5.69238V12.6774H13.2898V11.4861H13.2881Z" fill="black"/>
<path d="M5.06621 12.9606V8.36475H0.474609V13.1454H1.72216V12.3943H3.82038V12.9623H5.06793L5.06621 12.9606ZM1.72043 11.3291V9.4576H3.81866V11.3291H1.72216H1.72043Z" fill="black"/>
<path d="M4.78295 6.26709H0.757324V7.34441H4.78295V6.26709Z" fill="black"/>
<path d="M4.78295 4.33887H0.757324V5.41619H4.78295V4.33887Z" fill="black"/>
<path d="M4.72601 0.437012H0.757324V1.50052H4.72601V0.437012Z" fill="black"/>
<path d="M5.23677 2.29639H0.246582V3.46003H5.23677V2.29639Z" fill="black"/>
<path d="M1.86365 34.4744H3.1112V28.2332H4.69868V33.9063H5.94623V28.2332H7.66139V33.9063H8.89513V28.2332H10.7104V32.6149C10.7104 32.9551 10.5637 33.1346 10.2704 33.1536L9.23506 33.1812L9.74581 34.4295C10.1893 34.4295 10.6396 34.3535 11.0917 34.2033C11.668 34.0237 11.9562 33.6215 11.9562 32.9982V28.2332H13.3176V26.9849H11.9562V21.8228H1.86365V26.9849H0.219238V28.2332H1.86365V34.4744ZM8.89513 22.957H10.7104V26.9849H8.89513V22.957ZM5.94623 22.957H7.66139V26.9849H5.94623V22.957ZM3.1112 22.957H4.69868V26.9849H3.1112V22.957Z" fill="black"/>
<path d="M85.5305 4.2315H82.837V13.1384H84.1414V7.99003L84.9921 8.65645C85.5408 8.41992 85.9705 8.15577 86.2828 7.86227C86.5951 7.56877 86.8643 7.18549 87.0904 6.71417C87.2612 6.35506 87.3785 5.90618 87.4441 5.36752H88.4501V7.29599C88.4501 7.91061 88.8849 8.21793 89.7545 8.21793H90.7191C91.059 8.21793 91.342 8.10916 91.5698 7.89162C91.7769 7.71207 91.9287 7.30635 92.0236 6.67273L90.8899 6.34643C90.833 6.76251 90.7761 7.00421 90.7191 7.06982C90.6535 7.14579 90.5586 7.18377 90.4361 7.18377H89.9823C89.7183 7.18377 89.5854 7.01285 89.5854 6.67273V5.36752H92.1375V11.3238C92.1375 11.6743 91.9856 11.8573 91.6837 11.8763L90.6622 11.9039V8.5425H85.672V12.472H86.8626V11.9471H90.619L91.116 13.1953C91.5888 13.1953 92.0564 13.1246 92.5188 12.983C93.1331 12.7844 93.4403 12.3632 93.4403 11.7209V4.2315H90.7467L91.342 2.41525H93.7232V1.33793H88.6761V0.657698C88.8279 0.505769 88.9021 0.397001 88.9021 0.331395C88.9021 0.208815 88.7883 0.143209 88.5622 0.13285L87.3716 0.0327148V1.33793H82.5522V2.41525H85.0611C85.232 2.98326 85.3873 3.58752 85.5288 4.2315H85.5305ZM89.4716 10.8698H86.8626V9.62155H89.4716V10.8698ZM90.0237 2.41697L89.4284 4.23322H86.778C86.6745 3.64622 86.5227 3.04196 86.3242 2.41697H90.0237ZM85.9688 6.33089C85.7893 6.67101 85.5391 6.95933 85.2182 7.19585C84.9818 7.38577 84.6229 7.56532 84.1414 7.73451V5.36579H86.2966C86.231 5.74389 86.1223 6.06501 85.9705 6.33089H85.9688Z" fill="black"/>
<path d="M86.041 30.9712H89.8406V32.9428C89.8216 33.3589 89.6284 33.5661 89.2591 33.5661H88.1962L88.7069 34.8143C89.7267 34.8143 90.3703 34.6779 90.6343 34.4034C90.9363 34.1479 91.0882 33.737 91.0882 33.169V30.9712H94.7738V29.8369H86.0427V30.9712H86.041Z" fill="black"/>
<path d="M88.6502 32.2196C88.6502 32.154 88.6174 32.0919 88.5501 32.0349L87.6856 31.4116C87.0713 32.1868 86.2966 32.7928 85.3613 33.2279L86.3259 34.136C86.9868 33.7389 87.6873 33.1519 88.4241 32.3767C88.576 32.3387 88.6502 32.2869 88.6502 32.2213V32.2196Z" fill="black"/>
<path d="M91.9941 32.3179C92.8069 32.8566 93.4867 33.5006 94.0354 34.2464L95 33.2261C94.3477 32.5735 93.6109 31.9882 92.7879 31.4668L91.9941 32.3179Z" fill="black"/>
<path d="M82.5971 28.0914C82.2278 28.8959 81.7896 29.6469 81.2788 30.3462L82.4694 31.1265C82.8473 30.36 83.1872 29.5244 83.4909 28.6162V34.8143H84.7385V27.7789C85.0215 28.3089 85.3251 28.801 85.6461 29.2533L86.4968 28.3452C85.8255 27.7029 85.2406 26.8932 84.7385 25.9195V25.5794H85.986V24.3881H84.7385V22.047C84.8903 21.9244 84.9645 21.8295 84.9645 21.7639C84.9645 21.6603 84.8558 21.5981 84.6384 21.5791L83.4909 21.479V24.3864H81.7326V25.5777H83.4909V25.7054C83.132 26.7637 82.8335 27.5579 82.5971 28.0879V28.0914Z" fill="black"/>
<path d="M93.6953 28.064H87.3022V29.0998H93.6953V28.064Z" fill="black"/>
<path d="M86.2671 23.1417H88.8761V24.036H86.7209V27.3405H94.2614V24.036H92.0493V23.1417H94.6583V22.0488H86.2671V23.1417ZM88.8761 26.3046H87.9115V25.0563H88.8761V26.3046ZM92.051 25.0563H93.0708V26.3046H92.051V25.0563ZM89.9528 23.1417H90.9726V24.036H89.9528V23.1417ZM89.9528 25.0563H90.9726V26.3046H89.9528V25.0563Z" fill="black"/>
<path d="M84.6003 115.838C84.7435 116.014 84.885 116.154 84.9851 116.318C85.2767 116.794 85.199 117.231 84.7625 117.583C84.388 117.884 83.948 118.039 83.4735 118.091C82.9766 118.144 82.4779 118.189 81.993 118.236C82.4192 118.643 82.8333 119.042 83.2509 119.439C83.401 119.581 83.4528 119.729 83.3752 119.938C83.2941 120.157 83.2526 120.394 83.1871 120.651C83.8963 120.504 84.5744 120.359 85.256 120.228C85.5976 120.163 85.9444 120.113 86.2913 120.069C86.3776 120.059 86.4776 120.083 86.5587 120.119C87.1247 120.377 87.6872 120.639 88.2463 120.912C88.3274 120.952 88.4033 121.045 88.4361 121.131C88.4879 121.264 88.5103 121.411 88.5293 121.552C88.6207 122.229 88.4326 122.592 87.8184 122.899C87.104 123.258 86.3275 123.353 85.5424 123.417C84.6503 123.491 83.7617 123.583 82.8333 123.671C82.7868 124.31 82.7419 124.931 82.6936 125.585C83.2561 125.544 83.7807 125.504 84.3052 125.468C85.6149 125.377 86.9245 125.28 88.2342 125.202C89.0849 125.152 89.9373 125.119 90.7897 125.102C91.6473 125.085 92.5083 125.851 92.7447 126.811C92.8793 127.362 92.6308 128.002 92.1339 128.279C91.97 128.37 91.737 128.42 91.5558 128.386C89.6681 128.025 87.7718 127.726 85.8461 127.799C84.3656 127.856 82.8851 127.977 81.4115 128.122C79.2581 128.336 77.1357 128.759 75.015 129.175C74.2524 129.325 73.4759 129.368 72.6977 129.259C71.7607 129.128 71.1775 128.458 71.231 127.519C71.2379 127.398 71.3949 127.219 71.5174 127.182C71.9057 127.065 72.3077 126.989 72.708 126.92C73.4207 126.799 74.135 126.689 74.8511 126.583C76.2488 126.378 77.6482 126.179 79.0493 125.981C79.4617 125.922 79.8741 125.877 80.2813 125.825V124.068C79.9017 124.118 79.5514 124.168 79.1994 124.211C78.2607 124.325 77.329 124.349 76.4317 123.975C75.4154 123.55 74.8546 122.778 74.6768 121.659C76.5594 121.703 78.3936 121.442 80.2347 121.16C80.2779 120.306 80.3417 119.462 79.7153 118.707C79.5946 118.692 79.4703 118.73 79.3996 118.961C79.2529 119.443 78.7525 119.655 78.2072 119.5C77.3065 119.242 76.87 118.564 76.7302 117.714C76.5853 116.836 76.2194 116.043 75.933 115.218C75.8726 115.044 75.7466 114.893 75.6725 114.722C75.4878 114.293 75.4878 113.868 75.7242 113.45C75.8623 113.205 76.002 112.96 76.1107 112.702C76.2056 112.478 76.3316 112.462 76.5421 112.538C77.2737 112.799 77.8259 113.284 78.3211 113.868C78.8647 114.508 78.9837 115.308 79.2149 116.067C79.246 116.173 79.2684 116.28 79.3012 116.413C79.8568 116.3 80.4004 116.169 80.9525 116.086C81.2562 116.041 81.4236 115.898 81.5616 115.636C81.9205 114.959 82.3088 114.296 82.6832 113.628C82.7246 113.555 82.7609 113.481 82.8195 113.365C82.2605 113.471 81.7445 113.569 81.2286 113.666C80.7179 113.763 80.2088 113.863 79.6981 113.951C79.1528 114.046 78.2642 113.371 78.2297 112.816C78.2228 112.711 78.3263 112.556 78.4229 112.495C78.7042 112.323 78.9992 112.162 79.3047 112.04C81.1648 111.297 83.0939 110.771 85.0265 110.258C85.3733 110.166 85.6701 110.36 85.9272 110.584C86.1843 110.809 86.3172 110.817 86.5898 110.629C87.3956 110.071 88.2049 109.517 89.0124 108.961C89.0866 108.909 89.1608 108.858 89.254 108.79C88.9762 108.552 88.6587 108.545 88.3636 108.53C86.3137 108.421 84.3052 108.657 82.326 109.222C80.1553 109.842 78.0468 110.634 75.9434 111.444C75.8433 111.484 75.7156 111.478 75.6052 111.465C74.984 111.387 74.3645 111.301 73.7416 111.218C73.7416 111.696 73.714 112.112 73.7468 112.525C73.8434 113.73 73.6916 114.9 73.3309 116.052C73.0894 116.825 72.4872 117.083 71.809 117.083C71.7469 117.083 71.6796 117.045 71.6244 117.008C70.6426 116.371 70.1387 115.109 70.3061 113.901C70.5822 111.917 71.6624 110.406 72.9151 108.966C73.2999 108.523 73.3085 108.53 73.6985 108.388C73.6501 108.954 73.6018 109.521 73.5483 110.135C73.6778 110.095 73.7347 110.087 73.783 110.063C75.6604 109.129 77.6533 108.519 79.6808 108.024C79.9586 107.956 80.019 107.837 80.0294 107.582C80.0708 106.553 80.1329 105.524 80.1881 104.493C80.1916 104.434 80.1881 104.376 80.1881 104.253C79.7671 104.521 79.3737 104.756 78.9975 105.013C78.3815 105.436 77.8328 105.933 77.3893 106.537C77.1271 106.895 76.8976 107.259 76.8544 107.727C76.8147 108.158 76.5887 108.288 76.1711 108.212C75.9209 108.167 75.6656 108.141 75.4154 108.098C74.751 107.986 74.3162 107.495 74.1488 106.729C73.9745 105.924 74.1954 105.185 74.5302 104.481C74.7735 103.968 75.0513 103.45 75.4188 103.027C75.7743 102.62 76.266 102.332 76.6974 101.99C76.7302 102.002 76.763 102.016 76.7975 102.028C76.8527 102.216 76.9338 102.402 76.9597 102.594C77.0477 103.285 77.1184 103.979 77.1978 104.704C77.4601 104.579 77.7189 104.455 77.9777 104.334C78.6956 104.001 79.4116 103.664 80.1346 103.34C80.302 103.264 80.3952 103.164 80.3866 102.977C80.3538 102.23 80.3676 101.475 80.271 100.736C80.2295 100.417 79.9586 100.127 79.774 99.7902C79.9293 99.5485 80.2451 99.5433 80.5263 99.4673C81.0647 99.3223 81.5599 99.4363 82.0016 99.7591C82.4278 100.072 82.8782 100.365 83.2406 100.741C83.4183 100.926 83.4355 101.278 83.4908 101.562C83.5132 101.677 83.4476 101.808 83.4131 101.981C83.5236 101.948 83.6133 101.924 83.703 101.893C84.8815 101.494 86.0704 101.151 87.3059 100.971C87.8719 100.888 88.3343 100.99 88.6483 101.508C88.776 101.719 88.9175 101.922 89.0607 102.123C89.1677 102.273 89.2781 102.425 89.4093 102.553C90.0529 103.183 89.7941 104.398 88.9451 104.688C88.8864 104.709 88.814 104.695 88.7484 104.685C88.2791 104.604 87.8097 104.457 87.3404 104.452C86.8555 104.446 86.3568 104.529 85.8875 104.657C84.8142 104.949 83.8272 105.458 82.8471 105.973C82.7885 106.004 82.7126 106.076 82.7108 106.132C82.6988 106.529 82.7039 106.926 82.7039 107.352C83.2475 107.266 83.7237 107.186 84.2017 107.116C85.6114 106.907 87.0281 106.765 88.4551 106.793C89.109 106.805 89.7647 106.826 90.4153 106.886C90.9157 106.933 91.3591 107.16 91.7629 107.461C91.932 107.587 92.1373 107.677 92.2754 107.827C92.4255 107.991 92.5739 108.193 92.6222 108.404C92.7413 108.906 92.8206 109.42 92.881 109.935C92.9276 110.332 92.9328 110.734 92.9397 111.135C92.9414 111.247 92.9086 111.377 92.8465 111.468C92.6118 111.815 91.8733 112.095 91.4782 111.955C91.0554 111.805 90.6482 111.61 90.2479 111.406C90.0598 111.311 89.8942 111.235 89.6733 111.266C88.8571 111.383 88.0375 111.484 87.2196 111.592C87.1454 111.603 87.0764 111.634 87.0125 111.653C87.0056 111.687 86.9953 111.705 87.0005 111.718C87.1834 112.371 86.8348 112.847 86.4725 113.322C85.9134 114.054 85.3543 114.786 84.7987 115.52C84.7228 115.622 84.6624 115.734 84.5951 115.839L84.6003 115.838ZM86.2481 102.294C85.9824 102.107 85.7063 102.117 85.4492 102.197C84.6796 102.435 83.9152 102.694 83.156 102.963C83.068 102.995 82.9817 103.143 82.9679 103.247C82.9144 103.616 82.892 103.991 82.8592 104.364C82.8333 104.652 82.8092 104.94 82.7816 105.273C84.1033 104.424 85.2353 103.442 86.2481 102.292V102.294Z" fill="black"/>
<path d="M4.95751 115.025C4.80567 115.08 4.72112 115.109 4.63657 115.142C3.64612 115.529 2.65223 115.907 1.66868 116.311C1.30805 116.459 0.988829 116.413 0.667883 116.238C0.0397949 115.897 -0.0913442 115.584 0.0535991 114.887C0.203719 114.167 0.564352 113.58 1.1424 113.074C1.09581 113.414 0.831807 113.716 1.09754 114.041C2.06728 113.524 3.12502 113.298 4.16378 113.017C4.42433 112.946 4.67453 112.83 4.92128 112.72C4.97132 112.697 5.01618 112.608 5.02136 112.547C5.10073 111.169 5.17493 109.79 5.25085 108.412C5.26638 108.119 5.28881 107.825 5.27673 107.525C4.97132 108.019 4.69696 108.526 4.63484 109.105C4.54857 109.911 4.26903 110.639 3.85491 111.325C3.81867 111.385 3.71169 111.416 3.63232 111.435C3.5702 111.449 3.49428 111.434 3.43216 111.409C2.61426 111.099 1.82915 110.733 1.33221 109.963C1.00436 109.455 0.669608 108.946 0.402153 108.407C0.277916 108.155 0.286544 107.83 0.265838 107.537C0.245131 107.262 0.176111 106.955 0.522939 106.802C0.529841 106.798 0.533292 106.788 0.538469 106.783C0.662706 106.651 0.77659 106.425 0.916357 106.406C1.25973 106.36 1.62209 106.327 1.93959 106.582C2.48313 107.017 3.04737 107.428 3.67718 107.906C4.18276 107.559 4.76598 107.166 5.33885 106.758C5.3958 106.719 5.40615 106.591 5.40787 106.503C5.42686 105.659 5.42513 104.814 5.46137 103.97C5.47344 103.67 5.54419 103.366 5.63909 103.079C5.69258 102.919 5.68396 102.813 5.58388 102.691C5.47689 102.558 5.38199 102.416 5.28191 102.278C5.0852 102.007 5.08003 101.81 5.30262 101.546C5.66152 101.121 6.14294 100.911 6.66578 100.736C7.39049 100.495 8.59145 101.434 8.6691 102.276C8.676 102.349 8.64667 102.425 8.62769 102.499C8.46721 103.133 8.30502 103.765 8.19458 104.426C8.48792 104.215 8.77436 103.996 9.0746 103.796C9.67162 103.395 10.6155 103.478 11.1245 103.986C11.3229 104.182 11.4972 104.407 11.6646 104.633C11.8302 104.859 11.9735 105.103 12.1357 105.355C12.567 104.859 13.1606 104.809 13.7542 104.735C14.0786 104.695 14.4013 104.616 14.7119 104.516C15.0673 104.402 15.4124 104.25 15.7558 104.101C15.8283 104.07 15.9301 103.982 15.9283 103.922C15.9007 102.919 15.899 101.91 15.8007 100.913C15.7627 100.519 15.5021 100.146 15.3261 99.7247C15.5418 99.4899 15.8973 99.4933 16.2182 99.4122C16.6962 99.2896 17.1138 99.4381 17.4951 99.704C17.9075 99.9906 18.3113 100.293 18.703 100.607C18.9687 100.819 18.9998 101.448 18.8307 101.878C18.6961 102.219 18.5994 102.577 18.4856 102.926C18.5114 102.945 18.5373 102.965 18.5632 102.984C18.91 102.834 19.2707 102.711 19.5968 102.525C19.9195 102.342 20.218 102.375 20.551 102.461C21.2291 102.637 21.7243 103.036 22.0229 103.658C22.0798 103.777 22.0418 104.015 21.9538 104.113C21.7606 104.331 21.5294 104.545 21.2705 104.671C20.8064 104.895 20.3112 105.061 19.8246 105.239C19.3846 105.398 18.9411 105.545 18.4942 105.684C18.3441 105.731 18.2958 105.809 18.3027 105.959C18.313 106.189 18.3061 106.418 18.3061 106.665C18.948 106.265 19.6054 106.346 20.2594 106.586C20.4699 106.663 20.658 106.81 20.8478 106.938C21.0514 107.076 21.1791 107.25 21.0531 107.513C21.0324 107.556 21.0186 107.625 21.0393 107.658C21.2119 107.927 21.01 108.083 20.834 108.165C20.3129 108.407 19.7745 108.616 19.2362 108.823C18.9359 108.937 18.6219 109.017 18.3182 109.122C18.2699 109.139 18.2112 109.212 18.2112 109.258C18.2026 109.657 18.206 110.056 18.206 110.491C18.7806 110.344 19.2776 110.196 19.7831 110.09C21.1929 109.797 22.6078 109.541 24.0469 109.433C24.5093 109.398 24.8872 109.516 25.2133 109.826C25.5084 110.109 25.8518 110.363 26.0744 110.696C26.4574 111.268 26.5454 111.936 25.6085 112.105C25.2392 112.173 24.8458 112.124 24.4662 112.091C24.3523 112.081 24.2591 111.914 24.1401 111.879C23.8554 111.798 23.562 111.731 23.267 111.701C21.4327 111.522 19.6434 111.672 17.873 112.257C15.8524 112.924 13.9285 113.801 11.9959 114.669C11.9131 114.705 11.8423 114.774 11.7768 114.837C11.5524 115.049 11.3212 115.201 10.9796 115.146C10.876 115.128 10.7432 115.268 10.6293 115.344C10.5741 115.38 10.5327 115.437 10.4843 115.486C9.39036 116.561 8.29294 117.637 7.20586 118.718C7.13857 118.785 7.09715 118.911 7.0937 119.009C7.05919 120.845 7.14892 122.675 7.337 124.5C7.41983 125.304 7.51128 126.109 7.59583 126.913C7.66485 127.564 7.30594 128.21 6.66923 128.474C6.3431 128.609 5.98247 128.662 5.63564 128.74C5.40097 128.793 5.20944 128.709 5.03689 128.538C4.71939 128.22 4.50543 127.887 4.52441 127.398C4.59343 125.687 4.62794 123.975 4.67626 122.221C4.61931 122.298 4.571 122.341 4.54684 122.398C4.30009 122.97 3.86181 123.388 3.43561 123.818C3.23027 124.023 3.01976 124.223 2.8265 124.439C2.42618 124.89 1.87229 124.945 1.37707 124.652C0.709295 124.253 0.355564 123.619 0.0812073 122.93C0.0484225 122.847 0.0812073 122.728 0.105365 122.632C0.293446 121.91 0.698942 121.309 1.22177 120.796C2.2174 119.821 3.03011 118.707 3.73067 117.513C4.13617 116.824 4.47955 116.099 4.84536 115.387C4.89194 115.296 4.9092 115.187 4.95751 115.026V115.025ZM15.5073 109.918C15.0017 110.089 14.5376 109.999 14.1148 109.718C13.6886 109.434 13.4298 109.027 13.2486 108.476C14.0475 108.276 14.8171 108.083 15.5901 107.889C15.6126 107.539 15.635 107.2 15.6557 106.874C15.2002 106.936 14.7653 107.024 14.3288 107.047C13.4867 107.092 12.7085 106.948 12.2202 106.147C12.2168 106.142 12.2047 106.142 12.1961 106.14C12.0511 106.603 11.7405 106.957 11.3937 107.266C10.1668 108.362 8.92275 109.438 7.68728 110.524C7.5941 110.605 7.46469 110.696 7.44571 110.8C7.38877 111.102 7.38014 111.411 7.3439 111.8C7.60273 111.63 7.79599 111.499 7.99442 111.377C8.24635 111.221 8.49482 111.054 8.764 110.935C8.88651 110.881 9.06769 110.892 9.19883 110.938C9.66472 111.102 10.1082 111.33 10.581 111.461C10.9934 111.577 11.1038 111.85 11.1262 112.207C11.1418 112.454 11.1297 112.703 11.1297 112.941C12.5412 112.4 14.0113 111.838 15.5056 111.266V109.918H15.5073ZM7.32492 114.17C7.4043 114.4 7.46814 114.591 7.53716 114.783C7.61481 115.002 7.66485 115.204 7.48022 115.413C7.39049 115.515 7.35943 115.674 7.32147 115.812C7.18688 116.299 7.11441 116.793 7.12476 117.338C8.11866 116.642 9.07805 115.971 10.0754 115.273C9.43178 114.89 9.03663 114.41 9.26095 113.626C8.53969 113.663 7.96164 113.972 7.32492 114.17ZM7.65104 108.625C7.71316 108.533 7.73905 108.502 7.75803 108.466C8.20839 107.561 8.65184 106.651 9.10911 105.75C9.22817 105.514 9.16605 105.318 9.03318 105.135C8.88824 104.937 8.676 104.876 8.44133 104.951C8.22219 105.022 7.98925 105.051 7.99615 105.396C8.00305 105.75 7.91505 106.104 7.87709 106.46C7.80116 107.157 7.73042 107.855 7.65104 108.623V108.625Z" fill="black"/>
<path d="M47.6276 105.025C47.5793 104.4 47.5241 103.789 47.4896 103.179C47.4637 102.739 47.4603 102.297 47.462 101.857C47.462 101.77 47.5362 101.682 47.581 101.584C48.5939 102.376 49.1668 103.414 49.5706 104.56C49.9536 104.536 50.2332 104.419 50.3608 104.018C50.4678 103.682 50.6473 103.367 50.8043 103.02C50.9596 103.153 51.1028 103.262 51.2236 103.392C51.265 103.436 51.2736 103.543 51.2529 103.607C51.1943 103.789 51.1132 103.963 51.0252 104.182C51.6636 103.984 52.2537 103.802 52.8421 103.616C52.8835 103.602 52.9353 103.542 52.9388 103.499C52.9957 103.008 53.0613 102.518 53.0837 102.026C53.0923 101.852 52.9854 101.674 52.9336 101.506C52.5833 101.615 52.2589 101.717 51.9328 101.819C51.9173 101.791 51.9017 101.765 51.8862 101.738C52.1226 101.377 52.3573 101.016 52.5937 100.657C52.6782 100.529 52.7835 100.41 52.8456 100.272C52.9888 99.9542 53.2269 99.8368 53.5565 99.9058C53.6652 99.9283 53.786 99.9697 53.8636 100.042C54.5366 100.683 55.2044 101.332 55.8652 101.984C55.9256 102.045 55.9532 102.155 55.9619 102.247C55.974 102.364 55.9515 102.483 55.9412 102.635C56.2845 102.513 56.6089 102.397 56.9316 102.283C57.2336 102.176 57.539 102.199 57.7823 102.388C58.1912 102.704 58.5795 103.05 58.947 103.412C59.0367 103.5 59.0454 103.704 59.0402 103.851C59.0316 104.053 58.9505 104.251 58.9436 104.453C58.9332 104.686 58.809 104.776 58.6192 104.878C58.1067 105.151 57.5459 105.111 57.0024 105.187C56.4209 105.27 55.8376 105.341 55.2579 105.434C55.175 105.448 55.0784 105.541 55.0387 105.624C54.7471 106.228 54.4693 106.839 54.188 107.447C54.2985 107.72 54.4417 108.024 54.5435 108.341C54.6453 108.662 54.5953 108.821 54.2795 108.972C53.7515 109.222 53.201 109.431 52.6541 109.64C52.3935 109.74 52.1191 109.8 51.8275 109.885C51.95 110.068 52.0657 110.242 52.1985 110.439C52.5988 110.304 53.0061 110.163 53.415 110.033C54.3986 109.723 55.3994 109.484 56.4295 109.388C56.5296 109.377 56.6521 109.401 56.7384 109.453C57.558 109.945 57.8582 110.95 57.4182 111.796C57.1594 112.293 56.8574 112.77 56.5641 113.274C56.9299 113.761 56.7591 114.315 56.6003 114.831C56.5347 115.047 56.2707 115.24 56.0516 115.365C55.4477 115.708 54.7782 115.886 54.0931 115.99C53.3788 116.098 52.6644 116.205 51.9224 116.318C51.8897 116.611 51.8586 116.903 51.8224 117.226C51.9017 117.212 51.9552 117.207 52.007 117.191C52.1381 117.152 52.2796 117.131 52.3935 117.062C53.2804 116.53 54.1898 116.822 55.0957 116.979C55.1267 116.984 55.1716 116.994 55.1854 117.017C55.3925 117.347 55.6392 117.668 55.6064 118.087C55.5857 118.355 55.3942 118.522 55.1647 118.605C54.7747 118.745 54.3744 118.861 53.9706 118.959C53.2028 119.149 52.4315 119.323 51.6584 119.494C51.4997 119.529 51.4341 119.607 51.4065 119.759C51.3461 120.1 51.2754 120.44 51.1977 120.834C52.9698 120.363 54.7695 120.102 56.5261 119.52C56.426 119.358 56.3501 119.26 56.2983 119.147C56.25 119.042 56.2259 118.926 56.1655 118.731C56.5296 118.79 56.835 118.831 57.1352 118.888C57.2767 118.916 57.4182 118.957 57.5476 119.018C57.8737 119.17 58.2154 119.191 58.5691 119.191C58.7175 119.191 58.8883 119.246 59.0126 119.33C59.6372 119.755 60.0375 120.321 60.0531 121.107C60.0617 121.483 59.8736 121.727 59.5389 121.886C59.1368 122.075 58.7192 121.968 58.3068 121.977C57.4044 121.993 56.4985 121.987 55.5995 122.055C54.0258 122.174 52.4781 122.471 50.9475 122.851C50.7612 122.897 50.6697 122.97 50.6249 123.165C50.2435 124.822 49.5153 126.286 48.2264 127.438C46.9219 128.603 45.4 129.144 43.5882 129.028C43.6313 128.945 43.6555 128.826 43.7073 128.812C44.6183 128.564 45.2257 127.921 45.7744 127.215C46.5371 126.233 47.0893 125.128 47.6 124C47.6052 123.988 47.5966 123.969 47.5897 123.919C47.1497 124.089 46.7166 124.253 46.2852 124.422C45.7071 124.65 45.1256 124.867 44.5545 125.116C43.8108 125.439 43.3225 125.247 42.8825 124.748C42.6133 124.442 42.3752 124.108 42.1457 123.769C41.9386 123.462 42.0784 122.93 42.4097 122.768C42.6116 122.668 42.841 122.609 43.0636 122.566C43.7728 122.433 44.4889 122.338 45.1947 122.191C46.261 121.97 47.3188 121.716 48.3834 121.482C48.5352 121.449 48.6181 121.39 48.6474 121.226C48.6905 120.988 48.7682 120.755 48.8441 120.47C48.3851 120.642 47.9624 120.786 47.5517 120.96C47.317 121.059 47.0927 121.067 46.8598 120.993C46.5923 120.908 46.33 120.807 46.0591 120.734C45.8521 120.679 45.8176 120.535 45.8883 120.389C46.0108 120.131 46.1402 119.864 46.3231 119.651C46.7217 119.187 47.2791 118.951 47.8295 118.714C48.2436 118.536 48.6664 118.377 49.0805 118.198C49.1616 118.163 49.2651 118.08 49.2807 118.006C49.3549 117.606 49.4049 117.202 49.4705 116.76C49.115 116.884 48.713 116.912 48.4973 117.126C48.1487 117.471 47.7053 117.638 47.336 117.927C47.1652 118.06 47.0202 118.058 46.8719 117.901C46.6613 117.678 46.4008 117.49 46.242 117.236C45.5052 116.066 44.9824 114.81 44.8426 113.417C44.803 113.024 44.9082 112.659 45.1205 112.35C45.4466 111.874 45.8245 111.433 46.1816 110.979C46.2748 110.86 46.3835 110.886 46.4612 110.986C46.5268 111.071 46.5664 111.178 46.6044 111.28C46.7028 111.541 46.808 111.801 46.8805 112.069C46.9495 112.323 47.1152 112.376 47.3222 112.307C48.1746 112.019 49.0218 111.717 49.8777 111.418C49.8397 111.064 49.8052 110.753 49.769 110.417C48.8407 110.784 48.235 110.235 47.6328 109.716C47.2842 109.415 47.2929 109.215 47.6086 108.88C47.6949 108.789 47.8019 108.714 47.8916 108.64C47.814 108.246 47.7363 107.858 47.6535 107.447C47.2152 107.558 46.7649 107.673 46.3128 107.785C45.6968 107.939 45.1153 107.829 44.5545 107.554C43.7953 107.181 43.602 106.112 43.9229 105.491C43.973 105.396 44.1593 105.27 44.2146 105.296C44.7219 105.544 45.2343 105.422 45.7451 105.353C46.1247 105.301 46.5026 105.239 46.8805 105.175C47.1221 105.134 47.3619 105.084 47.6276 105.032V105.025ZM52.1053 114.168C52.6126 114.042 53.0906 113.927 53.5669 113.802C53.6393 113.783 53.7342 113.731 53.7601 113.671C54.0207 113.039 54.2691 112.4 54.5383 111.722C54.2588 111.827 54.0258 111.924 53.7877 112.001C53.3115 112.159 52.8301 112.297 52.3573 112.462C52.2796 112.49 52.1864 112.607 52.1795 112.69C52.1433 113.165 52.1295 113.642 52.1053 114.166V114.168ZM49.9795 108.07C50.0019 108.094 50.0244 108.119 50.0485 108.143C50.6904 107.901 51.3306 107.659 51.9708 107.414C52.0225 107.394 52.0915 107.356 52.1071 107.312C52.2417 106.898 52.3676 106.48 52.5195 105.985C51.7378 106.197 51.0338 106.385 50.335 106.584C50.278 106.599 50.209 106.682 50.1969 106.743C50.1175 107.185 50.0503 107.628 49.9795 108.07ZM49.788 113.46C49.5757 113.547 49.3738 113.579 49.2393 113.692C48.9666 113.916 48.6612 113.923 48.3454 113.904C48.1039 113.889 47.864 113.844 47.6052 113.811C47.7812 114.201 47.9434 114.576 48.1211 114.942C48.1487 114.997 48.2643 115.057 48.3213 115.044C48.7423 114.942 49.1599 114.824 49.5757 114.702C49.6344 114.684 49.7121 114.612 49.7172 114.56C49.75 114.208 49.7655 113.854 49.788 113.46Z" fill="black"/>
<path d="M14.7516 121.29C14.9431 121.261 15.1433 121.259 15.3244 121.199C15.9301 120.998 16.5271 120.774 17.1293 120.567C17.2967 120.51 17.4089 120.418 17.4468 120.24C17.4831 120.066 17.5797 120.023 17.7609 120.061C18.2768 120.168 18.7962 120.254 19.3552 120.354C19.3156 118.687 19.2776 117.04 19.2379 115.318C18.9791 115.399 18.791 115.424 18.6391 115.512C18.0628 115.84 17.4934 116.182 16.9292 116.534C16.7911 116.62 16.691 116.648 16.5426 116.56C16.2855 116.408 16.0146 116.283 15.7489 116.149C15.478 116.011 15.4073 115.684 15.6333 115.477C16.748 114.46 17.9852 113.637 19.4519 113.231C19.6969 113.164 20.0247 113.274 20.2801 113.385C20.9237 113.661 21.3258 114.212 21.7209 114.762C21.9539 115.089 22.0419 115.434 22.0436 115.835C22.0574 118.155 22.0747 120.474 22.123 122.794C22.1506 124.113 22.2265 125.432 22.3059 126.751C22.3283 127.129 22.2472 127.471 22.0643 127.777C21.6467 128.477 21.2015 129.163 20.7564 129.847C20.7115 129.916 20.5907 129.935 20.5062 129.976C20.4993 129.98 20.4889 129.976 20.4803 129.976C19.8021 130.102 19.3552 129.779 18.9791 129.253C18.6236 128.755 18.225 128.289 17.8351 127.818C17.0948 126.924 16.5703 125.91 16.1303 124.769C16.2614 124.845 16.3373 124.888 16.4115 124.935C17.3174 125.498 18.2423 126.021 19.2603 126.357C19.545 126.452 19.6745 126.328 19.652 126.026C19.5847 125.101 19.5226 124.173 19.476 123.246C19.4553 122.823 19.4726 122.399 19.4726 121.976C17.9472 122.542 16.3684 122.79 14.931 123.466C14.7792 123.538 14.7257 123.598 14.7136 123.773C14.6687 124.441 14.9103 125.066 14.9845 125.713C15.0466 126.254 15.0846 126.798 15.1312 127.341C15.1398 127.443 15.1364 127.547 15.1484 127.647C15.233 128.389 14.6273 129.039 13.8664 129.061C13.5886 129.07 13.4091 128.98 13.2417 128.771C12.8932 128.339 12.5205 127.928 12.1667 127.502C12.1167 127.442 12.0805 127.336 12.0943 127.26C12.2772 126.264 12.3203 125.256 12.2478 124.255C12.046 121.414 12.4152 118.664 13.4592 116.016C13.6438 115.55 13.9423 115.116 14.2494 114.714C14.4013 114.514 14.6825 114.398 14.9224 114.286C15.1191 114.194 15.2934 114.294 15.39 114.483C15.5142 114.724 15.4987 114.947 15.4038 115.227C15.2071 115.81 15.1001 116.425 14.9811 117.033C14.9293 117.297 14.9379 117.571 14.9172 117.858C15.4728 117.694 16.0043 117.545 16.5288 117.378C16.7411 117.311 16.9395 117.299 17.1466 117.385C17.2173 117.414 17.2898 117.445 17.364 117.456C17.7988 117.509 18.0438 117.747 18.1025 118.183C18.1042 118.2 18.1094 118.215 18.1163 118.233C18.3096 118.733 18.3251 118.785 17.8747 119.104C17.2415 119.55 16.5754 119.949 15.9215 120.365C15.5764 120.584 15.2261 120.796 14.8827 121.017C14.8085 121.066 14.755 121.143 14.6929 121.207C14.7136 121.237 14.7326 121.266 14.7533 121.294L14.7516 121.29ZM14.7809 120.534C15.1553 120.249 15.4987 119.988 15.8473 119.723C15.5418 119.4 15.1519 119.496 14.7809 119.436V120.532V120.534Z" fill="black"/>
<path d="M37.4801 123.474C37.6146 123.27 37.7354 123.117 37.8234 122.947C38.3411 121.932 38.8484 120.912 39.366 119.897C39.4368 119.759 39.5507 119.645 39.6387 119.515C39.7491 119.355 39.8733 119.198 39.9544 119.023C40.2443 118.402 40.5497 117.797 40.9449 117.226C41.3625 116.622 41.6386 115.921 41.9906 115.27C42.1976 114.89 42.4168 114.514 42.6652 114.163C42.7808 114.001 42.9827 113.899 43.1449 113.769C43.1656 113.787 43.1863 113.802 43.207 113.82C43.1449 114.009 43.0811 114.199 43.0224 114.389C42.1217 117.34 41.2003 120.283 40.3341 123.244C39.9044 124.71 39.5783 126.204 39.2056 127.687C39.1089 128.075 38.543 128.526 38.1496 128.529C37.7406 128.533 37.3368 128.533 36.94 128.386C36.217 128.118 35.6803 127.303 35.7183 126.63C35.7511 126.069 35.7218 125.504 35.7269 124.941C35.7269 124.843 35.7425 124.733 35.7873 124.65C36.3153 123.685 36.481 122.635 36.5552 121.556C36.5845 121.121 36.7036 120.689 36.814 120.266C37.0987 119.184 37.273 118.086 37.3455 116.972C37.3783 116.468 37.1453 116.047 36.7864 115.732C36.3792 115.375 35.9357 115.051 35.4733 114.769C35.1178 114.553 34.9039 114.277 34.8676 113.882C34.7814 112.946 35.0954 112.129 35.6803 111.366C35.7149 111.458 35.7373 111.516 35.7563 111.575C35.9702 112.236 36.3395 112.542 37.0124 112.452C37.9511 112.33 38.6275 112.747 39.2211 113.379C39.5006 113.676 39.7612 113.997 39.9872 114.336C40.3168 114.826 40.4307 115.363 40.039 115.872C39.7301 116.276 39.4213 116.708 39.0244 117.008C38.2824 117.569 37.9114 118.327 37.6785 119.175C37.311 120.515 37.2782 121.882 37.4093 123.258C37.4145 123.313 37.4404 123.367 37.4732 123.479L37.4801 123.474Z" fill="black"/>
<path d="M37.5181 108.447C37.7838 107.948 38.0202 107.501 38.26 107.054C38.3515 106.881 38.4274 106.694 38.5448 106.541C38.8605 106.128 38.719 105.757 38.5033 105.363C38.3049 104.999 38.1151 104.624 37.9805 104.234C37.8649 103.901 37.8028 103.542 37.7717 103.19C37.6992 102.385 38.3273 101.834 39.1297 101.985C39.3626 102.028 39.6025 102.083 39.8113 102.188C40.7172 102.639 41.5627 103.166 42.0579 104.105C42.3633 104.685 42.7188 105.239 42.9862 105.835C43.1053 106.097 43.0691 106.432 43.0898 106.736C43.1053 106.974 43.0898 107.214 43.107 107.451C43.1208 107.648 43.038 107.779 42.8758 107.868C42.2166 108.235 41.5454 108.443 40.8259 108.024C40.5101 107.839 40.1857 107.667 39.8837 107.463C39.7267 107.357 39.6318 107.357 39.4627 107.458C38.9313 107.775 38.3808 108.062 37.8356 108.354C37.7579 108.395 37.663 108.405 37.5181 108.447Z" fill="black"/>
<path d="M52.2332 127.602C52.4316 127.507 52.6318 127.417 52.8251 127.315C53.0839 127.181 53.3565 127.093 53.5636 126.848C53.6982 126.689 53.9622 126.639 54.171 126.544C54.2538 126.506 54.3418 126.48 54.397 126.459C53.8949 126.012 53.4031 125.556 52.8923 125.124C52.706 124.967 52.4661 124.876 52.2677 124.731C52.0365 124.562 51.7518 124.392 51.8225 124.047C51.8898 123.714 52.1918 123.629 52.48 123.564C53.184 123.4 53.8483 123.59 54.5023 123.812C55.3236 124.09 56.0621 124.534 56.7696 125.03C56.8386 125.078 56.9059 125.142 56.9853 125.164C57.4839 125.309 57.8032 125.66 58.0068 126.105C58.1776 126.481 58.3018 126.882 58.4209 127.279C58.5503 127.712 58.3812 128.084 58.1138 128.415C57.9654 128.6 57.8221 128.826 57.622 128.923C57.4115 129.026 57.1233 129.059 56.8921 129.014C56.3261 128.904 55.8533 128.574 55.4409 128.191C55.0423 127.82 54.6058 127.731 54.1002 127.833C53.8535 127.883 53.6153 127.935 53.3582 127.833C53.2357 127.785 53.058 127.832 52.9182 127.873C52.668 127.947 52.3989 127.859 52.2367 127.605L52.2332 127.602Z" fill="black"/>
</g>
<defs>
<clipPath id="clip0_554_1942">
<rect width="95" height="130" fill="white"/>
</clipPath>
</defs>
</svg>
