<svg width="120" height="120" viewBox="0 0 120 120" fill="none" xmlns="http://www.w3.org/2000/svg">
  <rect width="120" height="120" fill="white"/>
  <rect x="10" y="10" width="100" height="100" fill="white" stroke="#000" stroke-width="2"/>
  <!-- QR Code pattern placeholder -->
  <rect x="20" y="20" width="20" height="20" fill="#000"/>
  <rect x="50" y="20" width="10" height="10" fill="#000"/>
  <rect x="70" y="20" width="20" height="20" fill="#000"/>
  <rect x="20" y="50" width="10" height="10" fill="#000"/>
  <rect x="40" y="50" width="10" height="10" fill="#000"/>
  <rect x="60" y="50" width="10" height="10" fill="#000"/>
  <rect x="80" y="50" width="10" height="10" fill="#000"/>
  <rect x="20" y="80" width="20" height="20" fill="#000"/>
  <rect x="50" y="80" width="10" height="10" fill="#000"/>
  <rect x="70" y="80" width="20" height="20" fill="#000"/>
  <!-- Corner markers -->
  <rect x="25" y="25" width="10" height="10" fill="#000"/>
  <rect x="85" y="25" width="10" height="10" fill="#000"/>
  <rect x="25" y="85" width="10" height="10" fill="#000"/>
  <text x="60" y="65" font-family="Arial" font-size="8" fill="#000" text-anchor="middle">QR</text>
</svg>






