<svg width="40" height="40" viewBox="0 0 40 40" fill="none" xmlns="http://www.w3.org/2000/svg">
<path d="M20.0001 15C18.674 15 17.4022 15.5268 16.4645 16.4645C15.5269 17.4021 15.0001 18.6739 15.0001 20C15.0001 21.3261 15.5269 22.5979 16.4645 23.5355C17.4022 24.4732 18.674 25 20.0001 25C21.3262 25 22.5979 24.4732 23.5356 23.5355C24.4733 22.5979 25.0001 21.3261 25.0001 20C25.0001 18.6739 24.4733 17.4021 23.5356 16.4645C22.5979 15.5268 21.3262 15 20.0001 15ZM20.0001 28.3333C17.7899 28.3333 15.6703 27.4554 14.1075 25.8926C12.5447 24.3298 11.6667 22.2101 11.6667 20C11.6667 17.7899 12.5447 15.6702 14.1075 14.1074C15.6703 12.5446 17.7899 11.6667 20.0001 11.6667C22.2102 11.6667 24.3298 12.5446 25.8926 14.1074C27.4554 15.6702 28.3334 17.7899 28.3334 20C28.3334 22.2101 27.4554 24.3298 25.8926 25.8926C24.3298 27.4554 22.2102 28.3333 20.0001 28.3333ZM20.0001 7.5C11.6667 7.5 4.55008 12.6833 1.66675 20C4.55008 27.3167 11.6667 32.5 20.0001 32.5C28.3334 32.5 35.4501 27.3167 38.3334 20C35.4501 12.6833 28.3334 7.5 20.0001 7.5Z" fill="#5C3B1F"/>
</svg>
