<svg width="40" height="40" viewBox="0 0 40 40" fill="none" xmlns="http://www.w3.org/2000/svg">
<path fill-rule="evenodd" clip-rule="evenodd" d="M18.8217 5.48847C19.1342 5.17601 19.5581 5.00049 20 5.00049C20.442 5.00049 20.8658 5.17601 21.1784 5.48847L31.1784 15.4885L34.5117 18.8218C34.8153 19.1361 34.9833 19.5571 34.9795 19.9941C34.9757 20.4311 34.8004 20.8492 34.4914 21.1582C34.1824 21.4672 33.7644 21.6425 33.3274 21.6463C32.8904 21.6501 32.4694 21.4821 32.155 21.1785L31.6667 20.6901V31.6668C31.6667 32.5509 31.3155 33.3987 30.6904 34.0238C30.0653 34.6489 29.2174 35.0001 28.3334 35.0001H23.3334C22.8913 35.0001 22.4674 34.8245 22.1549 34.512C21.8423 34.1994 21.6667 33.7755 21.6667 33.3335V28.3335H18.3334V33.3335C18.3334 33.7755 18.1578 34.1994 17.8452 34.512C17.5326 34.8245 17.1087 35.0001 16.6667 35.0001H11.6667C10.7826 35.0001 9.93479 34.6489 9.30967 34.0238C8.68455 33.3987 8.33336 32.5509 8.33336 31.6668V20.6901L7.84503 21.1785C7.53069 21.4821 7.10969 21.6501 6.67269 21.6463C6.2357 21.6425 5.81768 21.4672 5.50866 21.1582C5.19965 20.8492 5.02437 20.4311 5.02057 19.9941C5.01677 19.5571 5.18476 19.1361 5.48836 18.8218L8.82169 15.4885L18.8217 5.48847Z" fill="#5C3B1F"/>
</svg>
