<svg width="40" height="40" viewBox="0 0 40 40" fill="none" xmlns="http://www.w3.org/2000/svg">
<path fill-rule="evenodd" clip-rule="evenodd" d="M3.75 8.33333C3.75 7.11776 4.23289 5.95197 5.09243 5.09243C5.95197 4.23289 7.11776 3.75 8.33333 3.75H31.6667C32.8822 3.75 34.048 4.23289 34.9076 5.09243C35.7671 5.95197 36.25 7.11776 36.25 8.33333V25C36.25 26.2156 35.7671 27.3814 34.9076 28.2409C34.048 29.1004 32.8822 29.5833 31.6667 29.5833H13.2683C12.635 29.5833 12.0367 29.8717 11.6417 30.3667L7.75833 35.2217C6.42833 36.8817 3.75 35.9433 3.75 33.8167V8.33333ZM10.4167 20C10.4167 19.6685 10.5484 19.3505 10.7828 19.1161C11.0172 18.8817 11.3351 18.75 11.6667 18.75H28.3333C28.6649 18.75 28.9828 18.8817 29.2172 19.1161C29.4516 19.3505 29.5833 19.6685 29.5833 20C29.5833 20.3315 29.4516 20.6495 29.2172 20.8839C28.9828 21.1183 28.6649 21.25 28.3333 21.25H11.6667C11.3351 21.25 11.0172 21.1183 10.7828 20.8839C10.5484 20.6495 10.4167 20.3315 10.4167 20ZM11.6667 12.0833C11.3351 12.0833 11.0172 12.215 10.7828 12.4494C10.5484 12.6839 10.4167 13.0018 10.4167 13.3333C10.4167 13.6649 10.5484 13.9828 10.7828 14.2172C11.0172 14.4516 11.3351 14.5833 11.6667 14.5833H21.6667C21.9982 14.5833 22.3161 14.4516 22.5505 14.2172C22.785 13.9828 22.9167 13.6649 22.9167 13.3333C22.9167 13.0018 22.785 12.6839 22.5505 12.4494C22.3161 12.215 21.9982 12.0833 21.6667 12.0833H11.6667Z" fill="#5C3B1F"/>
</svg>
