<svg width="40" height="40" viewBox="0 0 40 40" fill="none" xmlns="http://www.w3.org/2000/svg">
<path d="M20.0002 15.0002C18.3891 15.0002 17.0141 14.4307 15.8752 13.2918C14.7363 12.1529 14.1668 10.7779 14.1668 9.16683C14.1668 7.55572 14.7363 6.18072 15.8752 5.04183C17.0141 3.90294 18.3891 3.3335 20.0002 3.3335C21.6113 3.3335 22.9863 3.90294 24.1252 5.04183C25.2641 6.18072 25.8335 7.55572 25.8335 9.16683C25.8335 10.7779 25.2641 12.1529 24.1252 13.2918C22.9863 14.4307 21.6113 15.0002 20.0002 15.0002ZM17.6252 34.2918L10.0002 26.6668C9.44461 26.1113 9.02794 25.4863 8.75016 24.7918C8.47238 24.0974 8.3335 23.3335 8.3335 22.5002C8.3335 20.8613 8.89627 19.4791 10.0218 18.3535C11.1474 17.2279 12.5291 16.6657 14.1668 16.6668C14.9724 16.6668 15.7157 16.8196 16.3968 17.1252C17.0779 17.4307 17.6957 17.8613 18.2502 18.4168L20.0002 20.1668L21.7502 18.4168C22.3057 17.8613 22.9241 17.4307 23.6052 17.1252C24.2863 16.8196 25.0291 16.6668 25.8335 16.6668C27.4724 16.6668 28.8546 17.2296 29.9802 18.3552C31.1057 19.4807 31.6679 20.8624 31.6668 22.5002C31.6668 23.3335 31.5279 24.0974 31.2502 24.7918C30.9724 25.4863 30.5557 26.1113 30.0002 26.6668L22.3752 34.2918C22.0418 34.6252 21.6668 34.8752 21.2502 35.0418C20.8335 35.2085 20.4168 35.2918 20.0002 35.2918C19.5835 35.2918 19.1668 35.2085 18.7502 35.0418C18.3335 34.8752 17.9585 34.6252 17.6252 34.2918Z" fill="#5C3B1F"/>
</svg>
