<svg width="42" height="50" viewBox="0 0 42 50" fill="none" xmlns="http://www.w3.org/2000/svg">
<path d="M12.6926 14.1289H16.0968C17.1173 14.1289 17.7697 12.6146 17.7697 11.5923V0.774583C17.7697 -0.249025 17.1173 0.0366625 16.0968 0.0366625H12.6926V14.1289ZM12.6926 34.6267H16.0968C17.1173 34.6267 17.7697 35.8155 17.7697 36.8404V47.6556C17.7697 48.6728 17.1173 50 16.0968 50H12.6926V34.6267ZM8.19945 24.3778C8.17026 14.4914 10.012 14.1289 11.0616 14.1289H11.4234V0.0366625H10.9893C9.11967 0.0366625 0 3.13823 0 25.0171C0 46.8972 9.11967 50 10.9893 50H11.4234V34.6267H11.0616C10.012 34.6267 8.22737 34.259 8.19945 24.3778ZM19.2877 21.02C19.9059 21.7669 20.2359 22.7111 20.2359 23.6834C20.2359 24.6558 19.9059 25.6 19.2877 26.3481L21.3148 28.0315C22.3094 26.8046 22.8537 25.2687 22.8556 23.6834C22.8537 22.0981 22.3094 20.5622 21.3148 19.3353L19.2877 21.02ZM25.8041 32.8882C28.0173 30.4481 29.2437 27.2593 29.2413 23.9512C29.2413 20.6485 28.033 17.4764 25.8181 15.0372L23.8469 16.7718C25.6323 18.7284 26.6232 21.2912 26.6228 23.9512C26.6274 26.6243 25.6246 29.1991 23.8177 31.1536L25.8041 32.8882ZM30.2897 37.7449C33.7212 34.0973 35.6321 29.2579 35.627 24.2279C35.627 19.197 33.7447 14.4056 30.3342 10.7403L28.3922 12.5262C31.3531 15.6894 33.0006 19.8775 32.9958 24.2292C32.9958 28.6144 31.3546 32.7806 28.363 35.9603L30.2897 37.7449ZM34.7931 42.6029C39.428 37.7374 42.0116 31.2466 42 24.4969C42 17.7391 39.4564 11.3271 34.835 6.44222L32.9387 8.27165C37.0828 12.6366 39.3917 18.4514 39.3815 24.4969C39.3815 30.595 37.0803 36.3741 32.8955 40.7632L34.7931 42.6029Z" fill="#106062"/>
</svg>
