<svg width="120" height="120" viewBox="0 0 120 120" fill="none" xmlns="http://www.w3.org/2000/svg">
<path d="M32.0054 67.0899H36.5473V89.5508H40.9027V67.0899H45.4446V63.2945H32.0054V67.0899ZM54.9641 84.8844C54.2175 85.7555 51.6665 87.4976 51.6665 85.0089V70.1386H47.8089V86.3777C47.8089 91.293 52.7242 89.9864 55.0263 87.4354V89.5508H58.8839V70.1386H55.0263V84.8844H54.9641ZM69.3366 70.0141C67.0968 70.0141 65.6657 71.694 65.6657 71.694V63.2323H61.7459V89.5508H65.6657V88.0576C65.6657 88.0576 66.9723 89.7997 69.3366 89.7997C71.3899 89.7997 72.9453 87.9954 72.9453 85.5066V74.7428C72.9453 71.8185 71.5765 70.0141 69.3366 70.0141ZM68.9011 85.0089C68.9011 86.4399 67.9056 87.1243 66.599 86.5643C66.2478 86.3966 65.9313 86.1644 65.6657 85.8799V73.8095C65.9146 73.5606 66.2257 73.374 66.4746 73.1873C67.8434 72.5029 68.9011 73.5606 68.9011 74.9916V85.0089ZM83.2736 84.0134C83.2736 85.5066 82.4648 86.5021 81.5315 86.5643C80.536 86.6266 79.5405 85.8177 79.5405 84.0134V80.3425H86.9445V75.365C86.9672 74.6066 86.8354 73.8515 86.5573 73.1456C86.2793 72.4397 85.8606 71.7977 85.3269 71.2585C84.2563 70.2827 82.8555 69.7491 81.4071 69.7653C80.0383 69.7653 78.6072 70.2008 77.4873 71.0719C76.3051 72.0051 75.5585 73.4362 75.5585 75.365V84.0756C75.5585 85.8177 76.1185 87.1865 76.9895 88.182C78.0473 89.302 79.4783 89.9241 80.9715 89.9864C82.7759 90.0486 84.7047 89.302 85.8246 87.7465C86.509 86.8132 86.9445 85.5688 86.9445 84.0756V83.0801H83.2736V84.0134ZM79.5405 75.365C79.5405 74.3072 80.1627 73.0629 81.3449 73.0629C82.527 73.0629 83.2736 74.1828 83.2736 75.365V77.356H79.5405V75.365Z" fill="#FF0000"/>
<path d="M59.9417 4C52.5877 4.00041 45.3058 5.44929 38.5117 8.26394C31.7176 11.0786 25.5444 15.2039 20.3446 20.4042C15.1449 25.6046 11.0203 31.7782 8.20638 38.5726C5.39249 45.367 3.94442 52.6491 3.94482 60.0031C3.94523 67.3571 5.39412 74.6391 8.20876 81.4331C11.0234 88.2272 15.1487 94.4004 20.349 99.6002C25.5494 104.8 31.723 108.925 38.5174 111.738C45.3118 114.552 52.5939 116 59.9479 116C74.8001 115.999 89.0436 110.098 99.545 99.5958C110.046 89.0932 115.946 74.849 115.945 59.9969C115.944 45.1448 110.043 30.9013 99.5406 20.3998C89.038 9.89837 74.7938 3.99918 59.9417 4ZM69.7723 24.9677H74.7498V41.6424C74.7498 42.7001 75.2475 42.7001 75.4342 42.7001C76.1808 42.7001 77.3008 41.8912 77.8607 41.3313V24.9055H82.8382V46.9309H77.8607V45.0022C77.1763 45.6244 76.4919 46.1221 75.8075 46.4954C74.8742 46.9932 74.0032 47.1798 73.1321 47.1798C72.6552 47.2027 72.1791 47.1197 71.7381 46.9368C71.2971 46.7539 70.9019 46.4757 70.5811 46.1221C70.0212 45.4377 69.7723 44.38 69.7723 43.0734V24.9677ZM53.9065 30.7541C53.9065 27.332 56.7063 24.5322 60.1284 24.5322C63.5504 24.5322 66.3503 27.332 66.3503 30.7541V41.3313C66.3503 44.7533 63.5504 47.5531 60.1284 47.5531C56.7063 47.5531 53.9065 44.7533 53.9065 41.3313V30.7541ZM40.965 17.377L43.9515 28.3275L47.0002 17.377H52.6621L46.8136 34.6739V46.9309H41.2761V34.6739L35.3031 17.377H40.965ZM90.1178 95.3994C86.9447 98.5103 60.0662 98.5725 60.0662 98.5725C60.0662 98.5725 33.2499 98.5103 30.0145 95.3994C26.8413 92.2884 26.8413 76.796 26.8413 76.6715C26.8413 76.6093 26.8413 61.1168 30.0145 57.9437C33.1876 54.8327 60.0662 54.7705 60.0662 54.7705C60.0662 54.7705 86.8824 54.8327 90.1178 57.9437C93.291 61.0546 93.3532 76.5471 93.3532 76.6715C93.3532 76.6715 93.3532 92.2262 90.1178 95.3994Z" fill="#FF0000"/>
<path d="M60.004 43.5089C61.0617 43.5089 61.5595 42.8867 61.6217 41.8912V30.0697C61.6217 29.2608 60.8128 28.5764 60.0662 28.5764C59.3196 28.5764 58.5107 29.1986 58.5107 30.0697V41.8912C58.5107 42.8245 58.9463 43.4467 60.004 43.5089Z" fill="#FF0000"/>
</svg>
