<svg width="48" height="48" viewBox="0 0 48 48" fill="none" xmlns="http://www.w3.org/2000/svg">
<path d="M24.1802 2.875C19.8056 2.87996 15.6117 4.61994 12.5184 7.71322C9.42512 10.8065 7.68514 15.0005 7.68018 19.375C7.68018 33.4938 22.6802 44.1569 23.3196 44.6031C23.5718 44.7798 23.8722 44.8746 24.1802 44.8746C24.4881 44.8746 24.7886 44.7798 25.0408 44.6031C25.6802 44.1569 40.6802 33.4938 40.6802 19.375C40.6752 15.0005 38.9352 10.8065 35.842 7.71322C32.7487 4.61994 28.5547 2.87996 24.1802 2.875ZM24.1802 13.375C25.3669 13.375 26.5269 13.7269 27.5136 14.3862C28.5003 15.0455 29.2693 15.9825 29.7235 17.0789C30.1776 18.1753 30.2964 19.3817 30.0649 20.5455C29.8334 21.7094 29.2619 22.7785 28.4228 23.6176C27.5837 24.4568 26.5146 25.0282 25.3507 25.2597C24.1868 25.4912 22.9804 25.3724 21.8841 24.9183C20.7877 24.4642 19.8506 23.6951 19.1914 22.7084C18.5321 21.7217 18.1802 20.5617 18.1802 19.375C18.1802 17.7837 18.8123 16.2576 19.9375 15.1324C21.0628 14.0071 22.5889 13.375 24.1802 13.375Z" fill="black"/>
</svg>
