<svg width="49" height="35" viewBox="0 0 49 35" fill="none" xmlns="http://www.w3.org/2000/svg">
<path d="M48.7069 16.5287L38.7188 1.55969C38.4008 1.08024 37.9691 0.686916 37.4623 0.414779C36.9554 0.142642 36.3891 0.000148244 35.8138 0H3.5C2.57174 0 1.6815 0.368749 1.02513 1.02513C0.368749 1.6815 0 2.57174 0 3.5V31.5C0 32.4283 0.368749 33.3185 1.02513 33.9749C1.6815 34.6313 2.57174 35 3.5 35H35.8138C36.3886 34.9989 36.9544 34.8563 37.4611 34.5846C37.9677 34.313 38.3997 33.9207 38.7188 33.4425L48.7003 18.4713C48.8932 18.1843 48.9967 17.8467 48.9979 17.501C48.999 17.1553 48.8978 16.817 48.7069 16.5287Z" fill="#A10029"/>
</svg>
